<svg width="824" height="442" viewBox="0 0 824 442" fill="none" xmlns="http://www.w3.org/2000/svg">
<path d="M715.168 440.064C715.168 440.064 813.003 369.803 768.422 278.113C747.806 235.718 719.475 242.843 689.406 249.965C654.443 258.251 617.133 266.534 586.89 196.95C530.641 67.5331 518.042 -31.543 368.298 9.32617C218.557 50.1923 279.94 157.447 201.568 168.217C123.197 178.991 61.2757 217.832 97.1902 301.822C133.105 385.808 43.9377 440.964 43.9377 440.964L715.168 440.064Z" fill="#FFE492"/>
<path d="M89.0483 440.658C89.0483 440.658 92.3526 432.011 134.519 429.686C176.685 427.358 215.892 408.706 285.429 411.411C354.966 414.118 412.668 431.107 491.821 425.903C570.974 420.695 620.539 427.33 638.294 432.562C656.048 437.797 729.525 431.337 734.953 440.921L89.0483 440.658Z" fill="#4F9CF9" fill-opacity="0.5"/>
<path d="M449.938 197.912L469.221 427.186C469.221 427.186 471.239 441.087 460.904 441.111C443.906 441.151 376.302 441.111 376.302 441.111C376.302 441.111 389.094 438.216 388.937 431.707C388.757 424.034 366.401 195.743 366.401 195.743L449.938 197.912Z" fill="#4A75CB"/>
<path d="M370.815 436.948C374.157 436.961 438.73 437.163 455.283 436.948C462.497 436.859 463.762 430.537 463.82 426.442C463.851 424.481 463.603 423.029 463.603 423.029L463.1 417.071L461.823 401.881L460.693 388.464L459.244 371.221L458.022 356.665L444.32 193.749L360.783 191.583C360.783 191.583 370.197 287.121 376.856 356.665C377.6 364.415 378.308 371.843 378.96 378.778C379.175 380.993 379.377 383.159 379.576 385.266C380.195 391.846 380.759 397.889 381.249 403.223C381.509 406.035 381.748 408.647 381.962 411.043C382.814 420.419 383.31 426.411 383.316 427.547C383.319 428.212 383.264 428.831 383.154 429.404C381.785 436.709 372.068 436.948 370.815 436.948Z" fill="#AFCDFB"/>
<path d="M251.749 73.1509H652.813L605.842 261.813L599.413 287.651L577.535 375.528H171.118L251.749 73.1509Z" fill="#AFCDFB"/>
<path d="M652.813 73.1474L659.323 75.3192L586.192 382.092L577.535 375.528L652.813 73.1474Z" fill="#4A75CB"/>
<path d="M586.192 382.092H182.273L171.119 375.528H577.535L586.192 382.092Z" fill="#4A75CB"/>
<path d="M444.348 441.197H356.893V437.04H444.348V441.197Z" fill="#4A75CB"/>
<path d="M379.126 382.09L379.576 385.266L462.923 402.104L462.319 388.424L460.634 380.537L379.126 382.09Z" fill="#4A75CB"/>
<path d="M370.481 437.047C373.823 437.056 438.729 437.163 455.283 436.952C462.497 436.86 463.762 430.537 463.82 426.442L381.962 411.043C382.814 420.42 383.31 426.411 383.316 427.548C383.319 428.212 383.264 428.831 383.154 429.404C381.785 436.71 371.734 437.047 370.481 437.047Z" fill="#699DEE"/>
<path d="M577.535 375.528L404.287 316.124L592.334 316.09L582.296 356.414L577.535 375.528Z" fill="#A1C3F8"/>
<path d="M251.749 73.1478H652.813L592.367 316.09L186.947 316.167L251.749 73.1478Z" fill="#699DEE"/>
<path d="M363.552 346.887C364.71 340.926 370.481 336.095 376.442 336.095C382.4 336.095 386.294 340.926 385.136 346.887C383.978 352.845 378.207 357.679 372.246 357.679C366.288 357.679 362.395 352.845 363.552 346.887Z" fill="#4A75CB"/>
<path d="M205.592 305.635H581.11L623.636 136.222L626.896 123.231L629.677 112.151L636.199 86.1664H266.094L258.932 112.151L255.877 123.231L252.296 136.222L205.592 305.635Z" fill="white"/>
<path d="M266.094 86.1663H636.199L629.677 112.151H258.932L266.094 86.1663Z" fill="#AFCDFB"/>
<path d="M618.45 94.6607C620.245 94.6607 621.336 96.1157 620.889 97.9107C620.441 99.7027 618.625 101.158 616.83 101.158C615.038 101.158 613.944 99.7027 614.392 97.9107C614.839 96.1157 616.655 94.6607 618.45 94.6607Z" fill="#E9F3FE"/>
<path d="M607.659 94.6607C609.451 94.6607 610.544 96.1157 610.097 97.9107C609.65 99.7027 607.833 101.158 606.038 101.158C604.243 101.158 603.153 99.7027 603.6 97.9107C604.047 96.1157 605.864 94.6607 607.659 94.6607Z" fill="#E9F3FE"/>
<path d="M591.978 97.9107C592.425 96.1157 594.242 94.6607 596.037 94.6607C597.832 94.6607 598.922 96.1157 598.475 97.9107C598.028 99.7027 596.212 101.158 594.417 101.158C592.621 101.158 591.531 99.7027 591.978 97.9107Z" fill="#E9F3FE"/>
<path d="M470.44 263.838C461.17 263.838 453.659 271.352 453.659 280.618C453.659 289.887 461.17 297.398 470.44 297.398C479.706 297.398 487.22 289.887 487.22 280.618C487.22 271.352 479.706 263.838 470.44 263.838Z" fill="#AED3FF"/>
<path d="M527.431 271.245H499.632C498.624 271.245 497.8 272.069 497.8 273.076C497.8 274.084 498.624 274.908 499.632 274.908H527.431C528.438 274.908 529.262 274.084 529.262 273.076C529.262 272.069 528.438 271.245 527.431 271.245Z" fill="#84BCFF"/>
<path d="M527.431 278.787H499.632C498.624 278.787 497.8 279.611 497.8 280.618C497.8 281.626 498.624 282.45 499.632 282.45H527.431C528.438 282.45 529.262 281.626 529.262 280.618C529.262 279.611 528.438 278.787 527.431 278.787Z" fill="#84BCFF"/>
<path d="M527.431 286.328H499.632C498.624 286.328 497.8 287.152 497.8 288.159C497.8 289.167 498.624 289.991 499.632 289.991H527.431C528.438 289.991 529.262 289.167 529.262 288.159C529.262 287.152 528.438 286.328 527.431 286.328Z" fill="#84BCFF"/>
<path d="M455.075 280.373H470.44V265.011C461.955 265.011 455.075 271.891 455.075 280.373Z" fill="#4F9CF9"/>
<path d="M485.802 280.869H455.075C455.075 289.354 461.955 296.231 470.44 296.234C478.925 296.231 485.802 289.354 485.802 280.869Z" fill="#AED3FF"/>
<path d="M467.787 272.476H459.449C458.974 272.476 458.585 272.865 458.585 273.34C458.585 273.812 458.974 274.201 459.449 274.201H467.787C468.262 274.201 468.648 273.812 468.648 273.34C468.648 272.865 468.262 272.476 467.787 272.476Z" fill="#84BCFF"/>
<path d="M461.348 275.616H459.449C458.974 275.616 458.585 276.002 458.585 276.477C458.585 276.951 458.974 277.34 459.449 277.34H461.348C461.82 277.34 462.209 276.951 462.209 276.477C462.209 276.002 461.82 275.616 461.348 275.616Z" fill="#84BCFF"/>
<path d="M480.165 284.625H471.827C471.352 284.625 470.963 285.014 470.963 285.489C470.963 285.964 471.352 286.35 471.827 286.35H480.165C480.64 286.35 481.026 285.964 481.026 285.489C481.026 285.014 480.64 284.625 480.165 284.625Z" fill="#84BCFF"/>
<path d="M473.726 287.765H471.827C471.352 287.765 470.963 288.151 470.963 288.625C470.963 289.1 471.352 289.489 471.827 289.489H473.726C474.201 289.489 474.587 289.1 474.587 288.625C474.587 288.151 474.201 287.765 473.726 287.765Z" fill="#84BCFF"/>
<path d="M358.318 280.618C358.318 271.352 365.829 263.838 375.098 263.838C384.364 263.838 391.878 271.352 391.878 280.618C391.878 289.887 384.364 297.398 375.098 297.398C365.829 297.398 358.318 289.887 358.318 280.618Z" fill="#4F9CF9"/>
<path d="M404.29 274.908H432.088C433.096 274.908 433.92 274.084 433.92 273.076C433.92 272.069 433.096 271.245 432.088 271.245H404.29C403.282 271.245 402.458 272.069 402.458 273.076C402.458 274.084 403.282 274.908 404.29 274.908Z" fill="#84BCFF"/>
<path d="M432.088 278.787H404.29C403.282 278.787 402.458 279.611 402.458 280.618C402.458 281.626 403.282 282.45 404.29 282.45H432.088C433.096 282.45 433.92 281.626 433.92 280.618C433.92 279.611 433.096 278.787 432.088 278.787Z" fill="#84BCFF"/>
<path d="M432.088 286.328H404.29C403.282 286.328 402.458 287.152 402.458 288.159C402.458 289.167 403.282 289.991 404.29 289.991H432.088C433.096 289.991 433.92 289.167 433.92 288.159C433.92 287.152 433.096 286.328 432.088 286.328Z" fill="#84BCFF"/>
<path d="M375.098 280.891L359.736 280.695C359.733 280.759 359.733 280.827 359.733 280.891C359.733 289.376 366.613 296.256 375.098 296.256C378.13 296.256 380.958 295.374 383.341 293.857L375.098 280.891Z" fill="#AED3FF"/>
<path d="M375.664 285.727H367.323C366.852 285.727 366.463 286.116 366.463 286.591C366.463 287.066 366.852 287.455 367.323 287.455H375.664C376.136 287.455 376.525 287.066 376.525 286.591C376.525 286.116 376.136 285.727 375.664 285.727Z" fill="#84BCFF"/>
<path d="M369.223 288.867H367.323C366.852 288.867 366.463 289.256 366.463 289.731C366.463 290.203 366.852 290.592 367.323 290.592H369.223C369.697 290.592 370.086 290.203 370.086 289.731C370.086 289.256 369.697 288.867 369.223 288.867Z" fill="#84BCFF"/>
<path d="M262.148 280.618C262.148 271.352 269.659 263.838 278.929 263.838C288.195 263.838 295.709 271.352 295.709 280.618C295.709 289.887 288.195 297.398 278.929 297.398C269.659 297.398 262.148 289.887 262.148 280.618Z" fill="#AED3FF"/>
<path d="M278.929 265.256C270.444 265.256 263.564 272.133 263.564 280.618C263.564 286.432 266.792 291.489 271.556 294.099C274.015 289.541 278.929 280.618 278.929 280.618L286.201 294.151C291.019 291.56 294.291 286.472 294.291 280.618C294.291 272.133 287.414 265.256 278.929 265.256Z" fill="#4F9CF9"/>
<path d="M335.919 271.245H308.121C307.113 271.245 306.289 272.069 306.289 273.076C306.289 274.084 307.113 274.908 308.121 274.908H335.919C336.927 274.908 337.751 274.084 337.751 273.076C337.751 272.069 336.927 271.245 335.919 271.245Z" fill="#84BCFF"/>
<path d="M335.919 278.787H308.121C307.113 278.787 306.289 279.611 306.289 280.618C306.289 281.626 307.113 282.45 308.121 282.45H335.919C336.927 282.45 337.751 281.626 337.751 280.618C337.751 279.611 336.927 278.787 335.919 278.787Z" fill="#84BCFF"/>
<path d="M335.919 286.328H308.121C307.113 286.328 306.289 287.152 306.289 288.159C306.289 289.167 307.113 289.991 308.121 289.991H335.919C336.927 289.991 337.751 289.167 337.751 288.159C337.751 287.152 336.927 286.328 335.919 286.328Z" fill="#84BCFF"/>
<path d="M279.492 273.282H271.154C270.682 273.282 270.293 273.671 270.293 274.143C270.293 274.617 270.682 275.006 271.154 275.006H279.492C279.967 275.006 280.356 274.617 280.356 274.143C280.356 273.671 279.967 273.282 279.492 273.282Z" fill="#84BCFF"/>
<path d="M273.053 276.418H271.154C270.682 276.418 270.293 276.807 270.293 277.282C270.293 277.757 270.682 278.146 271.154 278.146H273.053C273.528 278.146 273.917 277.757 273.917 277.282C273.917 276.807 273.528 276.418 273.053 276.418Z" fill="#84BCFF"/>
<path d="M389.939 250.287H529.982C532.859 250.287 535.361 248.323 536.044 245.533L558.332 154.684C559.297 150.751 556.316 146.956 552.267 146.956H412.659C409.795 146.956 407.298 148.904 406.603 151.682L383.883 242.531C382.897 246.47 385.877 250.287 389.939 250.287Z" fill="#D2E4FF"/>
<path d="M537.683 213.176C537.683 213.176 515.744 196.356 496.186 211.062C476.609 225.781 450.238 212.364 438.607 211.062C418.39 208.795 400.394 215.608 393.688 223.103L388.064 245.603H529.722L537.683 213.176Z" fill="#4F9CF9"/>
<path d="M519.978 198.537H521.071L529.691 163.518H528.601L519.978 198.537Z" fill="white"/>
<path d="M473.38 213.586H474.474L483.149 178.537H482.058L473.38 213.586Z" fill="white"/>
<path d="M431.099 205.649H432.193L440.911 170.616H439.82L431.099 205.649Z" fill="white"/>
<path d="M515.092 168.888H523.457C523.96 168.888 524.468 168.478 524.591 167.978C524.713 167.476 524.407 167.069 523.908 167.069H515.539C515.04 167.069 514.531 167.476 514.406 167.978C514.283 168.478 514.593 168.888 515.092 168.888Z" fill="white"/>
<path d="M514.283 172.163H522.652C523.151 172.163 523.663 171.755 523.785 171.253C523.908 170.754 523.599 170.343 523.099 170.343H514.734C514.234 170.343 513.723 170.754 513.6 171.253C513.475 171.755 513.784 172.163 514.283 172.163Z" fill="white"/>
<path d="M468.473 186.734H476.845C477.344 186.734 477.856 186.324 477.978 185.822C478.104 185.322 477.794 184.912 477.295 184.912H468.923C468.424 184.912 467.912 185.322 467.79 185.822C467.664 186.324 467.974 186.734 468.473 186.734Z" fill="white"/>
<path d="M467.677 189.944H476.048C476.548 189.944 477.059 189.537 477.185 189.035C477.307 188.532 477.001 188.122 476.499 188.122H468.127C467.628 188.122 467.116 188.532 466.994 189.035C466.868 189.537 467.177 189.944 467.677 189.944Z" fill="white"/>
<path d="M426.817 173.529H435.185C435.685 173.529 436.196 173.118 436.319 172.619C436.444 172.117 436.138 171.709 435.639 171.709H427.27C426.771 171.709 426.259 172.117 426.134 172.619C426.008 173.118 426.317 173.529 426.817 173.529Z" fill="white"/>
<path d="M426.017 176.739H434.386C434.885 176.739 435.397 176.328 435.523 175.829C435.645 175.327 435.339 174.916 434.839 174.916H426.471C425.971 174.916 425.46 175.327 425.334 175.829C425.209 176.328 425.515 176.739 426.017 176.739Z" fill="white"/>
<path d="M270.293 250.287H292.299L315.105 159.757H293.699L270.293 250.287Z" fill="#4F9CF9"/>
<path d="M298.337 250.287H320.34L336.737 184.55H314.731L298.337 250.287Z" fill="#4F9CF9"/>
<path d="M326.381 250.287H348.384L375.597 142.487H353.594L326.381 250.287Z" fill="#4F9CF9"/>
<path d="M363.758 153.593C362.009 153.593 360.587 155.015 360.587 156.764C360.587 158.513 362.009 159.937 363.758 159.937C365.507 159.937 366.928 158.513 366.928 156.764C366.928 155.015 365.507 153.593 363.758 153.593ZM363.758 161.938C360.903 161.938 358.584 159.619 358.584 156.764C358.584 153.912 360.903 151.59 363.758 151.59C366.61 151.59 368.931 153.912 368.931 156.764C368.931 159.619 366.61 161.938 363.758 161.938Z" fill="#2B478B"/>
<path d="M365.96 153.593C365.706 153.593 365.449 153.495 365.253 153.299C364.86 152.907 364.86 152.273 365.253 151.884L381.389 135.747H558.513C559.067 135.747 559.508 136.194 559.508 136.749C559.508 137.3 559.067 137.75 558.513 137.75H382.22L366.668 153.299C366.475 153.495 366.217 153.593 365.96 153.593Z" fill="#2B478B"/>
<path d="M558.513 131.79H391.075C388.006 131.79 385.516 129.302 385.516 126.233C385.516 123.164 388.006 120.673 391.075 120.673H558.513C561.582 120.673 564.072 123.164 564.072 126.233C564.072 129.302 561.582 131.79 558.513 131.79Z" fill="#4F9CF9"/>
<path d="M123.362 411.717L127.271 428.178L133.126 428.145L133.34 411.717H123.362Z" fill="#E49963"/>
<path d="M172.611 412.418L183.733 428.178L188.068 422.612L181.374 410.249L172.611 412.418Z" fill="#E49963"/>
<path d="M143.696 195.379C141.675 194.23 139.253 194.104 137.558 194.205C137.995 193.755 138.853 193.59 138.853 193.59C137.802 193.433 135.457 194.478 135.457 194.478C120.843 188.845 118.546 210.364 118.854 215.363C119.158 220.362 113.943 221.995 106.34 225.931C91.8326 233.448 90.5586 243.511 90.5586 243.511C90.6713 243.578 90.7896 243.655 90.9149 243.74C91.6344 242.521 93.1164 240.23 94.3658 239.884C94.3187 239.997 92.8894 243.039 92.3558 244.782C96.6357 248.038 104.642 255.249 110.222 260.364C110.197 259.366 110.237 257.944 110.602 257.197L111.291 261.348C114.277 264.092 116.336 266.022 116.336 266.022C115.967 261.985 134.607 240.665 144.331 234.281C146.699 230.795 147.54 224.638 147.603 224.154C147.194 229.037 146.359 231.772 145.613 233.316C153.848 225.738 149.054 198.423 143.696 195.379Z" fill="#043873"/>
<path d="M143.756 234.6C143.804 234.621 139.06 237.084 135.492 236.107C132.135 235.191 129.942 230.838 129.988 230.829C131.41 230.547 131.819 228.593 131.789 220.2L132.432 220.328L143.237 222.466C143.237 222.466 142.991 225.867 142.984 229.071C142.977 231.76 143.14 234.312 143.756 234.6Z" fill="#E49963"/>
<path d="M131.537 198.901C131.537 198.901 136.867 193.228 143.558 198.613C143.558 198.613 139.664 197.94 131.537 198.901Z" fill="#E58638"/>
<path d="M143.237 222.467C143.237 222.467 142.992 225.867 142.984 229.071C136.938 228.899 133.742 223.382 132.432 220.328L143.237 222.467Z" fill="#D68D5D"/>
<path d="M131.316 219.149C131.316 219.149 128.148 214.144 127.387 209.861C126.844 206.807 128.401 195.477 139.785 197.109C139.785 197.109 143.092 197.434 146.2 199.535C148.672 201.205 152.239 204.807 148.251 214.692L147.214 218.034L131.316 219.149Z" fill="#043873"/>
<path d="M186.303 418.294L180.576 418.468L174.376 418.658C174.376 418.658 160.057 402.714 152.024 377.155C151.836 376.564 151.639 375.96 151.43 375.354C147.034 362.534 137.921 346.446 133.118 331.881C132.354 329.562 131.667 327.378 131.051 325.313C130.854 324.652 130.662 323.999 130.479 323.359C126.94 311.063 125.915 302.989 124.971 294.363L159.65 294.642C159.65 294.642 165.248 353.544 186.303 418.294Z" fill="#2B478B"/>
<path d="M154.795 274.712C154.707 291.214 157.216 298.296 157.216 298.296C157.216 298.296 142.368 305.841 124.72 300.287C124.513 300.22 110.108 296.933 110.108 296.933C110.404 296.265 113.03 285.146 113.318 284.533C117.044 276.529 119.873 273.021 120.314 270.562C121.134 265.97 121.152 261.219 120.744 256.738C119.667 244.874 116.465 235.026 116.465 235.026C121.273 233.929 125.776 232.008 130.78 230.131C131.932 231.564 135.451 233.065 138.503 232.995C142.018 232.918 143.159 231.414 142.976 229.772C146.722 231.855 149.711 233.825 149.711 233.825C152.895 239.354 159.352 244.724 159.819 253.209C159.935 255.295 154.797 274.25 154.795 274.712Z" fill="#E7F1FD"/>
<path d="M174.928 250.197C169.838 244.249 156.648 231.353 143.037 229.772L154.782 252.651C154.782 252.651 155.443 256.572 158.92 258.857C167.44 264.457 178.272 266.932 178.272 266.932C178.272 266.932 185.607 263.731 195.635 256.385C198.782 254.078 204.313 245.281 204.313 245.281L202.821 240.288C202.821 240.288 193.431 245.538 190.077 247.055C188.165 247.915 183.764 249.977 180.664 251.432C178.691 252.36 176.346 251.852 174.928 250.197Z" fill="#4F9CF9"/>
<path d="M145.256 225.499C145.256 225.499 130.951 225.735 130.941 216.824C130.931 207.913 129.078 201.943 138.211 201.416C147.345 200.886 149.123 204.286 149.85 207.261C150.577 210.232 148.977 225.208 145.256 225.499Z" fill="#E49963"/>
<path d="M144.727 201.196C144.727 201.196 140.81 211.65 134.799 213.197C128.788 214.741 126.181 213.133 126.181 213.133C126.181 213.133 128.802 208.958 129.758 202.565C129.758 202.565 141.772 196.221 144.727 201.196Z" fill="#043873"/>
<path d="M143.756 202.044C143.756 202.044 146.681 204.378 147.395 206.648C148.108 208.918 148.429 213.589 149.79 213.43C149.79 213.43 152.741 206.323 149.425 202.305C145.908 198.044 143.756 202.044 143.756 202.044Z" fill="#043873"/>
<path d="M202.822 240.288C202.822 240.288 204.838 233.022 212.829 234.048C213.746 234.336 216.425 235.402 214.712 238.272C213.45 240.386 212.903 239.296 210.918 242.138C208.932 244.978 206.776 245.621 204.313 245.281L202.822 240.288Z" fill="#E49963"/>
<path d="M127.074 427.259C127.074 427.259 127.545 430.519 126.328 434.007C126.328 434.007 125.37 438.376 129.67 438.455C133.97 438.538 135.025 438.131 134.538 435.453C134.052 432.776 133.126 428.145 133.126 428.145L127.074 427.259Z" fill="#E49963"/>
<path d="M134.945 440.321C134.945 440.321 134.853 440.376 134.675 440.465H126.257C126.095 440.376 126.019 440.321 126.019 440.321C125.533 438.131 126.327 434.008 126.327 434.008C131.198 438.471 134.245 433.897 134.245 433.897C135.037 435.803 134.945 440.321 134.945 440.321Z" fill="#E58638"/>
<path d="M198.43 435.892C198.43 435.892 190.502 427.091 188.068 422.613L182.173 425.633L195.351 438.008L198.434 437.604L198.43 435.892Z" fill="#E49963"/>
<path d="M203.349 440.465H192.5C191.455 439.684 190.48 437.876 189.267 435.45C188.621 434.155 187.168 433.444 185.677 433.052V440.379H183.427L181.295 432.589C179.893 430.01 181.184 427.67 182.173 425.633C183.321 425.63 186.412 426.417 192.268 433.015C194.194 435.184 196.32 435.959 198.43 435.891C198.46 435.91 198.489 435.925 198.517 435.937C202.05 437.524 203.06 439.5 203.349 440.465Z" fill="#E58638"/>
<path d="M142.976 229.772C142.976 229.772 151.253 250.219 151.496 254.354C151.74 258.493 152.47 322.023 152.47 322.023C152.47 322.023 151.983 324.946 157.582 323.726C163.18 322.51 164.641 321.294 164.641 321.294C164.641 321.294 159.285 282.104 160.746 268.472C162.206 254.841 149.549 232.612 149.549 232.612L142.976 229.772Z" fill="#4F9CF9"/>
<path d="M180.576 418.468L174.376 418.658C174.376 418.658 160.057 402.714 152.024 377.155C151.836 376.564 151.639 375.96 151.43 375.354C147.034 362.534 137.921 346.446 133.118 331.881C132.354 329.562 131.667 327.378 131.051 325.313C130.854 324.652 130.662 323.999 130.479 323.359L135.586 319.484C135.586 319.484 150.919 344.314 155.665 367.677C159.789 387.974 176.302 412.394 180.576 418.468Z" fill="#233862"/>
<path d="M136.119 369.855C136.207 381.216 135.632 407.339 134.153 418.152H128.661C125.626 418.152 124.112 418.109 124.112 418.109C120.4 399.308 117.759 383.747 115.836 370.339C114.259 359.339 112.856 349.907 111.778 341.787C110.693 333.614 109.938 326.771 109.668 320.991C109.627 320.081 109.595 319.196 109.578 318.335C109.561 317.471 109.556 316.632 109.563 315.817L139.527 312.895C139.15 332.802 136.07 363.251 136.119 369.855Z" fill="#2B478B"/>
<path d="M128.661 418.152C125.626 418.152 124.112 418.109 124.112 418.109C120.4 399.308 117.759 383.747 115.836 370.339C114.259 359.339 112.856 349.907 111.778 341.787C110.692 333.614 109.938 326.771 109.668 320.991L120.662 327.457C120.662 327.457 113.645 329.935 116.323 348.676C119 367.42 124.934 415.5 128.661 418.152Z" fill="#233862"/>
<path d="M130.076 320.807C130.076 320.807 127.966 328.435 120.663 327.46C113.361 326.486 102.977 322.103 102.977 322.103C102.977 322.103 106.098 312.242 109.977 299.288C114.675 283.608 120.491 263.388 123.231 250.635C124 247.064 124.526 244.08 124.721 241.942L130.78 230.189C130.78 230.189 139.812 250.461 140.299 255.573C140.786 260.686 130.076 320.807 130.076 320.807Z" fill="#4F9CF9"/>
<path d="M122.785 254.811L130.781 230.189C130.759 230.198 120.682 233.184 115.613 235.745C115.613 235.745 112.444 239.832 110.484 249.257C110.484 249.257 108.413 271.882 113.037 280.159C113.037 280.159 127.642 283.078 151.009 275.046V269.692C151.009 269.692 125.451 271.03 120.218 271.637L122.785 254.811Z" fill="#E49963"/>
<path d="M129.752 266.282C129.426 274.559 127.479 290.622 110.116 299.224C110.07 299.245 110.024 299.27 109.977 299.288C114.675 283.608 120.49 263.387 123.231 250.635C126.42 255.402 129.93 261.727 129.752 266.282Z" fill="#84BCFF"/>
<path d="M130.781 230.189C130.781 230.189 115.958 231.233 112.388 239.182C108.818 247.134 107.682 273.585 112.226 281.375C112.226 281.375 118.482 283.155 129.546 281.087C129.681 281.062 129.817 281.035 129.954 281.01C129.954 281.01 133.484 272.369 130.32 270.666C130.32 270.666 120.989 271.15 121.962 268.068C122.936 264.984 130.781 230.189 130.781 230.189Z" fill="#4F9CF9"/>
<path d="M148.389 271.116C148.389 271.116 150.425 268.647 150.859 266.129C151.293 263.608 152.641 261.74 156.155 261.277C159.67 260.818 161.181 260.766 161.172 261.758C161.163 262.748 158.3 269.664 153.258 273.794C148.215 277.926 148.389 271.116 148.389 271.116Z" fill="#E49963"/>
<path d="M207.787 241.482C207.907 241.482 208.028 241.452 208.137 241.384L301.875 184.384C302.194 184.191 302.295 183.775 302.102 183.456C301.909 183.138 301.492 183.037 301.174 183.233L207.436 240.23C207.117 240.423 207.016 240.839 207.21 241.158C207.337 241.366 207.559 241.482 207.787 241.482Z" fill="#043873"/>
<path d="M624.371 308.383C624.371 308.383 623.618 315.707 622.791 317.092C621.967 318.476 618.447 322.906 616.946 323.772C615.448 324.642 617.862 317.94 617.556 316.635C617.253 315.33 616.324 319.015 615.663 319.101C615.001 319.19 615.173 315.872 615.148 314.666C615.124 313.459 618.361 310.481 619.504 307.911C620.647 305.344 624.371 308.383 624.371 308.383Z" fill="#FFB27D"/>
<path d="M534.39 240.833L532.708 237.657C532.708 237.657 533.545 231.999 526.453 228.418C526.453 228.418 523.862 227.364 522.398 229.478C521.05 231.423 524.965 231.071 524.756 234.404C524.545 237.733 526.126 239.688 528.328 240.772L530.148 242.879L534.39 240.833Z" fill="#FFB27D"/>
<path d="M601.407 233.243C601.407 233.243 595.317 263.13 561.806 272.896C551.345 275.944 527.581 241.504 527.581 241.504C527.581 241.504 528.414 238.331 533.649 239.06C533.649 239.06 556.788 254.379 559.701 256.042C562.287 257.519 579.287 237.06 587.037 233.76C594.784 230.458 601.407 233.243 601.407 233.243Z" fill="#E58638"/>
<path d="M641.415 421.13C641.415 421.13 645.572 424.925 644.76 427.621C643.948 430.316 640.196 432.115 639.691 435.408C639.185 438.704 637.157 440.499 635.332 440.499C633.506 440.499 626.629 440.499 626.629 440.499C626.629 440.499 625.284 438.183 628.531 437.481C631.775 436.783 632.997 432.911 632.795 429.318C632.593 425.725 633.099 420.931 633.099 420.931L639.994 419.335L641.415 421.13Z" fill="#233862"/>
<path d="M590.413 430.944C590.413 430.944 591.157 439.576 589.331 440.477L565.975 440.428C565.975 440.428 565.975 437.732 569.727 437.132C573.479 436.535 580.068 434.338 581.183 429.446C582.301 424.555 590.413 430.944 590.413 430.944Z" fill="#233862"/>
<path d="M570.692 308.977C570.692 308.977 571.923 324.113 573.372 342.305C575.339 367.019 577.707 397.375 577.94 403.128C578.344 413.111 579.97 429.085 579.97 429.085C579.97 429.085 583.821 432.881 591.528 431.282C591.528 431.282 598.399 408.479 600.359 384.353C600.39 383.958 600.42 383.557 600.451 383.159C602.277 358.598 605.113 306.882 605.113 306.882L570.692 308.977Z" fill="#2B478B"/>
<path d="M570.692 308.977C570.692 308.977 571.923 324.112 573.372 342.305L600.359 384.353C600.39 383.958 600.42 383.557 600.451 383.158C602.277 358.598 605.113 306.882 605.113 306.882L570.692 308.977Z" fill="#233862"/>
<path d="M576.316 310.775C576.316 310.775 598.524 365.588 613.124 391.347C627.726 417.105 632.29 424.294 632.29 424.294C632.29 424.294 640.656 420.998 641.415 418.753C641.415 418.753 635.831 369.025 626.053 356.901C620.527 350.052 614.036 329.495 613.733 322.305C613.43 315.119 611.757 300.89 611.757 300.89L576.316 310.775Z" fill="#2B478B"/>
<path d="M605.533 226.304C605.533 226.304 590.511 233.555 581.848 230.862C581.848 230.862 583.98 228.173 587.711 226.173C587.411 224.433 587.178 222.926 587.043 221.645C586.679 218.692 586.679 217.02 586.679 217.02L592.474 212.462L597.973 208.1C597.538 220.368 605.533 226.304 605.533 226.304Z" fill="#FFB27D"/>
<path d="M613.451 303.699C613.485 304.615 611.518 305.666 610.655 306.061C604.225 308.882 598.227 310.849 591.43 311.504C583.401 312.325 573.908 310.521 570.643 310.585C570.309 310.585 570.009 310.457 569.742 310.227C569.51 310.061 569.344 300.385 569.51 288.215C569.51 287.722 569.51 287.231 569.543 286.738V286.576C569.611 281.819 569.776 276.832 570.009 271.845C570.478 260.891 571.341 250.326 572.809 244.488C574.573 237.598 578.571 233.04 582.204 229.726L585.202 227.101C588.198 227.692 591.366 227.53 594.53 225.989C597.994 224.313 601.725 222.509 602.326 222.969C606.856 226.283 609.919 233.73 611.552 243.241C612.486 248.721 612.952 254.853 612.918 261.283C612.918 263.645 612.851 266.074 612.719 268.466C611.92 281.457 612.719 292.742 613.185 299.27C613.32 301.172 613.418 302.648 613.451 303.699Z" fill="#EE9849"/>
<path d="M613.185 303.102C560.571 302.995 603.481 246.01 603.481 246.01L612.005 243.241C612.679 249.095 613.016 255.647 612.992 262.518C612.992 265.042 612.946 267.633 612.848 270.194C612.272 284.07 612.848 296.127 613.185 303.102Z" fill="#E58638"/>
<path d="M598.071 212.79C598.071 212.79 594.273 219.71 587.043 221.646C586.679 218.693 586.679 217.02 586.679 217.02L592.474 212.462L598.071 212.79Z" fill="#ED985F"/>
<path d="M584.035 216.821C584.035 216.821 598.368 219.164 599.713 210.355C601.06 201.542 603.814 195.912 594.72 194.043C585.625 192.171 583.331 195.271 582.154 198.105C580.978 200.938 580.341 215.985 584.035 216.821Z" fill="#FFB27D"/>
<path d="M604.923 192.986C605.052 192.836 605.352 192.717 606.02 192.68C606.02 192.68 605.487 192.346 604.773 192.331C604.635 191.4 604.139 189.758 602.54 189.356C602.54 189.356 603.401 189.816 603.511 190.802C601.661 188.9 597.694 187.518 586.71 188.385C572.233 189.528 577.005 198.794 578.877 199.9C580.752 201.006 585.469 197.976 588.961 198.252C592.453 198.531 593.118 203.576 594.303 204.268C595.486 204.96 595.02 203.738 596.625 203.012C598.227 202.289 598.38 204.945 597.918 206.67C597.452 208.397 599.655 210.676 599.655 210.676C599.655 210.676 599.655 210.676 601.882 208.278C604.105 205.882 606.204 195.731 605.193 193.565C605.104 193.375 605.015 193.182 604.923 192.986Z" fill="#2C3A64"/>
<path d="M602.32 222.895C602.32 222.895 611.387 227.19 615.736 233.794C622.482 244.034 630.299 281.356 630.443 284.811C630.587 288.267 624.736 312.665 624.736 312.665C624.736 312.665 618.803 312.276 617.271 309.28C617.271 309.28 618.457 284.211 617.706 282.6C616.956 280.989 592.968 248.972 595.666 242.138C598.362 235.307 602.32 222.895 602.32 222.895Z" fill="#EE9849"/>
<path d="M532.678 237.507C532.678 237.507 533.171 235.558 531.82 234.682C530.469 233.809 529.225 231.426 528.656 231.748C527.476 232.419 529.302 234.495 528.968 237.087C528.849 237.994 530.962 240.374 532.678 237.507Z" fill="#FFB27D"/>
<path d="M0.733941 441.663H823.265C823.669 441.663 824 441.332 824 440.927C824 440.523 823.669 440.192 823.265 440.192H0.733941C0.330211 440.192 0 440.523 0 440.927C0 441.332 0.330211 441.663 0.733941 441.663Z" fill="#283250"/>
</svg>
