<svg width="656" height="656" viewBox="0 0 656 656" fill="none" xmlns="http://www.w3.org/2000/svg">
<path d="M328.241 655.518C147.225 655.518 0.4823 508.775 0.4823 327.759C0.4823 146.743 147.225 0 328.241 0C509.257 0 656 146.743 656 327.759C656 508.775 509.257 655.518 328.241 655.518Z" fill="#F4F7FA" fill-opacity="0.1"/>
<path d="M300.642 596.119C307.962 593.691 313.433 587.479 314.976 579.843L325.631 527.111L416.772 530.347L427.989 585.282C429.559 592.976 423.271 600.694 416.029 603.528L377.897 618.447C370.805 621.222 363.182 622.327 355.604 621.679L275.019 614.785C272.663 614.584 270.774 612.732 270.5 610.356C270.225 607.981 268.575 605.313 270.821 604.568L300.642 596.119Z" fill="#97A6B7"/>
<path d="M299.74 592.912C307.053 590.515 312.519 584.38 314.06 576.84L324.704 524.771L413.623 527.97L424.829 582.214C426.398 589.811 422.246 597.429 415.011 600.227L376.918 614.959C369.832 617.699 362.217 618.79 354.647 618.15L274.143 611.343C271.79 611.144 269.902 609.316 269.628 606.97C269.354 604.624 270.77 602.41 273.014 601.674L299.74 592.912Z" fill="url(#paint0_linear_4_1117)"/>
<path d="M603.006 562.159C612.889 562.748 620.975 556.336 620.975 547.863V242.459C620.975 233.986 612.889 227.442 603.006 227.87L143.946 259.651C136.69 259.965 132.796 254.108 132.796 261.314V521.058C132.796 528.264 138.672 534.478 145.928 534.91L603.006 562.159Z" fill="#97A6B7"/>
<path d="M598.898 562.159C608.781 562.748 616.867 556.336 616.867 547.863V242.459C616.867 233.986 608.781 227.442 598.898 227.87L141.82 247.675C134.564 247.99 128.688 254.108 128.688 261.314V521.058C128.688 528.264 134.564 534.478 141.82 534.91L598.898 562.159Z" fill="white"/>
<path opacity="0.3" d="M141.82 253.788L598.898 234.985C604.182 234.767 608.477 238.259 608.477 242.783V480.307V547.402C608.477 551.927 604.181 555.348 598.898 555.045L141.82 528.797C137.931 528.574 134.786 525.259 134.786 521.392V462.016V261.079C134.786 257.212 137.931 253.948 141.82 253.788Z" fill="#D8DEE8"/>
<path d="M145.217 506.819L593.944 528.969C598.654 529.202 602.482 526.089 602.482 522.015V246.784C602.482 242.71 598.654 239.55 593.944 239.725L145.217 256.381C141.695 256.512 138.847 259.463 138.847 262.974V500.148C138.847 503.659 141.695 506.645 145.217 506.819Z" fill="url(#paint1_linear_4_1117)"/>
<path opacity="0.6" d="M482.003 268.792L584.482 265.777V256.007L482.003 259.321V268.792Z" fill="white"/>
<path opacity="0.36" d="M433.742 267.508L457.416 266.792V260.116L433.742 260.882V267.508Z" fill="white"/>
<path opacity="0.36" d="M433.742 276.714L457.416 276.066V269.391L433.742 270.088V276.714Z" fill="white"/>
<path d="M315.767 279.943L407.61 277.429V270.858L315.767 273.563V279.943Z" fill="url(#paint2_linear_4_1117)"/>
<path opacity="0.5" d="M300.706 289.178L391.636 286.952V280.413L300.706 282.828V289.178Z" fill="url(#paint3_linear_4_1117)"/>
<path opacity="0.5" d="M300.706 297.999L391.636 296.036V289.497L300.706 291.65V297.999Z" fill="url(#paint4_linear_4_1117)"/>
<path opacity="0.6" d="M300.706 306.821L391.636 305.121V298.582L300.706 300.472V306.821Z" fill="white"/>
<path opacity="0.36" d="M433.742 285.92L457.416 285.341V278.666L433.742 279.294V285.92Z" fill="white"/>
<path opacity="0.36" d="M433.742 295.127L457.416 294.616V287.941L433.742 288.501V295.127Z" fill="white"/>
<path opacity="0.36" d="M433.742 304.334L457.416 303.891V297.215L433.742 297.707V304.334Z" fill="white"/>
<path opacity="0.36" d="M433.742 313.54L457.416 313.166V306.49L433.742 306.914V313.54Z" fill="white"/>
<path opacity="0.6" d="M370.305 314.542L428.576 313.621V307.006L370.305 308.048V314.542Z" fill="white"/>
<path opacity="0.36" d="M433.742 322.746L457.416 322.44V315.765L433.742 316.12V322.746Z" fill="white"/>
<path opacity="0.36" d="M433.742 331.953L457.416 331.715V325.04L433.742 325.326V331.953Z" fill="white"/>
<path opacity="0.36" d="M433.742 341.159L457.416 340.99V334.314L433.742 334.533V341.159Z" fill="white"/>
<path opacity="0.5" d="M343.004 323.918L407.61 323.084V316.512L343.004 317.48V323.918Z" fill="url(#paint5_linear_4_1117)"/>
<path opacity="0.6" d="M309.439 333.199L391.636 332.374V325.836L309.439 326.831V333.199Z" fill="white"/>
<path d="M309.439 342.045L391.636 341.459V334.921L309.439 335.678V342.045Z" fill="url(#paint6_linear_4_1117)"/>
<path opacity="0.36" d="M433.742 350.365L457.416 350.265V343.589L433.742 343.739V350.365Z" fill="white"/>
<path opacity="0.36" d="M433.742 359.572L457.416 359.54V352.864L433.742 352.946V359.572Z" fill="white"/>
<path opacity="0.36" d="M433.742 368.778L457.416 368.814V362.139L433.742 362.152V368.778Z" fill="white"/>
<path opacity="0.36" d="M433.742 377.984L457.416 378.089V371.414L433.742 371.358V377.984Z" fill="white"/>
<path opacity="0.36" d="M433.742 387.191L457.416 387.364V380.689L433.742 380.564V387.191Z" fill="white"/>
<path opacity="0.36" d="M433.742 396.397L457.416 396.639V389.963L433.742 389.771V396.397Z" fill="white"/>
<path opacity="0.36" d="M433.742 405.603L457.416 405.914V399.238L433.742 398.977V405.603Z" fill="white"/>
<path opacity="0.36" d="M433.742 414.809L457.416 415.188V408.513L433.742 408.183V414.809Z" fill="white"/>
<path opacity="0.36" d="M433.742 424.016L457.416 424.463V417.788L433.742 417.39V424.016Z" fill="white"/>
<path opacity="0.36" d="M433.742 433.222L457.416 433.738V427.062L433.742 426.596V433.222Z" fill="white"/>
<path opacity="0.36" d="M433.742 442.429L457.416 443.013V436.337L433.742 435.802V442.429Z" fill="white"/>
<path opacity="0.36" d="M433.742 451.635L457.416 452.287V445.612L433.742 445.009V451.635Z" fill="white"/>
<path opacity="0.36" d="M433.742 460.841L457.416 461.562V454.887L433.742 454.215V460.841Z" fill="white"/>
<path opacity="0.36" d="M433.742 470.047L457.416 470.837V464.161L433.742 463.421V470.047Z" fill="white"/>
<path opacity="0.36" d="M433.742 479.254L457.416 480.112V473.436L433.742 472.628V479.254Z" fill="white"/>
<path opacity="0.36" d="M433.742 488.461L457.416 489.387V482.711L433.742 481.834V488.461Z" fill="white"/>
<path opacity="0.36" d="M433.742 497.667L457.416 498.661V491.986L433.742 491.041V497.667Z" fill="white"/>
<path opacity="0.36" d="M433.742 506.873L457.416 507.936V501.261L433.742 500.247V506.873Z" fill="white"/>
<path opacity="0.5" d="M364.173 269.613L428.737 267.659V261.044L364.173 263.132V269.613Z" fill="url(#paint7_linear_4_1117)"/>
<path opacity="0.6" d="M315.767 457.249L407.61 460.045V453.474L315.767 450.868V457.249Z" fill="white"/>
<path opacity="0.5" d="M300.706 465.612L391.636 468.644V462.105L300.706 459.262V465.612Z" fill="url(#paint8_linear_4_1117)"/>
<path opacity="0.5" d="M300.706 474.433L391.636 477.728V471.19L300.706 468.084V474.433Z" fill="url(#paint9_linear_4_1117)"/>
<path opacity="0.5" d="M261.522 481.722L350.098 485.188V478.736L261.522 475.455V481.722Z" fill="url(#paint10_linear_4_1117)"/>
<path d="M261.522 490.431L350.098 494.152V487.7L261.522 484.163V490.431Z" fill="url(#paint11_linear_4_1117)"/>
<path opacity="0.6" d="M261.522 499.139L350.098 503.117V496.665L261.522 492.871V499.139Z" fill="white"/>
<path opacity="0.5" d="M364.173 449.717L428.737 451.497V444.881L364.173 443.236V449.717Z" fill="url(#paint12_linear_4_1117)"/>
<path opacity="0.5" d="M315.767 359.731L407.61 359.607V353.035L315.767 353.35V359.731Z" fill="url(#paint13_linear_4_1117)"/>
<path opacity="0.6" d="M300.706 368.573L391.636 368.713V362.175L300.706 362.223V368.573Z" fill="white"/>
<path opacity="0.5" d="M300.706 377.395L391.636 377.797V371.259L300.706 371.045V377.395Z" fill="url(#paint14_linear_4_1117)"/>
<path opacity="0.5" d="M300.706 386.216L391.636 386.882V380.344L300.706 379.867V386.216Z" fill="url(#paint15_linear_4_1117)"/>
<path opacity="0.5" d="M370.305 395.749L428.576 396.344V389.729L370.305 389.255V395.749Z" fill="url(#paint16_linear_4_1117)"/>
<path opacity="0.6" d="M343.004 404.414L407.61 405.261V398.689L343.004 397.977V404.414Z" fill="white"/>
<path d="M309.439 412.821L391.636 414.136V407.597L309.439 406.454V412.821Z" fill="url(#paint17_linear_4_1117)"/>
<path opacity="0.5" d="M309.439 421.668L391.636 423.221V416.682L309.439 415.301V421.668Z" fill="url(#paint18_linear_4_1117)"/>
<path opacity="0.5" d="M291.218 430.118L372.425 431.887V425.389L291.218 423.789V430.118Z" fill="url(#paint19_linear_4_1117)"/>
<path opacity="0.5" d="M291.218 438.912L372.425 440.916V434.417L291.218 432.583V438.912Z" fill="url(#paint20_linear_4_1117)"/>
<path d="M364.173 350.66L428.737 350.387V343.771L364.173 344.179V350.66Z" fill="url(#paint21_linear_4_1117)"/>
<path d="M482.003 283.589L540.66 282.132V272.49L482.003 274.118V283.589Z" fill="white"/>
<path opacity="0.6" d="M555.831 281.756L544.783 282.03V272.376L555.831 272.069V281.756Z" fill="white"/>
<path opacity="0.6" d="M482.003 297.203L540.66 295.993V286.351L482.003 287.732V297.203Z" fill="white"/>
<path opacity="0.6" d="M555.831 295.681L544.783 295.908V286.254L555.831 285.994V295.681Z" fill="white"/>
<path opacity="0.6" d="M482.003 310.817L540.66 309.854V300.212L482.003 301.346V310.817Z" fill="white"/>
<path opacity="0.6" d="M555.831 309.605L544.783 309.786V300.132L555.831 299.918V309.605Z" fill="white"/>
<path d="M482.003 407.451L584.482 408.833V399.062L482.003 397.981V407.451Z" fill="white"/>
<path opacity="0.6" d="M482.003 422.249L540.66 423.308V413.666L482.003 412.778V422.249Z" fill="white"/>
<path opacity="0.6" d="M555.831 423.582L544.783 423.382V413.728L555.831 413.895V423.582Z" fill="white"/>
<path opacity="0.6" d="M482.003 435.862L540.66 437.169V427.526L482.003 426.392V435.862Z" fill="white"/>
<path opacity="0.6" d="M555.831 437.507L544.783 437.261V427.606L555.831 427.82V437.507Z" fill="white"/>
<path opacity="0.6" d="M482.003 449.476L540.66 451.03V441.388L482.003 440.006V449.476Z" fill="white"/>
<path opacity="0.6" d="M555.831 451.431L544.783 451.139V441.484L555.831 441.745V451.431Z" fill="white"/>
<path d="M482.003 324.523L584.482 323.275V313.505L482.003 315.052V324.523Z" fill="white"/>
<path opacity="0.6" d="M482.003 339.321L540.66 338.875V329.233L482.003 329.85V339.321Z" fill="white"/>
<path opacity="0.6" d="M555.831 338.76L544.783 338.844V329.189L555.831 329.073V338.76Z" fill="white"/>
<path opacity="0.6" d="M482.003 352.934L540.66 352.736V343.094L482.003 343.464V352.934Z" fill="white"/>
<path opacity="0.6" d="M555.831 352.684L544.783 352.722V343.068L555.831 342.998V352.684Z" fill="white"/>
<path opacity="0.6" d="M482.003 380.339L540.66 380.638V370.995L482.003 370.868V380.339Z" fill="white"/>
<path opacity="0.6" d="M555.831 380.715L544.783 380.659V371.004L555.831 371.028V380.715Z" fill="white"/>
<path opacity="0.6" d="M482.003 393.953L540.66 394.498V384.856L482.003 384.482V393.953Z" fill="white"/>
<path opacity="0.6" d="M555.831 394.64L544.783 394.537V384.882L555.831 384.953V394.64Z" fill="white"/>
<path opacity="0.6" d="M482.003 366.548L540.66 366.597V356.955L482.003 357.078V366.548Z" fill="white"/>
<path opacity="0.6" d="M555.831 366.61L544.783 366.6V356.946L555.831 356.923V366.61Z" fill="white"/>
<path d="M482.003 463.086L584.482 466.231V456.46L482.003 453.615V463.086Z" fill="white"/>
<path opacity="0.6" d="M482.003 477.883L540.66 479.952V470.31L482.003 468.413V477.883Z" fill="white"/>
<path opacity="0.6" d="M555.831 480.487L544.783 480.097V470.443L555.831 470.8V480.487Z" fill="white"/>
<path opacity="0.6" d="M482.003 491.497L540.66 493.813V484.17L482.003 482.026V491.497Z" fill="white"/>
<path opacity="0.6" d="M555.831 494.412L544.783 493.976V484.321L555.831 484.725V494.412Z" fill="white"/>
<path opacity="0.6" d="M482.003 505.111L540.66 507.674V498.032L482.003 495.641V505.111Z" fill="white"/>
<path opacity="0.6" d="M555.831 508.336L544.783 507.854V498.199L555.831 498.65V508.336Z" fill="white"/>
<path opacity="0.6" d="M469.55 504.614L471.807 504.712V259.651L469.55 259.724V504.614Z" fill="white"/>
<path opacity="0.6" d="M189.537 516.006C289.037 518.087 311.412 532.294 339.685 515.271C378.534 491.88 360.842 450.271 398.693 428.445C446.28 401.005 501.145 451.259 525.982 426.759C550.716 402.36 503.992 344.935 531.04 280.924C541.894 255.236 560.376 238.552 573.143 228.986L598.898 227.87C608.782 227.442 616.867 233.986 616.867 242.459V547.863C616.867 556.336 608.781 562.748 598.898 562.159L141.82 534.91C134.564 534.478 128.689 528.264 128.689 521.057V516.439C142.388 515.954 163.607 515.464 189.537 516.006Z" fill="white"/>
<path d="M279.52 168.975C281.186 168.955 282.782 167.955 283.529 166.279L308.505 110.2C308.776 109.591 308.917 108.931 308.917 108.266V50.2678C308.917 47.7371 306.924 45.7497 304.466 45.8297C302.01 45.9096 300.022 48.0234 300.022 50.5506V107.456L275.522 162.551C274.501 164.849 275.462 167.545 277.671 168.575C278.271 168.854 278.9 168.983 279.52 168.975Z" fill="#D8DEE8"/>
<path d="M215.037 169.826C217.417 169.797 219.348 167.754 219.348 165.263V136.222L242.158 111.969C242.974 111.102 243.432 109.94 243.432 108.739V52.5265C243.432 50.0255 241.486 48.0608 239.086 48.139C236.688 48.2169 234.745 50.3052 234.745 52.8025V107.06L211.992 131.301C211.184 132.161 210.731 133.315 210.731 134.509V165.375C210.731 167.862 212.658 169.855 215.037 169.826Z" fill="#D8DEE8"/>
<path d="M180.385 170.189C182.742 170.161 184.653 168.128 184.653 165.65V116.52C184.653 115.33 184.203 114.198 183.402 113.374L169.225 98.7839V54.7326C169.225 52.2606 167.324 50.3184 164.979 50.3945C162.637 50.4708 160.74 52.5338 160.74 55.0023V100.842C160.74 102.027 161.186 103.153 161.981 103.973L176.123 118.557V165.76C176.122 168.235 178.03 170.218 180.385 170.189Z" fill="#D8DEE8"/>
<path d="M312.833 466.109C315.314 466.201 317.326 464.214 317.326 461.671V415.666C317.326 414.445 316.853 413.261 316.009 412.373L297.074 392.445V351.608C297.074 349.074 295.075 346.984 292.611 346.941C290.149 346.899 288.155 348.916 288.155 351.446V394.121C288.155 395.337 288.624 396.514 289.46 397.395L308.347 417.313V461.346C308.347 463.885 310.354 466.018 312.833 466.109Z" fill="#D8DEE8"/>
<path d="M241.2 463.458C242.322 463.499 243.445 463.097 244.301 462.241C246.016 460.527 246.016 457.645 244.301 455.807L219.593 429.312V350.202C219.593 347.7 217.646 345.637 215.244 345.596C212.845 345.554 210.901 347.546 210.901 350.044V430.913C210.901 432.113 211.358 433.278 212.173 434.153L238.102 462.013C238.957 462.931 240.078 463.416 241.2 463.458Z" fill="#D8DEE8"/>
<path d="M171.242 460.869C172.338 460.909 173.435 460.511 174.271 459.664C175.946 457.969 175.946 455.122 174.271 453.306L147.083 423.818V404.046L186.626 363.468C188.307 361.743 188.307 358.889 186.626 357.097C184.946 355.305 182.222 355.254 180.545 356.979L139.842 398.834C139.047 399.651 138.601 400.776 138.601 401.961V425.407C138.601 426.592 139.047 427.743 139.842 428.606L168.216 459.441C169.051 460.349 170.147 460.828 171.242 460.869Z" fill="#D8DEE8"/>
<path d="M99.8186 218.092L142.839 217.917C145.182 217.907 147.083 215.895 147.083 213.424C147.083 210.953 145.182 208.96 142.839 208.973L101.55 209.204L76.4327 182.673C75.6554 181.852 74.6017 181.397 73.503 181.409L32.3845 181.837C30.13 181.86 28.3041 183.843 28.3041 186.264C28.3041 188.686 30.13 190.633 32.3845 190.613L71.7879 190.262L96.8654 216.805C97.6481 217.634 98.7103 218.097 99.8186 218.092Z" fill="#D8DEE8"/>
<path d="M135.955 305.382C137.038 305.393 138.122 304.969 138.948 304.105C140.603 302.377 140.603 299.546 138.948 297.785L97.9241 254.109C97.1412 253.276 96.0795 252.806 94.9726 252.804L32.3838 252.688C30.1293 252.684 28.3034 254.644 28.3034 257.065C28.3034 259.487 30.1293 261.456 32.3838 261.464L93.2446 261.67L132.965 304.042C133.79 304.922 134.873 305.37 135.955 305.382Z" fill="#D8DEE8"/>
<path d="M109.092 356.939L142.839 357.602C145.182 357.648 147.083 355.681 147.083 353.21C147.083 350.739 145.182 348.7 142.839 348.658L110.829 348.078L90.0324 325.652C89.2516 324.81 88.1927 324.328 87.0889 324.312L32.3843 323.539C30.1298 323.508 28.3039 325.445 28.3039 327.867C28.3039 330.288 30.1298 332.28 32.3843 332.316L85.3658 333.144L106.129 355.579C106.915 356.427 107.98 356.917 109.092 356.939Z" fill="#D8DEE8"/>
<path d="M14.8721 186.394C14.8721 196.787 22.6992 205.162 32.384 205.101C42.1013 205.039 50.0027 196.511 50.0027 186.055C50.0027 175.598 42.1011 167.223 32.384 167.349C22.6992 167.474 14.8721 176 14.8721 186.394Z" fill="#D8DEE8"/>
<path d="M14.8721 257.03C14.8721 267.423 22.6992 275.895 32.384 275.951C42.1013 276.009 50.0027 267.578 50.0027 257.122C50.0027 246.665 42.1011 238.193 32.384 238.2C22.6992 238.206 14.8721 246.637 14.8721 257.03Z" fill="#D8DEE8"/>
<path d="M14.8721 327.667C14.8721 338.06 22.6992 346.628 32.384 346.803C42.1013 346.98 50.0027 338.646 50.0027 328.19C50.0027 317.733 42.1011 309.165 32.384 309.052C22.6992 308.939 14.8721 317.274 14.8721 327.667Z" fill="#D8DEE8"/>
<path d="M304.466 30.7096C293.918 31.0793 285.395 40.1702 285.395 51.0155C285.395 61.8608 293.918 70.4099 304.466 70.1091C315.051 69.8073 323.659 60.7138 323.659 49.7992C323.659 38.8849 315.051 30.3386 304.466 30.7096Z" fill="#D8DEE8"/>
<path d="M239.086 33.1973C228.785 33.5583 220.46 42.5389 220.46 53.257C220.46 63.9752 228.785 72.4267 239.086 72.1329C249.423 71.8382 257.829 62.855 257.829 52.0694C257.829 41.2838 249.423 32.8349 239.086 33.1973Z" fill="#D8DEE8"/>
<path d="M164.979 35.6263C154.916 35.9791 146.784 44.852 146.784 55.4459C146.784 66.0398 154.916 74.396 164.979 74.109C175.077 73.821 183.288 64.9455 183.288 54.2859C183.288 43.626 175.077 35.2723 164.979 35.6263Z" fill="#D8DEE8"/>
<path d="M312.832 441.716C302.185 441.364 293.582 449.914 293.582 460.81C293.582 471.706 302.185 480.88 312.832 481.3C323.517 481.722 332.207 473.176 332.207 462.21C332.207 451.244 323.517 442.068 312.832 441.716Z" fill="#D8DEE8"/>
<path d="M241.2 439.353C230.803 439.01 222.401 447.462 222.401 458.229C222.401 468.997 230.803 478.058 241.2 478.469C251.633 478.881 260.118 470.433 260.118 459.597C260.118 448.761 251.633 439.697 241.2 439.353Z" fill="#D8DEE8"/>
<path d="M171.242 437.045C161.086 436.71 152.879 445.067 152.879 455.709C152.879 466.352 161.086 475.303 171.242 475.705C181.432 476.107 189.719 467.754 189.719 457.045C189.719 446.336 181.433 437.381 171.242 437.045Z" fill="#D8DEE8"/>
<path d="M146.809 145.356L323.369 140.003C331.392 139.759 337.919 146.42 337.919 154.881V350.393C337.919 358.854 331.391 365.532 323.369 365.308L146.809 360.399C139.53 360.196 133.651 353.534 133.651 345.517V160.27C133.651 152.254 139.53 145.577 146.809 145.356Z" fill="url(#paint22_linear_4_1117)"/>
<path d="M139.3 145.356L315.86 140.003C323.882 139.759 330.41 146.42 330.41 154.881V350.393C330.41 358.854 323.882 365.532 315.86 365.308L139.3 360.399C132.021 360.196 126.142 353.534 126.142 345.517V160.27C126.142 152.254 132.021 145.577 139.3 145.356Z" fill="url(#paint23_linear_4_1117)"/>
<path d="M175.349 185.276L285.302 183.147C290.207 183.052 294.192 187.204 294.192 192.42V312.956C294.192 318.173 290.207 322.334 285.302 322.251L175.349 320.399C170.732 320.321 166.999 316.169 166.999 311.125V194.571C166.999 189.527 170.732 185.365 175.349 185.276Z" fill="url(#paint24_linear_4_1117)"/>
<g opacity="0.3">
<path d="M209.302 261.459C217.876 217.056 265.55 213.012 277.956 168.056C280.459 158.986 281.058 149.918 280.339 141.08L315.86 140.003C323.882 139.759 330.41 146.42 330.41 154.881V350.394C330.41 358.854 323.882 365.532 315.86 365.309L215.649 362.522C217.493 356.365 218.902 349.816 219.68 342.886C224.145 303.102 203.311 292.478 209.302 261.459Z" fill="url(#paint25_linear_4_1117)"/>
</g>
<path d="M167.84 185.276L277.792 183.147C282.697 183.052 286.683 187.204 286.683 192.42V312.956C286.683 318.173 282.697 322.334 277.792 322.251L167.84 320.399C163.223 320.321 159.489 316.169 159.489 311.125V194.571C159.489 189.527 163.223 185.365 167.84 185.276Z" fill="url(#paint26_linear_4_1117)"/>
<g opacity="0.3">
<path d="M191.403 261.459C198.869 222.798 235.972 214.729 253.633 183.615L277.792 183.147C282.697 183.052 286.683 187.204 286.683 192.42V312.956C286.683 318.172 282.697 322.334 277.792 322.251L201.69 320.969C198.585 297.661 186.688 285.873 191.403 261.459Z" fill="url(#paint27_linear_4_1117)"/>
</g>
<path d="M202.089 534.86L202.48 546.344C202.595 549.713 199.892 552.319 196.446 552.166L190.183 551.887C189.585 557.345 188.386 562.588 186.644 567.552L191.934 570.725C194.973 572.547 196.121 576.323 194.498 579.156L188.972 588.804C187.353 591.632 179.532 593.313 176.502 591.486L175.547 587.597C172.198 591.782 168.363 595.556 164.12 598.85L167.015 603.637C168.824 606.63 167.936 610.292 165.032 611.816L155.146 617.003C152.251 618.521 142.85 618.757 141.05 615.77L143.871 609.743C138.738 611.494 133.316 612.686 127.677 613.259L127.85 618.347C127.964 621.686 125.31 624.245 121.926 624.064L110.408 623.447C107.036 623.266 104.211 620.422 104.098 617.093L103.925 612.02C98.2661 610.861 92.7968 609.108 87.5898 606.834L85.1567 611.131C83.5781 613.92 73.8846 615.355 70.9282 613.543L66.8818 606.732C63.9346 604.925 62.8197 601.206 64.3901 598.421L66.9057 593.963C62.5294 590.279 58.5289 586.168 54.9816 581.705L50.3087 584.207C47.4853 585.718 39.1227 586.491 37.365 583.547L36.0285 571.586C34.2738 568.648 35.1327 565.038 37.948 563.521L42.8592 560.875C40.8418 555.825 39.3327 550.552 38.3914 545.122L32.3602 544.853C29.0491 544.706 26.2758 541.912 26.1634 538.613L25.7806 527.368C25.6683 524.069 28.2592 521.507 31.57 521.646L37.9555 521.912C38.6817 516.69 39.9637 511.677 41.7453 506.929L35.9009 503.406C32.974 501.641 31.8666 497.947 33.4256 495.151L32.3136 483.977C33.8756 481.176 43.9521 481.968 46.8869 483.728L53.0373 487.417C56.2322 483.555 59.8502 480.054 63.8285 476.972L60.0406 470.689C58.2754 467.762 59.1399 464.127 61.9727 462.571L66.1861 456.474C69.0275 454.913 78.2279 456.804 80.0013 459.737L83.8946 466.176C88.6422 464.548 93.6419 463.391 98.8428 462.767L98.5918 455.396C98.4783 452.067 101.117 449.458 104.487 449.569L115.996 449.946C119.379 450.057 122.215 452.853 122.328 456.191L122.58 463.584C127.872 464.571 133.01 466.085 137.937 468.06L135.65 460.261C137.253 457.421 146.789 458.126 149.796 459.9L160.064 465.957C163.081 467.736 164.222 471.486 162.612 474.331L159.16 480.428C163.458 483.85 167.422 487.677 170.983 491.846L170.723 487.939C173.638 486.369 183.828 488.13 185.645 491.107L191.846 501.261C193.666 504.242 192.772 507.93 189.849 509.495L184.024 512.613C186.206 517.604 187.889 522.828 189.009 528.222L195.64 528.499C199.086 528.643 201.974 531.49 202.089 534.86ZM159.59 539.914C158.73 514.648 137.221 493.378 111.69 492.411C86.3139 491.45 66.5452 510.933 67.3962 535.922C68.2472 560.911 89.4033 582.166 114.789 583.403C140.329 584.647 160.451 565.18 159.59 539.914Z" fill="url(#paint28_linear_4_1117)"/>
<path d="M194.376 534.762L194.766 546.246C194.881 549.615 192.179 552.222 188.732 552.068L182.469 551.789C181.871 557.248 180.672 562.491 178.931 567.454L184.221 570.628C187.259 572.45 188.408 576.225 186.785 579.058L181.259 588.706C179.64 591.534 175.87 592.344 172.839 590.517L167.834 587.5C164.485 591.685 160.65 595.458 156.407 598.753L159.302 603.54C161.112 606.532 160.223 610.195 157.318 611.719L147.433 616.905C144.537 618.424 140.731 617.233 138.931 614.245L136.158 609.646C131.025 611.397 125.603 612.589 119.964 613.162L120.137 618.25C120.251 621.589 117.597 624.148 114.212 623.967L102.695 623.35C99.3224 623.169 96.4983 620.325 96.3848 616.996L96.212 611.922C90.5532 610.763 85.0837 609.011 79.8767 606.736L77.4436 611.034C75.8649 613.823 72.1872 614.613 69.2311 612.801L59.1689 606.635C56.2216 604.828 55.1066 601.109 56.6773 598.324L59.1926 593.866C54.8163 590.182 50.8157 586.071 47.2684 581.608L42.5955 584.11C39.7721 585.621 36.0593 584.459 34.3016 581.515L28.3154 571.489C26.5609 568.551 27.4196 564.941 30.2346 563.424L35.1458 560.778C33.1284 555.728 31.6194 550.455 30.6782 545.025L24.6472 544.757C21.3359 544.609 18.5626 541.815 18.4502 538.516L18.0675 527.271C17.9551 523.972 20.546 521.41 23.8571 521.548L30.2426 521.815C30.9686 516.593 32.2508 511.58 34.0322 506.832L28.1877 503.309C25.2611 501.544 24.1535 497.85 25.7127 495.054L31.0327 485.516C32.5947 482.716 36.2391 481.871 39.174 483.631L45.3244 487.32C48.5195 483.458 52.1373 479.957 56.1158 476.875L52.3279 470.592C50.5627 467.664 51.4272 464.03 54.26 462.473L63.9312 457.158C66.7727 455.596 70.515 456.706 72.2884 459.64L76.1817 466.078C80.9293 464.45 85.9288 463.293 91.1298 462.67L90.8786 455.298C90.7653 451.969 93.4038 449.36 96.7741 449.471L108.284 449.849C111.666 449.96 114.502 452.755 114.615 456.094L114.867 463.486C120.159 464.474 125.297 465.988 130.224 467.963L133.738 461.736C135.34 458.895 139.076 458.029 142.083 459.803L152.351 465.86C155.368 467.639 156.51 471.389 154.899 474.234L151.447 480.33C155.745 483.752 159.709 487.58 163.27 491.748L169.364 488.465C172.278 486.895 176.115 488.033 177.932 491.01L184.132 501.164C185.953 504.146 185.059 507.832 182.135 509.398L176.311 512.516C178.492 517.507 180.175 522.731 181.296 528.125L187.927 528.402C191.372 528.545 194.261 531.393 194.376 534.762ZM151.877 539.816C151.017 514.55 129.508 493.281 103.977 492.313C78.601 491.352 58.8322 510.835 59.6833 535.824C60.5343 560.814 81.6904 582.068 107.076 583.305C132.616 584.549 152.738 565.082 151.877 539.816Z" fill="url(#paint29_linear_4_1117)"/>
<defs>
<linearGradient id="paint0_linear_4_1117" x1="347.376" y1="547.686" x2="347.376" y2="598.506" gradientUnits="userSpaceOnUse">
<stop offset="0.494" stop-color="#EBEFF2"/>
<stop offset="1" stop-color="white"/>
</linearGradient>
<linearGradient id="paint1_linear_4_1117" x1="486.665" y1="179.716" x2="270.634" y2="575.943" gradientUnits="userSpaceOnUse">
<stop stop-color="#444B8C"/>
<stop offset="0.9964" stop-color="#26264F"/>
</linearGradient>
<linearGradient id="paint2_linear_4_1117" x1="371.463" y1="215.918" x2="332.684" y2="452.285" gradientUnits="userSpaceOnUse">
<stop offset="0.0036" stop-color="#E38DDD"/>
<stop offset="1" stop-color="#9571F6"/>
</linearGradient>
<linearGradient id="paint3_linear_4_1117" x1="391.636" y1="284.795" x2="300.706" y2="284.795" gradientUnits="userSpaceOnUse">
<stop stop-color="#FF9085"/>
<stop offset="1" stop-color="#FB6FBB"/>
</linearGradient>
<linearGradient id="paint4_linear_4_1117" x1="391.636" y1="293.748" x2="300.706" y2="293.748" gradientUnits="userSpaceOnUse">
<stop stop-color="#FF9085"/>
<stop offset="1" stop-color="#FB6FBB"/>
</linearGradient>
<linearGradient id="paint5_linear_4_1117" x1="407.61" y1="320.215" x2="343.004" y2="320.215" gradientUnits="userSpaceOnUse">
<stop stop-color="#FF9085"/>
<stop offset="1" stop-color="#FB6FBB"/>
</linearGradient>
<linearGradient id="paint6_linear_4_1117" x1="370.637" y1="216.06" x2="335.154" y2="432.333" gradientUnits="userSpaceOnUse">
<stop offset="0.0036" stop-color="#E38DDD"/>
<stop offset="1" stop-color="#9571F6"/>
</linearGradient>
<linearGradient id="paint7_linear_4_1117" x1="428.737" y1="265.328" x2="364.173" y2="265.328" gradientUnits="userSpaceOnUse">
<stop stop-color="#FF9085"/>
<stop offset="1" stop-color="#FB6FBB"/>
</linearGradient>
<linearGradient id="paint8_linear_4_1117" x1="391.636" y1="463.953" x2="300.706" y2="463.953" gradientUnits="userSpaceOnUse">
<stop stop-color="#FF9085"/>
<stop offset="1" stop-color="#FB6FBB"/>
</linearGradient>
<linearGradient id="paint9_linear_4_1117" x1="391.636" y1="472.906" x2="300.706" y2="472.906" gradientUnits="userSpaceOnUse">
<stop stop-color="#FF9085"/>
<stop offset="1" stop-color="#FB6FBB"/>
</linearGradient>
<linearGradient id="paint10_linear_4_1117" x1="350.098" y1="480.321" x2="261.522" y2="480.321" gradientUnits="userSpaceOnUse">
<stop stop-color="#FF9085"/>
<stop offset="1" stop-color="#FB6FBB"/>
</linearGradient>
<linearGradient id="paint11_linear_4_1117" x1="343.065" y1="262.082" x2="315.349" y2="431.013" gradientUnits="userSpaceOnUse">
<stop offset="0.0036" stop-color="#E38DDD"/>
<stop offset="1" stop-color="#9571F6"/>
</linearGradient>
<linearGradient id="paint12_linear_4_1117" x1="428.737" y1="447.366" x2="364.173" y2="447.366" gradientUnits="userSpaceOnUse">
<stop stop-color="#FF9085"/>
<stop offset="1" stop-color="#FB6FBB"/>
</linearGradient>
<linearGradient id="paint13_linear_4_1117" x1="407.61" y1="356.383" x2="315.767" y2="356.383" gradientUnits="userSpaceOnUse">
<stop stop-color="#FF9085"/>
<stop offset="1" stop-color="#FB6FBB"/>
</linearGradient>
<linearGradient id="paint14_linear_4_1117" x1="391.636" y1="374.421" x2="300.706" y2="374.421" gradientUnits="userSpaceOnUse">
<stop stop-color="#FF9085"/>
<stop offset="1" stop-color="#FB6FBB"/>
</linearGradient>
<linearGradient id="paint15_linear_4_1117" x1="391.636" y1="383.375" x2="300.706" y2="383.375" gradientUnits="userSpaceOnUse">
<stop stop-color="#FF9085"/>
<stop offset="1" stop-color="#FB6FBB"/>
</linearGradient>
<linearGradient id="paint16_linear_4_1117" x1="428.576" y1="392.799" x2="370.305" y2="392.799" gradientUnits="userSpaceOnUse">
<stop stop-color="#FF9085"/>
<stop offset="1" stop-color="#FB6FBB"/>
</linearGradient>
<linearGradient id="paint17_linear_4_1117" x1="380.056" y1="230.374" x2="347.846" y2="426.698" gradientUnits="userSpaceOnUse">
<stop offset="0.0036" stop-color="#E38DDD"/>
<stop offset="1" stop-color="#9571F6"/>
</linearGradient>
<linearGradient id="paint18_linear_4_1117" x1="391.636" y1="419.261" x2="309.439" y2="419.261" gradientUnits="userSpaceOnUse">
<stop stop-color="#FF9085"/>
<stop offset="1" stop-color="#FB6FBB"/>
</linearGradient>
<linearGradient id="paint19_linear_4_1117" x1="372.425" y1="427.838" x2="291.217" y2="427.838" gradientUnits="userSpaceOnUse">
<stop stop-color="#FF9085"/>
<stop offset="1" stop-color="#FB6FBB"/>
</linearGradient>
<linearGradient id="paint20_linear_4_1117" x1="372.425" y1="436.749" x2="291.217" y2="436.749" gradientUnits="userSpaceOnUse">
<stop stop-color="#FF9085"/>
<stop offset="1" stop-color="#FB6FBB"/>
</linearGradient>
<linearGradient id="paint21_linear_4_1117" x1="417.022" y1="221.923" x2="381.327" y2="439.487" gradientUnits="userSpaceOnUse">
<stop offset="0.0036" stop-color="#E38DDD"/>
<stop offset="1" stop-color="#9571F6"/>
</linearGradient>
<linearGradient id="paint22_linear_4_1117" x1="204.364" y1="246.305" x2="318.504" y2="260.573" gradientUnits="userSpaceOnUse">
<stop stop-color="#311944"/>
<stop offset="1" stop-color="#893976"/>
</linearGradient>
<linearGradient id="paint23_linear_4_1117" x1="78.0037" y1="14.1089" x2="421.868" y2="554.439" gradientUnits="userSpaceOnUse">
<stop stop-color="#AA80F9"/>
<stop offset="0.9964" stop-color="#6165D7"/>
</linearGradient>
<linearGradient id="paint24_linear_4_1117" x1="213.908" y1="246.543" x2="295.008" y2="272.075" gradientUnits="userSpaceOnUse">
<stop stop-color="#311944"/>
<stop offset="1" stop-color="#893976"/>
</linearGradient>
<linearGradient id="paint25_linear_4_1117" x1="107.062" y1="-4.38247" x2="450.926" y2="535.948" gradientUnits="userSpaceOnUse">
<stop stop-color="#AA80F9"/>
<stop offset="0.9964" stop-color="#6165D7"/>
</linearGradient>
<linearGradient id="paint26_linear_4_1117" x1="170.259" y1="200.976" x2="348.229" y2="372.188" gradientUnits="userSpaceOnUse">
<stop stop-color="#FF9085"/>
<stop offset="1" stop-color="#FB6FBB"/>
</linearGradient>
<linearGradient id="paint27_linear_4_1117" x1="178.986" y1="191.905" x2="356.956" y2="363.116" gradientUnits="userSpaceOnUse">
<stop stop-color="#FF9085"/>
<stop offset="1" stop-color="#FB6FBB"/>
</linearGradient>
<linearGradient id="paint28_linear_4_1117" x1="-84.7012" y1="707.283" x2="129.378" y2="521.238" gradientUnits="userSpaceOnUse">
<stop stop-color="#FFC444"/>
<stop offset="0.9964" stop-color="#F36F56"/>
</linearGradient>
<linearGradient id="paint29_linear_4_1117" x1="143.273" y1="481.289" x2="-20.9675" y2="728.216" gradientUnits="userSpaceOnUse">
<stop stop-color="#FFC444"/>
<stop offset="0.9964" stop-color="#F36F56"/>
</linearGradient>
</defs>
</svg>
