<svg width="958" height="212" viewBox="0 0 958 212" fill="none" xmlns="http://www.w3.org/2000/svg">
<path d="M57.1604 1.79274C25.8875 7.61095 2.39652 33.7201 0.287425 65.0657C-0.0762132 70.8839 0.069242 71.9748 1.45107 74.7385C2.46925 76.7749 3.9238 78.2294 5.88745 79.2476C8.72382 80.7021 9.88746 80.7021 127.342 80.7021C244.797 80.7021 245.961 80.7021 248.798 79.2476C250.761 78.2294 252.216 76.7749 253.234 74.7385C254.616 71.9748 254.761 70.8839 254.398 65.0657C252.434 35.7565 231.779 10.8837 202.616 2.7382L196.797 1.06547L129.524 0.920014C76.6514 0.847286 61.1604 0.992742 57.1604 1.79274Z" fill="#FFE492"/>
<path d="M29.3059 103.902C21.9604 106.447 16.7968 112.338 15.1967 120.193C13.524 128.048 16.7968 136.702 23.1968 141.575C29.5968 146.448 23.9968 146.229 128.87 146.011L223.707 145.793L227.852 143.757C235.634 139.902 239.707 133.284 239.707 124.338C239.707 115.393 235.634 108.775 227.852 104.92L223.707 102.884L128.434 102.738C37.5968 102.593 33.015 102.593 29.3059 103.902Z" fill="#FFE492"/>
<path d="M5.74209 169.503C2.54207 171.175 0.0693359 175.394 0.0693359 179.175C0.0693359 193.866 11.4148 207.612 26.1058 210.812C31.4876 211.975 223.052 211.975 228.579 210.812C237.888 208.848 246.107 202.594 250.47 194.375C256.434 182.884 255.779 172.994 248.798 169.43C245.961 167.975 244.798 167.975 127.197 167.975C10.3966 168.048 8.36028 168.048 5.74209 169.503Z" fill="#FFE492"/>
<path d="M351.295 82.9758V99.3394H306.386V82.9758H351.295ZM315.75 152.794V79.4303C315.75 74.0364 316.765 69.5667 318.795 66.0212C320.825 62.4455 323.644 59.7788 327.25 58.0212C330.856 56.2333 335.022 55.3394 339.75 55.3394C342.841 55.3394 345.75 55.5818 348.477 56.0667C351.235 56.5212 353.28 56.9303 354.613 57.2939L351.068 73.5667C350.25 73.2939 349.25 73.0667 348.068 72.8848C346.916 72.703 345.825 72.6121 344.795 72.6121C342.189 72.6121 340.401 73.1879 339.432 74.3394C338.462 75.4909 337.977 77.0667 337.977 79.0667V152.794H315.75ZM389.769 154.112C382.436 154.112 376.133 152.612 370.86 149.612C365.618 146.582 361.572 142.37 358.724 136.976C355.906 131.552 354.497 125.264 354.497 118.112C354.497 110.93 355.906 104.642 358.724 99.2485C361.572 93.8242 365.618 89.6121 370.86 86.6121C376.133 83.5818 382.436 82.0667 389.769 82.0667C397.103 82.0667 403.39 83.5818 408.633 86.6121C413.906 89.6121 417.951 93.8242 420.769 99.2485C423.618 104.642 425.042 110.93 425.042 118.112C425.042 125.264 423.618 131.552 420.769 136.976C417.951 142.37 413.906 146.582 408.633 149.612C403.39 152.612 397.103 154.112 389.769 154.112ZM389.906 137.339C392.572 137.339 394.83 136.521 396.678 134.885C398.527 133.248 399.936 130.976 400.906 128.067C401.906 125.158 402.406 121.794 402.406 117.976C402.406 114.097 401.906 110.703 400.906 107.794C399.936 104.885 398.527 102.612 396.678 100.976C394.83 99.3394 392.572 98.5212 389.906 98.5212C387.148 98.5212 384.815 99.3394 382.906 100.976C381.027 102.612 379.587 104.885 378.587 107.794C377.618 110.703 377.133 114.097 377.133 117.976C377.133 121.794 377.618 125.158 378.587 128.067C379.587 130.976 381.027 133.248 382.906 134.885C384.815 136.521 387.148 137.339 389.906 137.339ZM466.459 154.112C459.126 154.112 452.823 152.612 447.55 149.612C442.308 146.582 438.262 142.37 435.414 136.976C432.596 131.552 431.187 125.264 431.187 118.112C431.187 110.93 432.596 104.642 435.414 99.2485C438.262 93.8242 442.308 89.6121 447.55 86.6121C452.823 83.5818 459.126 82.0667 466.459 82.0667C473.793 82.0667 480.08 83.5818 485.323 86.6121C490.596 89.6121 494.641 93.8242 497.459 99.2485C500.308 104.642 501.732 110.93 501.732 118.112C501.732 125.264 500.308 131.552 497.459 136.976C494.641 142.37 490.596 146.582 485.323 149.612C480.08 152.612 473.793 154.112 466.459 154.112ZM466.596 137.339C469.262 137.339 471.52 136.521 473.368 134.885C475.217 133.248 476.626 130.976 477.596 128.067C478.596 125.158 479.096 121.794 479.096 117.976C479.096 114.097 478.596 110.703 477.596 107.794C476.626 104.885 475.217 102.612 473.368 100.976C471.52 99.3394 469.262 98.5212 466.596 98.5212C463.838 98.5212 461.505 99.3394 459.596 100.976C457.717 102.612 456.277 104.885 455.277 107.794C454.308 110.703 453.823 114.097 453.823 117.976C453.823 121.794 454.308 125.158 455.277 128.067C456.277 130.976 457.717 133.248 459.596 134.885C461.505 136.521 463.838 137.339 466.596 137.339ZM536.058 153.794C530.907 153.794 526.225 152.461 522.013 149.794C517.801 147.127 514.437 143.127 511.922 137.794C509.407 132.461 508.149 125.839 508.149 117.93C508.149 109.718 509.452 102.961 512.058 97.6576C514.664 92.3545 518.073 88.4303 522.286 85.8848C526.528 83.3394 531.089 82.0667 535.967 82.0667C539.634 82.0667 542.77 82.703 545.377 83.9758C547.983 85.2182 550.134 86.8242 551.831 88.7939C553.528 90.7636 554.816 92.8091 555.695 94.9303H556.149V59.703H578.377V152.794H556.377V141.476H555.695C554.755 143.627 553.422 145.642 551.695 147.521C549.967 149.4 547.801 150.915 545.195 152.067C542.619 153.218 539.573 153.794 536.058 153.794ZM543.786 136.476C546.483 136.476 548.786 135.718 550.695 134.203C552.604 132.658 554.073 130.491 555.104 127.703C556.134 124.915 556.649 121.642 556.649 117.885C556.649 114.067 556.134 110.779 555.104 108.021C554.104 105.264 552.634 103.142 550.695 101.658C548.786 100.173 546.483 99.4303 543.786 99.4303C541.028 99.4303 538.695 100.188 536.786 101.703C534.877 103.218 533.422 105.355 532.422 108.112C531.452 110.87 530.967 114.127 530.967 117.885C530.967 121.642 531.467 124.915 532.467 127.703C533.467 130.491 534.907 132.658 536.786 134.203C538.695 135.718 541.028 136.476 543.786 136.476ZM650.828 104.294L630.419 104.839C630.207 103.385 629.631 102.097 628.692 100.976C627.752 99.8242 626.525 98.9303 625.01 98.2939C623.525 97.6273 621.798 97.2939 619.828 97.2939C617.252 97.2939 615.055 97.8091 613.237 98.8394C611.449 99.8697 610.57 101.264 610.601 103.021C610.57 104.385 611.116 105.567 612.237 106.567C613.388 107.567 615.434 108.37 618.373 108.976L631.828 111.521C638.798 112.855 643.979 115.067 647.373 118.158C650.798 121.248 652.525 125.339 652.555 130.43C652.525 135.218 651.101 139.385 648.282 142.93C645.495 146.476 641.676 149.233 636.828 151.203C631.979 153.142 626.434 154.112 620.192 154.112C610.222 154.112 602.358 152.067 596.601 147.976C590.873 143.855 587.601 138.339 586.782 131.43L608.737 130.885C609.222 133.43 610.479 135.37 612.51 136.703C614.54 138.036 617.131 138.703 620.282 138.703C623.131 138.703 625.449 138.173 627.237 137.112C629.025 136.052 629.934 134.642 629.964 132.885C629.934 131.309 629.237 130.052 627.873 129.112C626.51 128.142 624.373 127.385 621.464 126.839L609.282 124.521C602.282 123.248 597.07 120.9 593.646 117.476C590.222 114.021 588.525 109.627 588.555 104.294C588.525 99.6273 589.767 95.6424 592.282 92.3394C594.798 89.0061 598.373 86.4606 603.01 84.703C607.646 82.9455 613.116 82.0667 619.419 82.0667C628.873 82.0667 636.328 84.0515 641.782 88.0212C647.237 91.9606 650.252 97.3849 650.828 104.294ZM660.938 178.976V82.9758H682.938V94.9303H683.62C684.529 92.8091 685.817 90.7636 687.484 88.7939C689.181 86.8242 691.332 85.2182 693.938 83.9758C696.575 82.703 699.726 82.0667 703.393 82.0667C708.241 82.0667 712.772 83.3394 716.984 85.8848C721.226 88.4303 724.65 92.3545 727.257 97.6576C729.863 102.961 731.166 109.718 731.166 117.93C731.166 125.839 729.908 132.461 727.393 137.794C724.908 143.127 721.544 147.127 717.302 149.794C713.09 152.461 708.408 153.794 703.257 153.794C699.741 153.794 696.696 153.218 694.12 152.067C691.544 150.915 689.378 149.4 687.62 147.521C685.893 145.642 684.56 143.627 683.62 141.476H683.166V178.976H660.938ZM682.711 117.885C682.711 121.642 683.211 124.915 684.211 127.703C685.241 130.491 686.711 132.658 688.62 134.203C690.56 135.718 692.878 136.476 695.575 136.476C698.302 136.476 700.62 135.718 702.529 134.203C704.438 132.658 705.878 130.491 706.847 127.703C707.847 124.915 708.347 121.642 708.347 117.885C708.347 114.127 707.847 110.87 706.847 108.112C705.878 105.355 704.438 103.218 702.529 101.703C700.65 100.188 698.332 99.4303 695.575 99.4303C692.847 99.4303 690.529 100.173 688.62 101.658C686.711 103.142 685.241 105.264 684.211 108.021C683.211 110.779 682.711 114.067 682.711 117.885ZM759.935 153.976C755.481 153.976 751.526 153.233 748.072 151.748C744.647 150.233 741.935 147.961 739.935 144.93C737.965 141.87 736.981 138.036 736.981 133.43C736.981 129.552 737.662 126.279 739.026 123.612C740.39 120.945 742.268 118.779 744.662 117.112C747.056 115.445 749.814 114.188 752.935 113.339C756.056 112.461 759.39 111.87 762.935 111.567C766.905 111.203 770.102 110.824 772.526 110.43C774.95 110.006 776.708 109.415 777.799 108.658C778.92 107.87 779.481 106.764 779.481 105.339V105.112C779.481 102.779 778.678 100.976 777.072 99.703C775.465 98.4303 773.299 97.7939 770.572 97.7939C767.632 97.7939 765.268 98.4303 763.481 99.703C761.693 100.976 760.556 102.733 760.072 104.976L739.572 104.248C740.178 100.006 741.738 96.2182 744.253 92.8849C746.799 89.5212 750.284 86.8849 754.708 84.9758C759.162 83.0364 764.511 82.0667 770.753 82.0667C775.208 82.0667 779.314 82.597 783.072 83.6576C786.829 84.6879 790.102 86.203 792.89 88.203C795.678 90.1727 797.829 92.597 799.344 95.4758C800.89 98.3546 801.662 101.642 801.662 105.339V152.794H780.753V143.067H780.208C778.965 145.43 777.375 147.43 775.435 149.067C773.526 150.703 771.268 151.93 768.662 152.748C766.087 153.567 763.178 153.976 759.935 153.976ZM766.799 139.43C769.193 139.43 771.344 138.945 773.253 137.976C775.193 137.006 776.738 135.673 777.89 133.976C779.041 132.248 779.617 130.248 779.617 127.976V121.339C778.981 121.673 778.208 121.976 777.299 122.248C776.42 122.521 775.45 122.779 774.39 123.021C773.329 123.264 772.238 123.476 771.117 123.658C769.996 123.839 768.92 124.006 767.89 124.158C765.799 124.491 764.011 125.006 762.526 125.703C761.072 126.4 759.95 127.309 759.162 128.43C758.405 129.521 758.026 130.824 758.026 132.339C758.026 134.642 758.844 136.4 760.481 137.612C762.147 138.824 764.253 139.43 766.799 139.43ZM845.284 154.112C837.921 154.112 831.602 152.597 826.33 149.567C821.087 146.536 817.057 142.324 814.239 136.93C811.421 131.506 810.011 125.233 810.011 118.112C810.011 110.961 811.421 104.688 814.239 99.2939C817.087 93.8697 821.133 89.6424 826.375 86.6121C831.648 83.5818 837.936 82.0667 845.239 82.0667C851.693 82.0667 857.315 83.2333 862.102 85.5667C866.921 87.9 870.678 91.203 873.375 95.4758C876.102 99.7182 877.542 104.703 877.693 110.43H856.921C856.496 106.855 855.284 104.052 853.284 102.021C851.315 99.9909 848.739 98.9758 845.557 98.9758C842.981 98.9758 840.724 99.703 838.784 101.158C836.845 102.582 835.33 104.703 834.239 107.521C833.178 110.309 832.648 113.764 832.648 117.885C832.648 122.006 833.178 125.491 834.239 128.339C835.33 131.158 836.845 133.294 838.784 134.748C840.724 136.173 842.981 136.885 845.557 136.885C847.618 136.885 849.436 136.445 851.011 135.567C852.618 134.688 853.936 133.4 854.966 131.703C855.996 129.976 856.648 127.885 856.921 125.43H877.693C877.481 131.188 876.042 136.218 873.375 140.521C870.739 144.824 867.027 148.173 862.239 150.567C857.481 152.93 851.83 154.112 845.284 154.112ZM919.145 154.112C911.842 154.112 905.539 152.673 900.236 149.794C894.963 146.885 890.902 142.748 888.054 137.385C885.236 131.991 883.827 125.582 883.827 118.158C883.827 110.945 885.251 104.642 888.099 99.2485C890.948 93.8242 894.963 89.6121 900.145 86.6121C905.327 83.5818 911.433 82.0667 918.463 82.0667C923.433 82.0667 927.978 82.8394 932.099 84.3848C936.22 85.9303 939.781 88.2182 942.781 91.2485C945.781 94.2788 948.114 98.0212 949.781 102.476C951.448 106.9 952.281 111.976 952.281 117.703V123.248H891.599V110.339H931.599C931.569 107.976 931.008 105.87 929.917 104.021C928.827 102.173 927.327 100.733 925.417 99.703C923.539 98.6424 921.372 98.1121 918.917 98.1121C916.433 98.1121 914.205 98.6727 912.236 99.7939C910.266 100.885 908.705 102.385 907.554 104.294C906.402 106.173 905.796 108.309 905.736 110.703V123.839C905.736 126.688 906.296 129.188 907.417 131.339C908.539 133.461 910.13 135.112 912.19 136.294C914.251 137.476 916.705 138.067 919.554 138.067C921.523 138.067 923.311 137.794 924.917 137.248C926.523 136.703 927.902 135.9 929.054 134.839C930.205 133.779 931.069 132.476 931.645 130.93L952.054 131.521C951.205 136.097 949.342 140.082 946.463 143.476C943.614 146.839 939.872 149.461 935.236 151.339C930.599 153.188 925.236 154.112 919.145 154.112Z" fill="white"/>
</svg>
