<svg width="275" height="89" viewBox="0 0 275 89" fill="none" xmlns="http://www.w3.org/2000/svg">
<path d="M258.063 16.7529C257.687 16.7788 257.308 16.7967 256.939 16.8356C256.7 16.8599 256.598 16.7886 256.438 16.7513C256.385 16.7383 256.328 16.7123 256.279 16.7156C255.907 16.7415 255.535 16.7707 255.163 16.7999C255.049 16.8631 254.977 16.9474 254.802 16.9782C254.632 17.0074 254.43 17.0074 254.241 17.022C253.99 17.0399 253.739 17.0577 253.489 17.0739C253.364 17.082 253.261 17.1128 253.219 17.1712C253.212 17.1809 253.295 17.2052 253.341 17.2198C253.493 17.2685 253.641 17.3236 253.808 17.3609C253.967 17.3965 254.165 17.3382 254.335 17.3836C254.719 17.4857 254.723 17.4841 255.015 17.4646C255.265 17.4468 255.516 17.4274 255.767 17.4144C255.816 17.4111 255.873 17.4355 255.926 17.4484C256.085 17.4841 256.188 17.5652 256.423 17.5344C256.602 17.51 256.799 17.5052 256.985 17.4922C257.141 17.5392 257.285 17.5927 257.452 17.63C257.608 17.6657 257.653 17.6933 257.57 17.7403C257.494 17.7841 257.387 17.8019 257.247 17.8051C257.122 17.8068 256.996 17.8213 256.871 17.8294C256.807 17.8343 256.746 17.8376 256.685 17.8424C256.446 17.8603 256.446 17.8603 256.009 17.7565C255.839 17.716 255.645 17.7727 255.482 17.7338C255.372 17.7078 255.277 17.6689 255.171 17.6414C255.125 17.63 255.053 17.6284 254.996 17.6316C254.806 17.643 254.616 17.6511 254.434 17.6722C254.305 17.6868 254.229 17.7322 254.244 17.7776C254.248 17.7954 254.339 17.8213 254.392 17.823C254.514 17.8262 254.643 17.8035 254.761 17.8149C254.874 17.8262 254.992 17.8586 255.076 17.8943C255.246 17.9689 255.44 17.9024 255.603 17.9219C255.774 17.9429 255.915 18.0078 256.078 18.0467C256.12 18.0564 256.199 18.0402 256.264 18.0354C256.45 18.024 256.636 18.0143 256.822 18.0029C256.977 18.05 257.144 18.0921 257.285 18.1456C257.539 18.2429 257.813 18.2802 258.143 18.2332C258.329 18.2072 258.511 18.2169 258.659 18.2802C258.811 18.345 258.986 18.3385 259.179 18.3256C259.358 18.3126 259.54 18.2769 259.722 18.3223C260.117 18.4229 260.121 18.4277 260.587 18.3888C260.728 18.3775 260.834 18.3742 260.94 18.4115C261.039 18.4456 261.145 18.4747 261.248 18.5072C261.434 18.4958 261.624 18.4845 261.81 18.4715C262.049 18.4537 262.182 18.4764 262.239 18.5672C262.273 18.6223 262.288 18.6725 262.372 18.7098C262.47 18.7552 262.577 18.7536 262.721 18.7406C262.857 18.7293 262.956 18.7115 263.013 18.6531C263.036 18.6288 263.081 18.6061 263.123 18.5866C263.157 18.572 263.211 18.5493 263.241 18.5526C263.298 18.5591 263.374 18.5769 263.393 18.5979C263.579 18.7941 263.579 18.7958 263.768 18.8525C263.977 18.9157 264.194 18.9725 264.383 19.0438C264.554 19.107 264.725 19.0795 264.911 19.0795C265.052 19.0795 265.143 19.1217 265.131 19.1638C265.124 19.1881 265.071 19.2238 265.025 19.227C264.653 19.2595 264.277 19.287 263.901 19.3097C263.856 19.313 263.799 19.2838 263.746 19.2692C263.639 19.24 263.545 19.1946 263.431 19.1849C263.317 19.1751 263.184 19.1995 263.059 19.2076C262.933 19.2157 262.801 19.2368 262.687 19.2238C262.573 19.2108 262.482 19.1638 262.375 19.133C262.326 19.1184 262.258 19.0973 262.216 19.1022C261.939 19.1411 261.734 19.0876 261.536 19.0163C261.495 19.0017 261.423 18.9919 261.369 18.9952C260.929 19.0227 260.493 19.0552 260.052 19.086C259.874 19.0989 259.73 19.0422 259.692 18.9465C259.673 18.893 259.635 18.8395 259.635 18.786C259.635 18.6887 259.426 18.6352 259.274 18.6466C259.024 18.6628 258.769 18.6758 258.522 18.7001C258.321 18.7196 258.15 18.7001 258.014 18.6417C257.854 18.5753 257.672 18.5882 257.49 18.6061C257.353 18.619 257.315 18.6725 257.323 18.8071C257.33 18.9157 257.266 18.9498 257.019 18.9676C256.708 18.9903 256.393 19.013 256.078 19.0309C256.028 19.0341 255.971 19.0065 255.922 18.9919C255.816 18.9628 255.721 18.9157 255.607 18.906C255.493 18.8947 255.36 18.919 255.235 18.9287C255.11 18.9368 254.977 18.9595 254.863 18.9482C254.749 18.9368 254.654 18.8882 254.552 18.8574C254.502 18.8428 254.442 18.8217 254.392 18.8249C254.142 18.8379 253.891 18.8574 253.641 18.8752C253.36 18.8947 253.36 18.8947 252.961 18.7941C252.779 18.7487 252.597 18.7844 252.418 18.7974C252.229 18.8104 252.05 18.8168 251.902 18.752C251.803 18.7098 251.693 18.6839 251.576 18.692C251.261 18.7115 250.949 18.7358 250.634 18.7552C250.581 18.7585 250.509 18.7504 250.467 18.7358C250.266 18.6677 250.069 18.6142 249.788 18.6482C249.545 18.6774 249.283 18.679 249.04 18.7066C248.907 18.7212 248.846 18.7731 248.873 18.8136C248.888 18.8347 248.968 18.859 249.021 18.859C249.142 18.8606 249.275 18.8363 249.389 18.846C249.625 18.8655 249.742 19.0017 250.05 18.9644C250.232 18.9417 250.422 18.9336 250.612 18.9271C250.661 18.9255 250.714 18.9563 250.767 18.9725C250.919 19.0163 251.052 19.073 251.272 19.0438C251.454 19.0211 251.648 19.0146 251.834 19.0017C252.13 18.9806 252.13 18.9822 252.513 19.0811C252.696 19.1281 252.878 19.0908 253.056 19.0795C253.189 19.0714 253.314 19.0552 253.421 19.0779C253.584 19.1119 253.701 19.1897 253.903 19.1849C254.092 19.18 254.278 19.1573 254.468 19.1492C254.586 19.1443 254.696 19.1703 254.791 19.2141C254.89 19.2578 254.996 19.2773 255.125 19.2676C255.311 19.2546 255.501 19.2384 255.691 19.2303C255.744 19.2287 255.804 19.2432 255.854 19.2562C255.96 19.2854 256.063 19.3194 256.165 19.3502C256.351 19.3405 256.541 19.3373 256.723 19.3178C256.864 19.3032 256.962 19.3097 257.076 19.3422C257.22 19.3859 257.338 19.4638 257.573 19.4265C257.691 19.4086 257.828 19.4135 257.945 19.3973C258.09 19.3762 258.188 19.3843 258.291 19.4329C258.484 19.5254 258.727 19.527 258.978 19.4913C259.251 19.4524 259.456 19.4978 259.661 19.5691C259.878 19.6437 259.878 19.6421 260.045 19.8221C260.094 19.8739 260.234 19.8983 260.352 19.8885C260.549 19.8723 260.72 19.8804 260.865 19.942C261.016 20.0085 261.199 20.0004 261.385 19.9826C261.631 19.9583 261.878 19.9372 262.079 20.0312C262.178 20.0766 262.284 20.088 262.417 20.0766C262.793 20.0474 263.173 20.0296 263.541 19.9939C263.765 19.9712 263.894 20.0231 264.046 20.0669C264.251 20.1269 264.475 20.1804 264.475 20.3085C264.475 20.3295 264.528 20.3539 264.573 20.3701C264.672 20.4041 264.778 20.4333 264.881 20.4657C265.033 20.5144 265.181 20.5549 265.389 20.529C265.572 20.5079 265.765 20.5014 265.951 20.4868C266.137 20.4722 266.308 20.4641 266.475 20.5257C266.669 20.5954 266.874 20.6619 267.094 20.7138C267.249 20.7511 267.454 20.6879 267.621 20.7381C267.724 20.7689 267.823 20.8046 267.933 20.8305C267.978 20.8419 268.05 20.8338 268.111 20.8305C268.236 20.824 268.366 20.8192 268.487 20.803C268.627 20.7851 268.734 20.7884 268.84 20.8257C268.939 20.8597 269.037 20.9067 269.151 20.9165C269.322 20.931 269.512 20.8662 269.683 20.9408C269.77 20.9781 269.88 21.0137 269.994 21.0251C270.108 21.0364 270.241 21.0121 270.362 21.0137C270.415 21.0137 270.48 21.0397 270.51 21.0608C270.529 21.0721 270.503 21.1029 270.476 21.1191C270.442 21.1386 270.393 21.1645 270.343 21.1678C269.967 21.197 269.592 21.2213 269.216 21.2488C268.992 21.2651 268.992 21.265 268.54 21.1629C268.434 21.1386 268.316 21.1434 268.183 21.1548C268.005 21.1694 267.823 21.197 267.637 21.1678C267.394 21.0575 267.094 21.0478 266.775 21.0899C266.642 21.1078 266.521 21.1078 266.422 21.077C266.213 21.0154 265.993 20.9586 265.807 20.8857C265.663 20.8289 265.594 20.824 265.534 20.9019C265.515 20.9262 265.496 20.9521 265.499 20.9748C265.522 21.0559 265.564 21.1353 265.587 21.2164C265.594 21.2391 265.564 21.2651 265.545 21.2894C265.484 21.3575 265.405 21.3526 265.272 21.2958C265.139 21.2391 264.979 21.2018 264.767 21.2278C264.585 21.2505 264.387 21.2472 264.205 21.2715C263.924 21.3072 263.727 21.2553 263.526 21.1856C263.484 21.171 263.412 21.1629 263.359 21.1661C262.793 21.2034 262.231 21.2456 261.666 21.2829C261.544 21.291 261.434 21.2667 261.339 21.2229C261.24 21.1791 261.13 21.1564 261.009 21.1645C260.508 21.1986 260.007 21.2294 259.506 21.2715C259.301 21.2894 259.137 21.2683 258.997 21.2115C258.891 21.1694 258.792 21.1564 258.659 21.1613C258.515 21.1661 258.412 21.1824 258.34 21.2294C258.272 21.2748 258.321 21.3023 258.473 21.338C258.636 21.3769 258.788 21.4272 258.944 21.4726C259.069 21.4661 259.194 21.4531 259.316 21.4547C259.369 21.4547 259.418 21.4839 259.471 21.5001C259.623 21.5472 259.764 21.5942 259.98 21.5682C260.162 21.5455 260.356 21.5407 260.542 21.5261C260.8 21.5082 260.8 21.5082 261.218 21.6104C261.324 21.6363 261.438 21.6347 261.574 21.6201C261.692 21.6088 261.814 21.6315 261.897 21.6801C261.931 21.6996 261.92 21.732 261.848 21.839C261.848 21.9184 261.927 21.8828 261.954 21.8309C261.996 21.7563 261.916 21.732 261.764 21.7725C261.658 21.8017 261.605 21.8439 261.631 21.8779C261.647 21.8957 261.719 21.9184 261.848 21.839C262.182 21.7417 262.436 21.7304 262.679 21.7044C262.823 21.6898 262.914 21.6963 263.028 21.7385C263.165 21.7887 263.302 21.8422 263.526 21.8163C263.769 21.7871 264.027 21.7839 264.273 21.7595C264.501 21.7368 264.619 21.8082 264.763 21.8503C264.938 21.9006 265.131 21.8439 265.291 21.873C265.458 21.9022 265.575 21.9736 265.769 21.9865C266.05 21.9428 266.228 22.0238 266.441 22.0773C266.608 22.1179 266.805 22.0822 266.984 22.0644C267.185 22.0449 267.352 22.0627 267.492 22.1211C267.652 22.1876 267.83 22.173 268.012 22.1584C268.438 22.126 268.453 22.1211 268.699 22.2103C268.878 22.2751 269.049 22.246 269.227 22.2378C269.383 22.2816 269.535 22.3286 269.698 22.3675C269.74 22.3773 269.819 22.3611 269.884 22.3562C270.07 22.3432 270.26 22.3303 270.446 22.3173C270.571 22.3092 270.704 22.2849 270.818 22.2946C270.932 22.3059 271.027 22.353 271.129 22.3838C271.231 22.4146 271.338 22.4454 271.436 22.4778C271.588 22.5264 271.733 22.567 271.945 22.5427C272.127 22.5216 272.317 22.5151 272.507 22.5005C272.746 22.4827 272.738 22.4875 273.183 22.5848C273.422 22.6383 273.668 22.5735 273.911 22.567C274.033 22.5637 274.151 22.5816 274.234 22.6286C274.268 22.648 274.257 22.6805 274.268 22.708C273.642 22.7518 273.012 22.7891 272.393 22.8426C272.154 22.8637 272.029 22.8053 271.9 22.7567C271.687 22.6788 271.406 22.7923 271.205 22.6918C271.083 22.6318 270.909 22.5978 270.7 22.627C270.579 22.6432 270.449 22.6415 270.324 22.6561C270.005 22.6918 269.713 22.6934 269.459 22.5816C269.371 22.5427 269.246 22.5216 269.155 22.4843C269.049 22.4438 268.946 22.421 268.821 22.4292C268.255 22.4681 267.694 22.507 267.132 22.5491C267.082 22.5524 267.033 22.5767 266.991 22.5945C266.885 22.6399 266.919 22.6756 267.09 22.7048C267.147 22.7145 267.193 22.7356 267.246 22.7518C267.348 22.7826 267.443 22.8312 267.557 22.8426C267.671 22.8539 267.804 22.8312 267.929 22.8231C268.054 22.815 268.187 22.7907 268.301 22.8004C268.415 22.8118 268.51 22.8588 268.616 22.888C268.665 22.9026 268.726 22.9269 268.775 22.9253C269.026 22.9156 269.273 22.8977 269.523 22.8831C269.679 22.9269 269.812 22.9901 269.998 23.0047C270.115 23.0145 270.241 22.9966 270.362 22.9999C270.415 23.0015 270.484 23.0258 270.51 23.0469C270.525 23.0599 270.476 23.0923 270.438 23.1085C270.294 23.1701 270.097 23.1587 269.918 23.1782C269.724 23.1993 269.55 23.1928 269.402 23.1296C269.303 23.0874 269.193 23.0647 269.071 23.0728C268.756 23.0939 268.445 23.1182 268.13 23.1361C268.077 23.1393 268.012 23.1247 267.963 23.1134C267.565 23.0145 267.564 23.0112 267.284 23.0323C266.87 23.0631 266.87 23.0631 266.593 22.9772C266.54 22.9609 266.483 22.9302 266.437 22.9318C265.997 22.9577 265.56 22.9836 265.124 23.0209C264.979 23.0323 264.881 23.0323 264.774 22.9901C264.683 22.9545 264.577 22.9139 264.463 22.9042C264.345 22.8945 264.216 22.9188 264.091 22.9269C263.966 22.935 263.833 22.9561 263.723 22.9431C263.609 22.9301 263.51 22.8848 263.412 22.8523C263.309 22.8183 263.199 22.8199 263.059 22.8329C262.626 22.8702 262.622 22.8653 262.193 22.7648C262.144 22.7534 262.079 22.7405 262.026 22.7437C261.711 22.7632 261.4 22.7875 261.085 22.8069C260.963 22.815 260.846 22.794 260.762 22.7469C260.728 22.7275 260.739 22.695 260.717 22.6318C260.69 22.6172 260.72 22.6432 260.728 22.6675C260.785 22.6643 260.853 22.6675 260.895 22.6545C261.001 22.6237 261.054 22.5832 261.028 22.5491C261.013 22.5313 260.941 22.5086 260.895 22.5086C260.811 22.5086 260.739 22.5443 260.717 22.6318C260.477 22.6853 260.223 22.6967 259.976 22.7226C259.832 22.7388 259.741 22.7307 259.627 22.6886C259.49 22.6367 259.35 22.5864 259.126 22.6124C258.883 22.6415 258.625 22.6464 258.374 22.6691C258.086 22.6951 257.961 22.5491 257.718 22.5524C257.467 22.5556 257.217 22.5832 256.966 22.6026C256.746 22.6189 256.746 22.6188 256.29 22.5135C256.123 22.4746 255.926 22.5313 255.763 22.4908C255.653 22.4648 255.558 22.4259 255.451 22.3984C255.406 22.387 255.334 22.387 255.277 22.3902C254.962 22.4097 254.643 22.4227 254.339 22.4583C253.994 22.5005 253.732 22.4551 253.485 22.3594C253.174 22.3773 252.859 22.387 252.551 22.4178C252.327 22.4405 252.198 22.387 252.046 22.3432C251.993 22.3286 251.948 22.3043 251.891 22.2978C251.834 22.2913 251.765 22.3043 251.705 22.3092C251.454 22.327 251.196 22.3351 250.953 22.3643C250.653 22.4016 250.539 22.2686 250.308 22.2524C250.152 22.3319 250.069 22.4405 249.761 22.4486C249.511 22.4551 249.26 22.481 249.01 22.4989C248.884 22.507 248.759 22.5167 248.634 22.5248C248.433 22.5394 248.338 22.6026 248.38 22.6999C248.402 22.7534 248.421 22.8069 248.44 22.8604C248.478 22.9561 248.383 23.0372 248.224 23.0485C247.783 23.0793 247.347 23.1117 246.907 23.1393C246.789 23.1474 246.675 23.1198 246.58 23.0761C246.481 23.0323 246.371 23.0128 246.25 23.0209C245.81 23.0517 245.373 23.0842 244.933 23.1117C244.883 23.115 244.819 23.0988 244.77 23.0858C244.663 23.0566 244.561 23.0226 244.458 22.9918C244.208 23.0064 243.961 23.0161 243.714 23.0355C243.316 23.0647 243.316 23.0663 243.023 22.9772C242.97 22.9609 242.917 22.9302 242.868 22.9318C242.678 22.9383 242.492 22.9545 242.302 22.9691C241.744 23.0112 241.744 23.0112 241.581 22.9626C241.433 22.9172 241.3 22.8621 241.076 22.888C240.833 22.9172 240.575 22.9269 240.324 22.9431C240.138 22.9545 239.952 22.9674 239.766 22.9707C239.717 22.9723 239.664 22.9415 239.611 22.9253C239.459 22.875 239.311 22.8345 239.102 22.8621C238.981 22.8783 238.851 22.8815 238.726 22.8896C238.4 22.9123 238.4 22.9123 237.864 22.815C237.811 22.8053 237.747 22.794 237.694 22.7988C237.253 22.828 236.817 22.8604 236.376 22.888C236.323 22.8912 236.259 22.8815 236.206 22.8734C235.606 22.7794 235.606 22.7794 234.968 22.8248C234.725 22.841 234.718 22.8475 234.463 22.7615C234.349 22.7242 234.255 22.7064 234.122 22.7178C233.621 22.7567 233.116 22.7826 232.618 22.828C232.395 22.8475 232.265 22.7988 232.114 22.755C232.06 22.7404 232.004 22.708 231.958 22.7097C231.457 22.7405 230.956 22.7778 230.455 22.8086C230.409 22.8118 230.352 22.7794 230.299 22.7648C230.197 22.7356 230.098 22.6918 229.984 22.6821C229.866 22.6724 229.737 22.6967 229.608 22.7048C229.293 22.7259 229.293 22.7242 228.929 22.6286C228.879 22.6156 228.815 22.5978 228.765 22.601C228.264 22.6334 227.76 22.661 227.262 22.708C226.978 22.734 226.784 22.6869 226.583 22.6189C226.541 22.6043 226.469 22.5978 226.416 22.601C225.85 22.6383 225.288 22.6805 224.723 22.7178C224.605 22.7259 224.491 22.6983 224.396 22.6561C224.244 22.5897 224.066 22.5978 223.876 22.6124C223.44 22.6464 223.436 22.6448 223.178 22.567C223.125 22.5508 223.079 22.5297 223.022 22.5216C222.969 22.5135 222.901 22.5183 222.844 22.5216C222.593 22.5378 222.343 22.5556 222.092 22.5735C221.842 22.5913 221.587 22.601 221.34 22.6286C221.037 22.6626 220.893 22.5572 220.68 22.5086C220.369 22.5297 220.05 22.5426 219.742 22.5767C219.507 22.6026 219.397 22.5313 219.241 22.494C219.188 22.481 219.131 22.4535 219.082 22.4567C218.516 22.4924 217.951 22.5313 217.389 22.5751C217.252 22.5848 217.161 22.5718 217.047 22.5329C216.793 22.4454 216.781 22.4486 216.356 22.481C216.17 22.4956 215.992 22.5086 215.832 22.4421C215.692 22.3821 215.521 22.3675 215.32 22.387C215.073 22.4113 214.819 22.4243 214.568 22.4405C214.318 22.4583 214.067 22.4827 213.817 22.4908C213.616 22.4989 213.494 22.4227 213.335 22.3838C213.285 22.3724 213.217 22.3708 213.16 22.374C212.91 22.3886 212.651 22.4 212.409 22.4275C212.112 22.4616 211.949 22.3724 211.74 22.3205C211.695 22.3092 211.619 22.3157 211.562 22.3205C211.122 22.3497 210.685 22.3821 210.245 22.4129C210.089 22.3692 209.93 22.327 209.774 22.2832C209.523 22.2995 209.273 22.3173 209.022 22.3335C208.833 22.3465 208.639 22.3513 208.461 22.3757C208.229 22.4081 208.115 22.3319 207.959 22.2946C207.906 22.2816 207.849 22.2541 207.8 22.2573C207.485 22.2751 207.17 22.2946 206.859 22.3222C206.563 22.3497 206.445 22.2038 206.202 22.2054C205.951 22.207 205.693 22.2281 205.45 22.2573C205.169 22.2913 204.972 22.2395 204.771 22.1697C204.729 22.1551 204.657 22.147 204.604 22.1503C204.289 22.1697 203.978 22.1941 203.662 22.2135C203.609 22.2168 203.545 22.2087 203.492 22.1989C202.892 22.1033 202.892 22.1017 202.63 22.1211C202.444 22.1341 202.254 22.1503 202.064 22.1584C202.011 22.1616 201.947 22.147 201.897 22.1341C201.502 22.0352 201.502 22.0336 201.218 22.053C200.967 22.0708 200.717 22.0887 200.466 22.1065C200.311 22.0627 200.151 22.0206 199.995 21.9768C199.684 21.9979 199.365 22.0141 199.058 22.0433C198.914 22.0562 198.819 22.0514 198.709 22.0109C198.572 21.9622 198.435 21.9055 198.208 21.933C197.965 21.9622 197.706 21.9655 197.46 21.9898C197.164 22.019 197.042 21.8714 196.803 21.873C196.553 21.8747 196.294 21.8957 196.051 21.9249C195.771 21.959 195.573 21.9071 195.372 21.8374C195.33 21.8228 195.258 21.8147 195.205 21.8179C194.514 21.8649 193.827 21.9119 193.136 21.9622C192.711 21.993 192.711 21.9946 191.902 21.9055C191.845 21.899 191.785 21.8925 191.728 21.8957C191.477 21.9103 191.219 21.9217 190.976 21.9492C190.68 21.9833 190.517 21.8957 190.308 21.8422C190.262 21.8309 190.19 21.8374 190.13 21.8406C189.94 21.852 189.754 21.8666 189.564 21.8795C189.313 21.8974 189.063 21.9152 188.812 21.933C188.657 21.8909 188.497 21.8471 188.342 21.8049C188.03 21.826 187.712 21.8374 187.404 21.8714C187.169 21.8974 187.059 21.8293 186.903 21.7904C186.85 21.7774 186.793 21.7498 186.744 21.7514C186.178 21.7871 185.612 21.8244 185.051 21.8698C184.819 21.8893 184.713 21.8163 184.557 21.779C184.504 21.7676 184.443 21.7466 184.394 21.7498C184.018 21.7725 183.642 21.8001 183.267 21.8276C183.054 21.8439 183.054 21.8439 182.591 21.7433C182.538 21.732 182.477 21.7206 182.424 21.7239C181.232 21.8049 180.044 21.8909 178.852 21.9719C178.73 21.9801 178.62 21.9557 178.525 21.912C178.427 21.8682 178.316 21.8455 178.195 21.8536C177.694 21.8876 177.189 21.9184 176.692 21.9606C176.487 21.9784 176.324 21.9573 176.183 21.9006C176.077 21.8584 175.978 21.8422 175.845 21.852C175.595 21.8714 175.344 21.8876 175.094 21.9055C174.843 21.9233 174.593 21.9411 174.342 21.959C174.092 21.9768 173.837 21.9865 173.59 22.0141C173.287 22.0481 173.139 21.9476 172.93 21.8974C172.554 21.9217 172.178 21.946 171.806 21.9719C171.305 22.006 170.804 22.0433 170.303 22.0757C170.258 22.079 170.201 22.0498 170.147 22.0352C169.992 21.9946 169.878 21.9379 169.646 21.9557C168.523 22.0417 167.392 22.1146 166.264 22.1989C166.029 22.2168 165.926 22.147 165.767 22.1098C165.714 22.0984 165.653 22.0757 165.604 22.079C164.977 22.1195 164.351 22.1649 163.725 22.2087C163.47 22.2265 163.47 22.2265 163.045 22.126C162.996 22.1146 162.931 22.1 162.878 22.1033C162.062 22.1584 161.25 22.2168 160.433 22.2735C160.312 22.2816 160.202 22.2589 160.103 22.2151C160.008 22.1714 159.894 22.147 159.777 22.1552C159.025 22.207 158.27 22.2573 157.522 22.314C157.321 22.3303 157.154 22.3157 157.009 22.2573C156.907 22.2151 156.804 22.1973 156.675 22.207C155.548 22.2865 154.421 22.3627 153.293 22.447C153.077 22.4632 152.925 22.4324 152.788 22.3789C152.678 22.3367 152.583 22.3286 152.447 22.3351C152.302 22.3432 152.215 22.3611 152.135 22.4097C152.033 22.4729 151.968 22.5524 151.725 22.5572C151.475 22.5621 151.221 22.5816 150.974 22.6091C150.738 22.6367 150.628 22.5637 150.48 22.52C150.37 22.4891 150.268 22.4843 150.127 22.4989C149.998 22.5118 149.919 22.5394 149.843 22.5913C149.676 22.7015 149.66 22.7015 149.455 22.6318C149.345 22.5945 149.247 22.5653 149.125 22.5718C148.624 22.6043 148.123 22.6399 147.622 22.6772C147.333 22.6983 147.33 22.7015 147.113 22.6205C147.007 22.5799 146.904 22.5605 146.779 22.5702C145.401 22.6675 144.023 22.7615 142.645 22.8637C142.433 22.8799 142.289 22.8458 142.137 22.7972C142.087 22.781 142.038 22.7583 141.981 22.7518C141.924 22.7453 141.86 22.7518 141.799 22.755C140.797 22.8248 139.791 22.8912 138.792 22.9691C138.565 22.9869 138.443 22.935 138.288 22.8929C138.234 22.8783 138.189 22.8556 138.132 22.8491C138.075 22.8442 138.007 22.8556 137.946 22.8604C136.944 22.9301 135.938 22.9966 134.939 23.0745C134.7 23.0923 134.598 23.0242 134.442 22.9885C134.389 22.9756 134.332 22.9512 134.283 22.9545C133.968 22.9723 133.656 22.9966 133.341 23.0177C132.59 23.0712 131.838 23.1215 131.086 23.1766C130.798 23.1977 130.673 23.0534 130.43 23.0598C130.115 23.068 129.803 23.1004 129.488 23.1231C129.238 23.1409 128.987 23.1571 128.737 23.1766C128.49 23.1944 128.49 23.1944 127.875 23.1004C127.822 23.0923 127.757 23.0809 127.704 23.0842C126.827 23.1442 125.947 23.2042 125.074 23.269C124.872 23.2836 124.705 23.2755 124.561 23.2155C124.459 23.1734 124.352 23.1523 124.227 23.162C122.91 23.2544 121.596 23.3468 120.279 23.4376C120.23 23.4409 120.165 23.4247 120.116 23.4117C120.01 23.3825 119.907 23.3485 119.805 23.3177C119.729 23.3549 119.63 23.389 119.581 23.4311C119.512 23.4879 119.421 23.5041 119.277 23.5138C119.133 23.5236 119.042 23.5203 118.928 23.4782C118.791 23.4263 118.651 23.3857 118.427 23.4019C117.049 23.5041 115.671 23.5965 114.293 23.697C114.065 23.7133 113.959 23.6419 113.799 23.6046C113.746 23.5933 113.686 23.5754 113.636 23.5787C113.071 23.616 112.509 23.6565 111.943 23.6954C110.375 23.8057 108.808 23.9111 107.244 24.0278C106.959 24.0489 106.765 24.0083 106.564 23.9386C106.523 23.924 106.45 23.9159 106.397 23.9192C104.203 24.0716 102.009 24.2256 99.8187 24.3796C99.7011 24.3877 99.5871 24.3618 99.4922 24.3196C99.3935 24.2758 99.2835 24.2548 99.162 24.2629C98.1599 24.3326 97.1578 24.4023 96.1556 24.4737C95.9051 24.4915 95.9013 24.4931 95.6431 24.4153C95.59 24.3991 95.5331 24.3683 95.4913 24.3715C95.404 24.3796 95.3205 24.4201 95.2597 24.4753C95.199 24.5336 95.1041 24.5499 94.9636 24.5612C94.8194 24.5726 94.7245 24.5677 94.6144 24.5288C94.474 24.4801 94.3449 24.4331 94.1171 24.4493C91.2359 24.6569 88.3548 24.8563 85.4736 25.0622C85.242 25.0784 85.1357 25.0103 84.9763 24.973C84.9231 24.9617 84.87 24.9455 84.8131 24.9422C84.7524 24.939 84.6878 24.9487 84.6271 24.9536C79.9276 25.2827 75.2282 25.6134 70.5287 25.9426C70.2478 25.962 70.2516 25.962 69.9441 26.1112C69.9062 26.129 69.8568 26.1533 69.8036 26.1566C68.365 26.2603 66.9225 26.3609 65.48 26.4614C64.8537 26.5052 64.2274 26.5506 63.601 26.5927C63.3771 26.6073 63.3771 26.6073 62.8418 26.7824C62.7963 26.797 62.7431 26.8165 62.6899 26.8197C60.1845 26.9964 57.6792 27.1732 55.17 27.3467C54.9726 27.3596 54.8132 27.3888 54.7221 27.4666C54.6576 27.5218 54.5741 27.5542 54.4488 27.5639C52.695 27.6871 50.9413 27.812 49.1838 27.932C48.975 27.9465 48.8497 27.9919 48.7472 28.06C48.713 28.0827 48.6826 28.1087 48.6333 28.1249C48.5877 28.1395 48.5194 28.1443 48.4625 28.1492C46.9592 28.2546 45.4561 28.3632 43.9491 28.4638C43.7251 28.4783 43.6339 28.5383 43.5239 28.6016C43.4859 28.6226 43.4593 28.6518 43.41 28.6664C43.3606 28.6794 43.2885 28.6794 43.2278 28.6826C41.9751 28.7702 40.7224 28.8594 39.4697 28.9469C39.2268 28.9388 39.1736 29.0328 39.0559 29.0896C39.0142 29.109 38.9839 29.135 38.9345 29.1479C38.8814 29.1609 38.813 29.1593 38.7484 29.1625C37.7463 29.2323 36.7442 29.3068 35.7382 29.3717C35.5067 29.3863 35.4611 29.469 35.3358 29.5257C35.2941 29.5435 35.2524 29.5711 35.203 29.576C34.5767 29.623 33.9504 29.6668 33.324 29.7089C33.1152 29.7235 33.1152 29.7219 32.747 29.8824C32.7053 29.9002 32.6559 29.9197 32.6027 29.9246C31.6651 29.9927 30.7237 30.0575 29.7823 30.124C29.6608 30.1321 29.5773 30.171 29.5166 30.2261C29.4559 30.2813 29.3686 30.3169 29.2471 30.325C28.4955 30.3785 27.7438 30.4337 26.9922 30.4823C26.7834 30.4953 26.6468 30.5358 26.5557 30.6088C26.4874 30.6639 26.4039 30.6914 26.271 30.7012C25.5194 30.7531 24.7678 30.8098 24.0124 30.8552C23.7922 30.8682 23.6783 30.9233 23.5872 30.9914C23.5151 31.0465 23.4315 31.066 23.2911 31.0757C21.9131 31.1697 20.5314 31.2638 19.1573 31.3675C18.9257 31.3854 18.808 31.3286 18.6562 31.2881C18.4398 31.2313 18.2387 31.1697 18.2387 31.0433C18.2387 31.0238 18.1741 31.0011 18.1286 30.9849C17.7907 30.8633 17.7907 30.8633 17.7376 30.7336C17.7072 30.6542 17.673 30.5731 17.6465 30.492C17.5971 30.3591 17.4756 30.325 17.1264 30.3494C17.0011 30.3575 16.8758 30.3688 16.7506 30.3753C16.5646 30.3866 16.4241 30.3331 16.39 30.2359C16.371 30.1823 16.3482 30.1288 16.3293 30.0753C16.5191 30.0624 16.5152 30.0608 16.8493 29.8646C16.9897 29.7819 16.9898 29.7819 16.7203 29.6992C16.6178 29.6684 16.519 29.6343 16.409 29.6052C16.3596 29.5922 16.2951 29.5841 16.242 29.5873C15.9269 29.6068 15.6156 29.6295 15.3044 29.6522C14.8033 29.6878 14.8032 29.6878 14.2946 29.5225C14.2528 29.5095 14.1883 29.4852 14.1959 29.4722C14.2376 29.4122 14.3401 29.3863 14.4692 29.3798C14.659 29.3701 14.845 29.3538 15.031 29.3409C15.1562 29.3328 15.2815 29.3231 15.4068 29.3149C15.5244 29.2533 15.646 29.1933 15.7561 29.1301C15.9307 29.0328 15.9306 29.0296 15.6915 28.9615C15.5396 28.9161 15.3764 28.8756 15.2208 28.8334C15.0348 28.8464 14.845 28.861 14.659 28.8723C14.4236 28.8869 14.3287 28.8561 14.268 28.7507C14.2148 28.6583 14.2794 28.5789 14.4616 28.5594C14.6476 28.5399 14.8223 28.527 14.9172 28.4443C15.0083 28.3649 15.1677 28.334 15.3651 28.3275C15.4903 28.3227 15.6156 28.3113 15.7409 28.3016C15.9041 28.2886 15.9914 28.206 15.9573 28.1135C15.9383 28.0535 15.9003 28.0033 15.7523 27.9903C15.0955 27.9336 15.0879 27.9352 14.7615 27.8249C14.7311 27.8152 14.7084 27.786 14.7198 27.7714C14.7387 27.7471 14.7805 27.7114 14.8261 27.7066C15.2626 27.6709 15.6991 27.6385 16.1357 27.6142C16.2799 27.6061 16.3862 27.5947 16.4356 27.5347C16.5039 27.452 16.4735 27.3758 16.3407 27.3191C16.2989 27.3012 16.2305 27.2786 16.185 27.2802C15.6839 27.3094 15.1866 27.3466 14.6856 27.3758C14.64 27.3791 14.5565 27.3515 14.5376 27.3304C14.4996 27.2915 14.5565 27.2396 14.6894 27.2218C14.864 27.1975 15.0424 27.1959 15.1601 27.1148C15.3233 26.9997 15.5245 26.8943 15.7067 26.7841C15.737 26.7646 15.7864 26.7273 15.7751 26.724C15.6802 26.6884 15.5701 26.6608 15.4714 26.6268C15.3043 26.57 15.3043 26.4906 15.3423 26.4144C15.3726 26.3528 15.4865 26.3285 15.627 26.3285C15.6877 26.3285 15.7636 26.3285 15.813 26.3139C15.942 26.2782 15.9838 26.2328 15.9193 26.1987C15.8813 26.1793 15.813 26.1517 15.7675 26.155C14.9551 26.2085 14.1389 26.2604 13.3304 26.3268C13.0912 26.3463 12.9812 26.2847 12.8369 26.2409C12.7269 26.2068 12.6243 26.1939 12.4877 26.2182C12.3586 26.2409 12.2334 26.2279 12.1536 26.1744C12.0891 26.1307 12.203 26.0934 12.5105 26.0512C12.5674 26.0431 12.6319 26.0382 12.6737 26.022C13.114 25.8469 13.114 25.8453 13.4177 25.8226C13.7137 25.8015 13.7138 25.7999 13.8695 25.7059C13.9416 25.6621 14.0212 25.6183 14.0896 25.5729C14.1161 25.5551 14.1617 25.5226 14.1466 25.5129C14.063 25.4627 13.9491 25.4513 13.8163 25.4627C13.5202 25.4902 13.171 25.4675 13.0153 25.6216C12.9546 25.6799 12.8597 25.6961 12.723 25.7059C11.3489 25.7999 9.97469 25.9004 8.59674 25.9912C8.37277 26.0058 8.27034 26.0658 8.18303 26.1323C8.10711 26.1874 8.02358 26.2036 7.87933 26.2133C7.73509 26.2231 7.62115 26.2279 7.53764 26.1744C7.48829 26.142 7.53006 26.0966 7.64394 26.0512C7.80717 25.9864 7.77678 25.9053 7.72364 25.8291C7.68568 25.7788 7.56801 25.7432 7.44274 25.7464C7.25673 25.7529 7.07837 25.7707 6.92273 25.7059C6.83163 25.6686 6.71772 25.6426 6.61523 25.6102C6.41784 25.5437 6.22044 25.4756 5.94333 25.5194C5.75353 25.5032 5.62067 25.4448 5.46883 25.3994C5.2145 25.3249 5.19172 25.3135 5.37393 25.2341C5.57891 25.1449 5.41945 25.0281 5.53333 24.9406C5.6548 24.8466 5.82188 24.7639 5.96993 24.6763C6.00789 24.6536 6.04207 24.6325 6.08003 24.6098C5.99272 24.5774 5.91302 24.5369 5.81053 24.5142C5.67767 24.485 5.60933 24.4493 5.61693 24.3488C5.59035 24.3342 5.60166 24.3715 5.63203 24.3812C5.6662 24.391 5.74977 24.3829 5.79153 24.3715C5.89782 24.3407 5.9509 24.3002 5.92433 24.2661C5.90915 24.2483 5.83708 24.2256 5.79153 24.2256C5.70801 24.2256 5.6359 24.2613 5.61313 24.3488C5.18797 24.4153 4.74756 24.4477 4.30723 24.4737C4.26167 24.4769 4.20477 24.4445 4.15162 24.4283C3.97701 24.3731 3.97699 24.3747 3.46452 24.3585C3.41138 24.3569 3.33929 24.3342 3.31272 24.3115C3.20264 24.2126 3.20646 24.104 3.15332 23.9986C3.25201 23.9305 3.35063 23.864 3.45312 23.7976C3.65811 23.663 3.92389 23.5446 4.08332 23.3971C4.04916 23.3177 4.0036 23.2382 4.17062 23.1734C4.64512 23.0923 4.64136 23.0923 4.77042 23.0145C5.13864 22.794 5.50303 22.5718 5.88643 22.3546C5.98892 22.2978 5.98893 22.267 5.80673 22.2427C5.74979 22.2362 5.68897 22.2346 5.62823 22.2378C5.43843 22.2492 5.24863 22.2784 5.06263 22.2719C4.87663 22.267 4.73997 22.1957 4.58813 22.1519C4.43249 22.1065 4.27686 22.0595 4.12123 22.0125C3.94281 22.0173 3.76443 22.0627 3.58602 21.9898C3.44937 21.933 3.27856 21.8925 3.12292 21.8455C3.2406 21.7223 3.4608 21.6282 3.63162 21.5196C3.78725 21.4207 3.79097 21.4223 4.20853 21.3461C4.40592 21.3104 4.47425 21.1272 4.30723 21.0737C4.10604 21.0089 3.89351 20.9489 3.68852 20.8873C3.51011 20.8921 3.32794 20.9359 3.15712 20.863C3.02426 20.8078 2.87239 20.7705 2.65222 20.7916C2.28021 20.8273 1.90062 20.8451 1.52481 20.8743C1.39575 20.884 1.25526 20.8776 1.19832 20.8224C1.16035 20.7835 1.27045 20.73 1.39572 20.7187C1.58552 20.7024 1.75632 20.683 1.85122 20.6019C1.94232 20.5209 2.10933 20.4965 2.30672 20.4852C2.35987 20.4819 2.42065 20.4625 2.44722 20.443C2.58387 20.349 2.73573 20.2679 3.02802 20.2712C3.14949 20.2387 3.21398 20.1982 3.17602 20.1593C3.15325 20.1382 3.07357 20.1107 3.02802 20.1139C2.71295 20.1301 2.39789 20.1463 2.09042 20.1755C1.94617 20.1885 1.83602 20.1917 1.74492 20.1431C1.68039 20.1107 1.71455 20.0669 1.83602 20.0199C1.94231 19.9793 1.97271 19.9323 1.96512 19.8772C1.94614 19.7491 1.83223 19.7118 1.46782 19.7199C1.20589 19.7264 1.14136 19.7053 1.08442 19.5951C1.06923 19.5691 1.03134 19.5335 1.05791 19.5156C1.22114 19.4054 1.32744 19.2692 1.63491 19.2173C1.75638 19.1979 1.8854 19.1979 1.96132 19.1557C2.03724 19.1135 2.1056 19.0649 2.18532 19.0244C2.28401 18.9757 2.35227 18.9303 2.30672 18.8995C2.2308 18.8444 2.10937 18.8395 1.96892 18.859C1.84744 18.8752 1.71838 18.8768 1.59312 18.8866C1.36915 18.9044 1.18698 18.8622 1.16041 18.7909C1.08829 18.6028 1.01234 18.4164 0.947812 18.2283C0.94022 18.2056 0.959148 18.1764 0.989516 18.157C1.0958 18.0889 1.20973 18.024 1.31981 17.9575C1.44888 17.8813 1.6539 17.8959 1.82851 17.8813C2.07525 17.8603 2.07517 17.8619 2.40542 17.7062C2.53449 17.6446 2.75846 17.6689 2.89132 17.6138C2.93308 17.596 2.99761 17.5668 2.98622 17.5506C2.97104 17.5295 2.89516 17.5133 2.83822 17.5036C2.78507 17.4938 2.72056 17.489 2.66362 17.4938C1.97274 17.5409 1.28568 17.5911 0.594808 17.6365C0.477132 17.6446 0.348064 17.609 0.306308 17.5587C0.264552 17.5117 0.275903 17.4549 0.268311 17.4014C0.378395 17.3349 0.503615 17.2733 0.598515 17.202C0.67064 17.1469 0.754167 17.1225 0.898415 17.1193C1.08822 17.1144 1.27424 17.095 1.48682 17.0804C1.8816 16.8437 2.26877 16.5956 2.69392 16.3589C2.86474 16.2632 2.82305 16.166 2.85722 16.0638C2.89138 15.9698 3.1457 15.9844 3.31652 15.9568C3.45318 15.9341 3.49867 15.8822 3.44552 15.8466C3.41516 15.8255 3.34687 15.8012 3.29372 15.8012C3.16845 15.8012 3.04319 15.8158 2.91792 15.8239C2.79265 15.832 2.64841 15.8271 2.54592 15.8547C2.44722 15.8806 2.38265 15.9357 2.31812 15.9827C2.246 16.0346 2.15116 16.0525 2.00691 16.0557C1.82091 16.059 1.63492 16.0735 1.44891 16.0849C1.24393 16.0217 1.03131 15.9601 0.833913 15.8936C0.795953 15.8806 0.78832 15.8433 0.792116 15.819C0.799708 15.7558 0.742782 15.7169 0.617514 15.686C0.511226 15.6601 0.42391 15.6228 0.325214 15.5904C0.401134 15.5466 0.484676 15.5045 0.545412 15.4574C0.678272 15.3585 0.845316 15.2872 1.13381 15.2905C1.24769 15.2272 1.33877 15.1494 1.48682 15.1056C1.62727 15.0635 1.86643 15.1056 1.97272 15.0099C2.02586 14.9629 2.10562 14.9094 2.20811 14.89C2.37134 14.8592 2.58392 14.8754 2.67882 14.7846C2.73576 14.7327 2.81923 14.6857 2.92932 14.6727C3.05459 14.6581 3.18362 14.6549 3.27472 14.6241C3.32407 14.6079 3.37722 14.5819 3.37722 14.5592C3.37722 14.5446 3.30136 14.5219 3.24822 14.5122C3.19887 14.5009 3.13426 14.4928 3.07732 14.496C2.88752 14.5057 2.70152 14.5236 2.51172 14.5333C2.45858 14.5365 2.39786 14.5252 2.34092 14.5155C2.17389 14.4895 2.18526 14.4571 2.31812 14.3987C2.45098 14.342 2.54593 14.269 2.65602 14.2025C2.77749 14.1912 2.92931 14.196 3.01282 14.1652C3.15327 14.115 3.25194 14.042 3.36582 13.9788C3.49109 13.9691 3.62015 13.9658 3.73783 13.948C3.78717 13.9415 3.80997 13.9058 3.85172 13.8848C3.92764 13.8442 3.99223 13.7859 4.09472 13.7664C4.26175 13.7372 4.46673 13.7486 4.56542 13.6594C4.62236 13.6075 4.70964 13.5524 4.81593 13.5491C5.11201 13.5427 5.23729 13.4535 5.38913 13.3692C5.50301 13.3059 5.74596 13.3384 5.87123 13.2751C5.95474 13.2346 6.01551 13.1843 6.09903 13.1454C6.13319 13.1292 6.20529 13.1211 6.26223 13.1162C6.5735 13.0919 6.88856 13.0741 7.19983 13.0481C7.24918 13.0433 7.29477 13.019 7.33273 12.9995C7.41245 12.9574 7.46174 12.899 7.56044 12.8714C7.65913 12.8439 7.79957 12.8439 7.92104 12.8358C8.31203 12.8114 8.34243 12.8179 8.52084 12.6801C8.66509 12.5682 9.01816 12.6477 9.13584 12.5245C9.20416 12.4531 9.32938 12.3948 9.55334 12.3866C9.86841 12.3753 10.1797 12.3445 10.4947 12.3234C10.7757 12.304 10.7719 12.304 11.0755 12.1532C11.2122 12.0851 11.4134 12.0948 11.5918 12.0818C11.7816 12.0689 11.9562 12.0494 12.0473 11.9684C12.1385 11.8889 12.3055 11.863 12.4991 11.8516C12.6775 11.8403 12.8787 11.8484 13.0191 11.7835C13.3608 11.6279 13.357 11.6262 13.5962 11.61C13.972 11.5841 14.3478 11.5581 14.7236 11.5306C14.9741 11.5127 15.236 11.5095 15.4714 11.4738C15.6422 11.4479 15.7181 11.3571 15.8282 11.2939C16.1394 11.2696 16.4507 11.2452 16.762 11.2225C17.1985 11.1901 17.6388 11.1609 18.0792 11.1301C18.269 11.0685 18.2956 10.9323 18.6145 10.9258C18.8043 10.9226 18.9903 10.9015 19.1801 10.8885C19.4951 10.8658 19.8064 10.8367 20.1215 10.8253C20.3606 10.8172 20.4023 10.7296 20.5276 10.6745C20.5693 10.6551 20.6073 10.6275 20.6567 10.6226C21.1502 10.5772 21.6588 10.5675 22.1409 10.501C22.1902 10.4946 22.2358 10.4605 22.2472 10.4362C22.2548 10.4232 22.1902 10.3989 22.1485 10.3876C22.0991 10.3746 22.0346 10.3616 21.9815 10.3649C20.4137 10.4735 18.846 10.5837 17.2783 10.6924C17.0581 10.7086 17.0581 10.707 16.5229 10.8853C16.4773 10.8999 16.4241 10.9161 16.3672 10.921C16.1166 10.9404 15.8623 10.9518 15.6156 10.9761C15.4144 10.9956 15.2474 10.9761 15.1032 10.9177C15.0007 10.8756 14.8943 10.8626 14.7653 10.8658C14.621 10.8707 14.5262 10.8885 14.4427 10.9323C14.3326 10.9923 14.2756 11.0701 14.0441 11.0863C12.9774 11.1561 11.9106 11.2339 10.8477 11.3085C10.6997 11.2858 10.6276 11.2517 10.6655 11.2112C10.6883 11.1869 10.7339 11.1544 10.7794 11.1512C11.216 11.1172 11.6563 11.088 12.0929 11.0555C12.1536 11.0507 12.2371 11.0539 12.2713 11.0377C12.4383 10.9647 12.4991 10.8464 12.8142 10.8383C12.9964 10.8334 13.1823 10.8091 13.357 10.7864C13.4063 10.7799 13.4519 10.7459 13.4633 10.7215C13.467 10.7086 13.4063 10.6842 13.3608 10.6729C13.1937 10.6259 13.0002 10.6826 12.8331 10.6502C12.7762 10.6389 12.6964 10.6226 12.6851 10.6032C12.6775 10.5854 12.742 10.5562 12.7876 10.5383C12.8293 10.5221 12.8862 10.5075 12.9432 10.5027C13.4442 10.4654 13.9454 10.4265 14.4465 10.3973C14.6514 10.3859 14.7957 10.3454 14.8868 10.2708C14.9551 10.2157 15.0386 10.1865 15.1677 10.1784C16.0445 10.1184 16.9214 10.0519 17.8021 9.99681C18.0222 9.98384 18.1362 9.93034 18.2273 9.86063C18.2994 9.8055 18.3829 9.78604 18.5234 9.77632C19.7798 9.69201 21.0287 9.59797 22.2852 9.51691C22.5167 9.50231 22.5851 9.43259 22.7028 9.37261C22.7445 9.35153 22.771 9.32559 22.8242 9.31262C22.8773 9.29965 22.9457 9.30125 23.0102 9.29801C24.0123 9.22829 25.0145 9.15373 26.0205 9.08887C26.2558 9.07428 26.3013 8.9932 26.4228 8.93646C26.4646 8.91862 26.5025 8.88945 26.5519 8.88458C27.3035 8.82946 28.0551 8.77758 28.8067 8.72407C29.3078 8.68841 29.8088 8.65273 30.3099 8.61868C30.5567 8.60247 30.5567 8.60084 30.8907 8.44681C30.9287 8.42898 30.9819 8.4079 31.0312 8.40303C32.4737 8.29927 33.9123 8.20039 35.3548 8.09824C35.4763 8.09014 35.5636 8.05283 35.6243 7.9977C35.6851 7.94258 35.7724 7.90529 35.8901 7.89718C37.0175 7.81611 38.1449 7.73668 39.2761 7.66047C39.4811 7.6475 39.6253 7.60859 39.7164 7.53563C39.7848 7.4805 39.8683 7.45133 39.9973 7.44322C41.1248 7.3654 42.2522 7.2827 43.3834 7.20812C43.5998 7.19352 43.7061 7.13841 43.8124 7.07355C43.8503 7.05085 43.8807 7.01356 43.9263 7.01032C44.4881 6.96492 45.0461 6.9179 45.6117 6.8871C45.847 6.87413 45.9268 6.80603 46.0217 6.74117C46.0976 6.68929 46.1849 6.67146 46.3292 6.66497C46.6442 6.65038 46.9555 6.62283 47.263 6.59527C47.3085 6.5904 47.3655 6.55473 47.3693 6.53203C47.3769 6.48988 47.2895 6.46069 47.1453 6.4461C45.642 6.55149 44.1351 6.65686 42.6318 6.76225C42.3851 6.78009 42.3851 6.78009 42.051 6.93412C42.0131 6.95196 41.9599 6.97304 41.9067 6.9779C40.4643 7.08004 39.0256 7.18057 37.5831 7.28271C37.4617 7.29082 37.3744 7.32811 37.3136 7.38323C37.2529 7.43836 37.1655 7.47565 37.0478 7.48375C35.6699 7.58103 34.292 7.67994 32.9102 7.77236C32.7052 7.78533 32.561 7.8226 32.4699 7.89718C32.4016 7.95231 32.3181 7.9815 32.189 7.98961C30.8718 8.0804 29.5583 8.17605 28.2373 8.2636C28.1044 8.27171 28.0058 8.22469 28.0134 8.18091C28.0172 8.15821 28.0741 8.12094 28.1196 8.1177C28.8067 8.0642 29.49 8.00906 30.1809 7.96853C30.4125 7.95556 30.4807 7.88422 30.5984 7.82423C30.6364 7.80315 30.6668 7.77559 30.7161 7.76424C30.7693 7.75127 30.8376 7.7529 30.9021 7.74965C32.5306 7.63454 34.1591 7.51781 35.7914 7.40918C36.0268 7.39297 36.0723 7.31351 36.1937 7.25676C36.2355 7.23731 36.2735 7.20813 36.3228 7.20489C36.8239 7.16598 37.325 7.13192 37.826 7.09788C38.7029 7.03627 39.5798 6.97465 40.4604 6.91304C40.7148 6.89521 40.7148 6.8952 41.0412 6.7428C41.0792 6.72496 41.1324 6.70228 41.1817 6.69904C43.5011 6.53528 45.8205 6.37152 48.1399 6.20939C48.2613 6.20129 48.3486 6.164 48.4094 6.10887C48.4701 6.05537 48.5574 6.01645 48.6751 6.00673C51.8106 5.78623 54.9423 5.56571 58.0778 5.34846C58.2828 5.33386 58.427 5.29981 58.5181 5.22361C58.5826 5.16849 58.6699 5.13931 58.799 5.12958C62.2458 4.888 65.6926 4.64643 69.1431 4.40323C71.4625 4.2411 73.7819 4.07572 76.1013 3.91683C76.3138 3.90224 76.4277 3.85197 76.534 3.78549C76.5681 3.76279 76.6023 3.7255 76.6479 3.72226C77.1451 3.68173 77.6424 3.64444 78.1397 3.60715C78.2953 3.65093 78.4509 3.69309 78.6066 3.73687C78.7242 3.67526 78.8382 3.61202 78.9559 3.55041C79.7075 3.50339 80.4477 3.43043 81.2069 3.40773C81.2562 3.40611 81.3093 3.43692 81.3625 3.45313C81.7155 3.55528 81.9167 3.54717 82.1407 3.41098C82.2204 3.36234 82.2887 3.31856 82.4102 3.31046C82.786 3.28127 83.1657 3.26181 83.5377 3.22777C83.7389 3.20993 83.9058 3.22614 84.0501 3.28451C84.1526 3.32666 84.2589 3.34451 84.3842 3.33478C85.0751 3.28614 85.7621 3.23912 86.453 3.18723C86.5023 3.18399 86.5478 3.15642 86.5858 3.13696C86.6655 3.09481 86.7339 3.04942 86.8098 3.00564C86.9123 3.03321 87.0262 3.05429 87.1097 3.08996C87.216 3.13211 87.3146 3.1321 87.4589 3.12075C90.2148 2.92457 92.9745 2.73326 95.7304 2.53546C95.9658 2.51924 96.0683 2.58734 96.2277 2.62301C96.2809 2.63598 96.334 2.65219 96.3909 2.65543C96.4517 2.65867 96.5162 2.64896 96.5769 2.64409C98.6458 2.49817 100.715 2.35386 102.783 2.20794C103.057 2.18849 103.057 2.18849 103.463 2.28901C103.512 2.30198 103.577 2.31658 103.63 2.31171C104.571 2.24848 105.513 2.18039 106.45 2.11554C106.572 2.10743 106.674 2.13337 106.784 2.17066C107.001 2.24362 107.016 2.24362 107.175 2.13661C107.251 2.08635 107.331 2.05553 107.456 2.04094C107.593 2.02473 107.703 2.02961 107.809 2.05879C107.961 2.09933 108.071 2.16741 108.303 2.14958C109.305 2.07338 110.311 2.01015 111.309 1.93233C111.537 1.91449 111.659 1.96961 111.81 2.01015C111.864 2.02474 111.913 2.04744 111.97 2.0523C112.027 2.05717 112.095 2.04581 112.156 2.04094C113.408 1.95339 114.665 1.86748 115.914 1.77344C116.149 1.7556 116.252 1.82531 116.411 1.86098C116.464 1.87395 116.525 1.89666 116.574 1.89342C117.326 1.84315 118.081 1.78964 118.833 1.73613C119.103 1.71668 119.102 1.7183 119.512 1.8172C119.562 1.83017 119.626 1.84314 119.679 1.8399C120.556 1.77991 121.437 1.7183 122.314 1.65669C122.583 1.63723 122.583 1.63724 123.362 1.72155C123.419 1.72803 123.479 1.73777 123.536 1.73453C124.538 1.66481 125.544 1.59671 126.546 1.52212C126.748 1.50753 126.915 1.5205 127.059 1.57887C127.161 1.62102 127.268 1.63887 127.393 1.62914C128.52 1.54969 129.652 1.47349 130.775 1.38918C130.992 1.37297 131.132 1.40863 131.284 1.45564C131.333 1.47186 131.383 1.49456 131.44 1.50105C131.496 1.50753 131.561 1.50104 131.622 1.49618C132.749 1.41673 133.88 1.34216 135.004 1.25622C135.232 1.23839 135.353 1.29351 135.505 1.33405C135.558 1.34864 135.615 1.37782 135.661 1.3762C136.101 1.34864 136.541 1.32433 136.978 1.28379C137.213 1.2611 137.316 1.33566 137.475 1.37133C137.528 1.38268 137.589 1.40701 137.638 1.40377C138.58 1.34054 139.521 1.27407 140.459 1.20597C140.592 1.19625 140.69 1.21082 140.797 1.25298C140.937 1.30973 141.1 1.33242 141.305 1.31459C141.742 1.2773 142.182 1.25137 142.623 1.22056C142.881 1.20273 142.881 1.20273 143.67 1.28704C143.727 1.29353 143.788 1.30325 143.845 1.3C144.596 1.24812 145.352 1.19786 146.1 1.14112C146.301 1.1249 146.468 1.13949 146.612 1.19786C146.715 1.24001 146.817 1.25786 146.946 1.24813C147.637 1.19949 148.324 1.15085 149.015 1.10221C149.266 1.08437 149.516 1.05356 149.767 1.05356C149.949 1.05518 150.082 1.133 150.245 1.17191C150.291 1.18326 150.366 1.17031 150.427 1.16706C151.304 1.10545 152.185 1.0487 153.058 0.978984C153.286 0.961149 153.407 1.01627 153.559 1.0568C153.612 1.0714 153.669 1.10058 153.715 1.09896C154.03 1.08113 154.341 1.0568 154.656 1.03573C155.032 1.00979 155.411 0.990329 155.783 0.95466C156.087 0.925476 156.201 1.06653 156.444 1.07139C156.63 1.07625 156.82 1.0487 157.006 1.03573C157.381 1.00979 157.757 0.980604 158.133 0.957906C158.266 0.949799 158.368 0.923847 158.41 0.865479C158.418 0.85413 158.353 0.82982 158.312 0.815228C157.807 0.649852 157.807 0.649844 157.298 0.685514C156.983 0.708212 156.672 0.730915 156.357 0.750371C156.303 0.753613 156.243 0.740644 156.19 0.730916C156.038 0.703353 156.053 0.67093 156.182 0.612562C156.311 0.554194 156.41 0.482862 156.52 0.416387C156.675 0.458542 156.827 0.500681 156.983 0.542836C157.108 0.534729 157.233 0.525016 157.359 0.516909C157.985 0.474754 158.611 0.430975 159.238 0.392064C159.283 0.388821 159.34 0.421252 159.393 0.437465C159.545 0.484484 159.682 0.525006 159.902 0.507172C160.464 0.460153 161.029 0.426105 161.591 0.385572C161.838 0.367737 161.838 0.367739 162.271 0.468261C162.32 0.479611 162.385 0.492582 162.438 0.489339C163.003 0.452049 163.565 0.41152 164.131 0.372608C164.252 0.364502 164.37 0.385578 164.457 0.432597C164.491 0.452053 164.484 0.484473 164.628 0.750371C165.076 0.966008 165.383 0.94332 165.695 0.923864C165.828 0.915757 165.945 0.907643 166.033 0.875216C166.078 0.857382 166.135 0.831436 166.135 0.810359C166.135 0.794146 166.052 0.7682 165.998 0.764957C165.623 0.732531 165.266 0.800636 164.898 0.815228C164.727 0.821713 164.579 0.764966 164.548 0.67255C164.541 0.646609 164.529 0.619048 164.518 0.593107C164.507 0.567165 164.499 0.539604 164.488 0.513663C164.34 0.505557 164.252 0.534736 164.188 0.589861C164.135 0.635258 164.059 0.687141 163.956 0.711461C163.854 0.737402 163.713 0.732547 163.588 0.740653C163.466 0.74876 163.334 0.769835 163.22 0.758485C163.106 0.745515 163.015 0.698488 162.908 0.669304C162.859 0.654712 162.798 0.633643 162.749 0.636886C162.312 0.664448 161.88 0.692001 161.447 0.72767C161.219 0.747126 161.105 0.67904 160.961 0.636886C160.847 0.604459 160.733 0.612556 160.714 0.687137C160.665 0.865483 160.84 0.94006 161.227 0.906012C161.546 0.876828 161.834 0.871979 162.085 0.98223C162.119 0.996822 162.199 1.0033 162.248 1.00006C162.559 0.980606 162.867 0.956284 163.178 0.936828C163.235 0.933585 163.296 0.94006 163.349 0.946545C164.123 1.0341 164.123 1.03573 164.385 1.01627C164.51 1.00654 164.632 0.998436 164.62 0.751994C164.86 0.487717 165.239 0.469886 165.607 0.430974C165.847 0.406654 165.949 0.477996 166.105 0.515286C166.158 0.528257 166.215 0.554193 166.264 0.550951C167.08 0.497447 167.893 0.440692 168.705 0.380703C168.842 0.370975 168.94 0.380705 169.047 0.422859C169.183 0.476363 169.335 0.510418 169.551 0.490962C169.984 0.45205 170.425 0.427736 170.865 0.395309C171.089 0.379096 171.089 0.379079 171.541 0.479602C171.59 0.490951 171.654 0.503923 171.708 0.50068C172.148 0.473117 172.585 0.43908 173.021 0.409896C173.143 0.401789 173.253 0.424485 173.347 0.468261C173.442 0.512037 173.556 0.534733 173.674 0.526627C174.114 0.497443 174.551 0.465026 174.987 0.435843C175.041 0.4326 175.105 0.443948 175.154 0.455298C175.617 0.55582 175.618 0.555803 175.83 0.53959C176.141 0.51527 176.46 0.503934 176.768 0.471507C177.068 0.43908 177.223 0.53311 177.428 0.584992C177.99 0.547702 178.556 0.516904 179.114 0.471507C179.341 0.452051 179.463 0.50555 179.615 0.547705C179.668 0.562297 179.721 0.593105 179.77 0.591484C179.96 0.584998 180.146 0.567167 180.332 0.554196C180.518 0.541226 180.708 0.528257 180.894 0.515286C181.107 0.562305 181.247 0.672553 181.551 0.635263C181.733 0.612564 181.926 0.6077 182.113 0.59473C182.299 0.581759 182.488 0.56879 182.674 0.555819C182.8 0.547713 182.929 0.542842 183.05 0.52825C183.274 0.50393 183.384 0.583384 183.544 0.619053C183.597 0.630403 183.657 0.649846 183.707 0.646603C184.083 0.623905 184.462 0.60445 184.83 0.56716C185.115 0.537976 185.309 0.586622 185.51 0.654718C185.552 0.66931 185.624 0.677416 185.677 0.674173C186.117 0.646611 186.554 0.612553 186.99 0.583369C187.108 0.575263 187.222 0.601203 187.317 0.643358C187.416 0.687133 187.526 0.708227 187.647 0.70012C188.084 0.670936 188.524 0.6385 188.961 0.609316C189.014 0.606073 189.078 0.619046 189.128 0.632017C189.553 0.732539 189.553 0.734162 189.803 0.714706C189.864 0.709842 189.928 0.706587 189.989 0.701723C190.301 0.679024 190.623 0.670929 190.927 0.632017C191.276 0.588241 191.53 0.643369 191.777 0.735784C192.088 0.716328 192.407 0.704977 192.711 0.67255C192.939 0.64823 193.06 0.709838 193.212 0.750371C193.265 0.764963 193.322 0.794147 193.368 0.790904C193.808 0.763341 194.248 0.73903 194.681 0.698497C194.916 0.675798 195.019 0.748745 195.178 0.786035C195.231 0.799006 195.288 0.821716 195.338 0.818474C195.588 0.805503 195.839 0.786038 196.089 0.768203C196.382 0.747126 196.382 0.748746 196.769 0.847647C196.951 0.894665 197.133 0.857373 197.312 0.846024C197.502 0.833053 197.68 0.823328 197.832 0.889803C197.927 0.931957 198.041 0.957899 198.158 0.951414C198.409 0.936822 198.663 0.922237 198.91 0.897917C199.107 0.878461 199.278 0.891425 199.422 0.951414C199.525 0.993569 199.631 1.01466 199.756 1.00493C200.318 0.966019 200.884 0.92547 201.446 0.88818C201.495 0.884937 201.563 0.899535 201.609 0.914127C201.715 0.943311 201.818 0.97573 201.92 1.00816C202.167 0.993565 202.421 0.987096 202.664 0.964397C202.922 0.941699 203.158 0.93359 203.359 1.02276C203.401 1.04222 203.461 1.06977 203.511 1.06814C203.7 1.06166 203.886 1.04545 204.072 1.03248C204.258 1.01951 204.448 1.00654 204.634 0.99357C204.851 1.0341 204.987 1.15084 205.291 1.11355C205.473 1.09085 205.667 1.08598 205.853 1.07301C206.039 1.06004 206.229 1.04545 206.415 1.0341C206.475 1.03086 206.544 1.02275 206.597 1.02923C206.654 1.03572 206.703 1.05842 206.752 1.07464C206.904 1.12166 207.045 1.16868 207.261 1.14112C207.443 1.11842 207.637 1.11355 207.823 1.09896C208.077 1.08113 208.077 1.08113 208.499 1.18327C208.669 1.22543 208.863 1.1703 209.026 1.20597C209.136 1.23029 209.231 1.27082 209.337 1.29838C209.383 1.30973 209.455 1.31459 209.508 1.31134C209.759 1.29675 210.013 1.28217 210.26 1.25785C210.461 1.23839 210.628 1.25785 210.769 1.31621C210.871 1.35837 210.974 1.37621 211.103 1.36648C211.729 1.32109 212.355 1.28216 212.978 1.2319C213.19 1.21407 213.361 1.24164 213.479 1.3C213.68 1.40053 213.965 1.28217 214.174 1.36324C214.303 1.4135 214.432 1.47187 214.667 1.44755C215.1 1.4054 215.54 1.38268 215.977 1.3535C216.132 1.39728 216.288 1.44106 216.447 1.48484C216.698 1.467 216.948 1.44916 217.199 1.43294C217.385 1.41997 217.575 1.40538 217.761 1.39403C217.822 1.39079 217.886 1.3843 217.943 1.39241C218 1.40052 218.046 1.4216 218.099 1.43781C218.361 1.51726 218.361 1.51889 218.793 1.48646C218.979 1.47187 219.158 1.46214 219.313 1.52699C219.458 1.58698 219.628 1.59833 219.826 1.58049C220.198 1.54806 220.574 1.52375 220.953 1.50105C221.071 1.49294 221.181 1.5205 221.28 1.56266C221.428 1.62913 221.61 1.62265 221.796 1.60481C222.043 1.58212 222.286 1.55942 222.494 1.65022C222.536 1.66967 222.601 1.69722 222.646 1.6956C222.958 1.68263 223.273 1.67291 223.576 1.6421C223.88 1.6113 224.028 1.71182 224.237 1.76046C224.548 1.73938 224.863 1.7183 225.174 1.69722C225.235 1.69236 225.307 1.67777 225.36 1.68588C225.584 1.71993 225.713 1.84153 226.021 1.80423C226.199 1.78316 226.393 1.77668 226.579 1.77182C226.628 1.77019 226.693 1.79774 226.727 1.81882C226.746 1.83017 226.727 1.86097 226.704 1.87719C226.636 1.92258 226.552 1.96475 226.492 2.01177C226.484 2.01825 226.556 2.04743 226.598 2.0604C226.7 2.08958 226.818 2.08473 226.955 2.07176C227.072 2.06041 227.194 2.08311 227.277 2.13175C227.312 2.1512 227.3 2.18363 227.228 2.29063C227.228 2.37008 227.308 2.3344 227.334 2.28252C227.376 2.20794 227.296 2.18362 227.145 2.22415C227.038 2.25334 226.985 2.2955 227.012 2.32954C227.027 2.34738 227.099 2.37008 227.228 2.29063C227.562 2.19335 227.813 2.17553 228.063 2.15769C228.128 2.15283 228.204 2.1366 228.249 2.14633C228.412 2.18524 228.564 2.23227 228.724 2.27605C228.906 2.26632 229.077 2.24199 229.255 2.30522C229.506 2.39439 229.517 2.38629 229.76 2.36845C229.885 2.35873 230.011 2.35063 230.136 2.34253C230.261 2.33442 230.36 2.35873 230.47 2.39602C230.694 2.47223 230.713 2.47222 230.861 2.36845C230.948 2.30522 231.009 2.28415 231.119 2.31333C231.483 2.41224 231.487 2.41872 231.798 2.38953C232.057 2.36521 232.3 2.35873 232.489 2.45114C232.618 2.516 232.66 2.50141 232.763 2.43331C233.036 2.25334 233.161 2.25658 233.674 2.38629C233.913 2.4479 234.16 2.38143 234.403 2.37332C234.608 2.36684 234.752 2.40574 234.767 2.50789C234.778 2.57112 234.813 2.61652 234.949 2.6376C235.002 2.64571 235.067 2.65705 235.12 2.65381C235.435 2.63435 235.746 2.61165 236.061 2.58895C236.221 2.5776 236.308 2.50141 236.278 2.40089C236.244 2.29388 236.304 2.25496 236.532 2.22415C236.669 2.20632 236.779 2.20958 236.889 2.23876C237.01 2.27119 236.976 2.30037 236.87 2.35874C236.616 2.50141 236.646 2.58895 236.972 2.68785C237.086 2.7219 237.177 2.75272 237.204 2.80298C237.219 2.82892 237.204 2.86297 237.238 2.88242C237.424 2.99105 237.682 3.06078 237.971 3.11266C238.248 3.06888 238.438 3.14183 238.65 3.2002C238.817 3.24559 239.015 3.20669 239.193 3.19048C239.394 3.17264 239.561 3.18561 239.706 3.2456C239.808 3.28775 239.914 3.3072 240.04 3.29909C240.29 3.28126 240.544 3.26992 240.791 3.24398C241.004 3.22128 241.163 3.25371 241.296 3.30883C241.463 3.37855 241.649 3.33152 241.824 3.34125C242.059 3.3526 242.177 3.49689 242.484 3.45798C242.667 3.43528 242.856 3.42718 243.046 3.42069C243.095 3.41907 243.156 3.44664 243.198 3.4661C243.399 3.55527 243.634 3.5504 243.893 3.52446C244.071 3.50663 244.246 3.49042 244.42 3.55203C244.709 3.6558 245.028 3.7466 245.331 3.84226C245.373 3.91684 245.343 4.00437 245.559 4.04815C245.673 4.07085 245.779 4.10491 245.867 4.1422C245.973 4.18597 246.071 4.19733 246.208 4.18598C246.455 4.16328 246.713 4.1584 246.956 4.12921C247.18 4.10327 247.32 4.15679 247.457 4.20705C247.567 4.24759 247.67 4.26703 247.803 4.23785C247.939 4.21029 248.038 4.22812 248.148 4.27189C248.304 4.33188 248.315 4.32541 248.831 4.34324C248.884 4.34486 248.949 4.36917 248.979 4.39025C248.994 4.4016 248.96 4.43404 248.934 4.45025C248.9 4.46971 248.846 4.4924 248.797 4.49726C248.235 4.53941 247.67 4.5767 247.108 4.61886C247.051 4.62372 246.99 4.63508 246.948 4.6513C246.903 4.66913 246.846 4.69344 246.846 4.71613C246.846 4.73235 246.922 4.75181 246.975 4.76316C247.142 4.80045 247.339 4.74371 247.503 4.78586C247.613 4.81342 247.704 4.85233 247.814 4.87827C247.859 4.88962 247.932 4.888 247.989 4.88476C248.178 4.87341 248.364 4.8572 248.554 4.84747C248.607 4.84585 248.668 4.86207 248.717 4.87504C249.082 4.97232 249.082 4.97232 249.397 4.95124C249.522 4.94313 249.655 4.91881 249.773 4.92854C249.887 4.93827 249.985 4.98204 250.088 5.0096C250.3 5.06797 250.501 5.12472 250.517 5.25118C250.524 5.29982 250.649 5.34197 250.775 5.34521C250.896 5.34845 251.025 5.33063 251.151 5.32091C251.447 5.30145 251.447 5.30145 251.83 5.40035C251.936 5.42791 252.05 5.43115 252.187 5.41494C252.24 5.40845 252.305 5.41494 252.362 5.42305C252.548 5.44737 252.548 5.47817 252.426 5.53654C252.255 5.62247 252.27 5.63058 252.749 5.70354C252.931 5.7311 253.071 5.78299 253.223 5.82838C253.47 5.90134 253.466 5.90133 253.303 5.99699C253.265 6.01807 253.231 6.04077 253.193 6.06347C253.083 6.1267 252.995 6.19479 252.768 6.20128C252.517 6.20776 252.267 6.23371 252.016 6.25155C251.773 6.26938 251.709 6.30828 251.731 6.41853C251.758 6.55148 251.807 6.56607 252.244 6.56445C252.369 6.56445 252.479 6.57742 252.574 6.6212C252.528 6.67308 252.445 6.71361 252.324 6.72334C252.012 6.74766 251.697 6.76874 251.386 6.78982C251.135 6.80766 250.885 6.82548 250.634 6.84332C250.479 6.85467 250.38 6.93898 250.422 7.03302C250.445 7.08652 250.463 7.14003 250.482 7.19353C250.524 7.30054 250.604 7.32811 250.858 7.32324C250.923 7.32162 250.983 7.30864 251.044 7.31188C251.291 7.32323 251.409 7.4578 251.705 7.43024C251.951 7.40754 252.21 7.40268 252.453 7.37349C252.677 7.34755 252.802 7.40594 252.957 7.44971C253.011 7.4643 253.068 7.49509 253.113 7.49347C253.428 7.47564 253.743 7.45782 254.051 7.42701C254.195 7.41404 254.282 7.42376 254.396 7.46268C254.669 7.55671 254.677 7.55185 255.083 7.52266C255.379 7.49997 255.383 7.50321 255.763 7.60211C255.869 7.62967 255.983 7.62966 256.12 7.61669C256.298 7.60048 256.484 7.57454 256.67 7.59886C256.727 7.60535 256.799 7.62481 256.818 7.64589C256.829 7.66048 256.776 7.69615 256.731 7.7075C256.397 7.79181 256.006 7.77722 255.641 7.81127C255.527 7.82099 255.413 7.79018 255.319 7.74641C255.22 7.70263 255.114 7.6848 254.985 7.69291C254.734 7.71075 254.48 7.72209 254.233 7.74803C254.02 7.77073 253.872 7.73344 253.724 7.68317C253.675 7.66696 253.618 7.63615 253.569 7.63777C253.007 7.6702 252.441 7.70263 251.883 7.74803C251.659 7.76749 251.53 7.71561 251.378 7.67183C251.325 7.65724 251.272 7.62643 251.223 7.62805C251.033 7.63454 250.847 7.65237 250.657 7.66534C249.966 7.71398 249.279 7.76262 248.588 7.80802C248.543 7.81126 248.486 7.77721 248.433 7.76262C248.33 7.73343 248.224 7.70587 248.118 7.67831C247.928 7.69128 247.742 7.70749 247.552 7.71722C247.415 7.7237 247.294 7.74641 247.275 7.80802C247.263 7.84855 247.389 7.88584 247.522 7.88259C247.651 7.87935 247.78 7.85989 247.886 7.88097C248.414 7.98474 248.414 7.98636 248.744 7.96528C249.032 7.94583 249.002 7.92961 249.256 8.01878C249.366 8.05769 249.465 8.0804 249.59 8.07067C249.902 8.04798 250.217 8.02527 250.532 8.00582C250.581 8.00257 250.646 8.01879 250.695 8.03176C251.067 8.12904 251.067 8.13228 251.375 8.10796C251.777 8.07878 251.792 8.07067 252.062 8.16957C252.248 8.23767 252.418 8.19065 252.597 8.18741C252.802 8.25064 253.026 8.30739 253.212 8.37873C253.432 8.46304 253.664 8.44843 253.914 8.42411C254.1 8.40628 254.282 8.39979 254.434 8.46627C254.578 8.52788 254.753 8.53438 254.95 8.51816C255.129 8.50357 255.311 8.47276 255.497 8.50842C255.546 8.51815 255.622 8.54248 255.618 8.55707C255.615 8.57977 255.565 8.6122 255.516 8.62193C255.167 8.6884 254.783 8.68678 254.415 8.71758C254.366 8.72245 254.301 8.70461 254.252 8.69164C254.146 8.66245 254.043 8.62841 253.941 8.59761C253.755 8.60733 253.565 8.61057 253.383 8.63002C253.242 8.64462 253.136 8.64301 253.033 8.6041C252.938 8.56843 252.836 8.52464 252.722 8.51329C252.608 8.50194 252.475 8.52627 252.35 8.53599C252.225 8.54572 252.081 8.54085 251.982 8.56679C251.883 8.59273 251.822 8.64948 251.758 8.69488C251.686 8.74514 251.587 8.76137 251.443 8.76623C251.31 8.77109 251.204 8.7646 251.105 8.71921C251.063 8.69975 251.006 8.68515 250.949 8.67218C250.896 8.66083 250.835 8.64299 250.786 8.64623C250.221 8.68352 249.659 8.72407 249.093 8.76298C248.812 8.78244 248.816 8.78243 248.231 8.68677C248.178 8.67866 248.114 8.66732 248.061 8.67056C247.746 8.69001 247.434 8.71272 247.119 8.73541C246.8 8.75811 246.804 8.75487 246.261 8.65273C246.163 8.63327 246.018 8.65921 245.901 8.65597C245.654 8.64786 245.533 8.51168 245.244 8.53762C244.997 8.56032 244.739 8.56518 244.492 8.59436C244.268 8.6203 244.139 8.56356 243.988 8.51979C243.934 8.50519 243.877 8.47276 243.832 8.47601C243.266 8.51168 242.704 8.55221 241.953 8.55707C241.767 8.55707 241.85 8.59113 241.972 8.60247C242.146 8.62031 242.203 8.58626 242.108 8.52141C242.04 8.47601 241.941 8.4533 241.862 8.46465C241.82 8.47113 241.767 8.50195 241.953 8.55707C242.15 8.61868 242.139 8.65272 242.173 8.67218C242.257 8.7192 242.374 8.73865 242.496 8.73217C242.685 8.72082 242.872 8.70461 243.061 8.69488C243.114 8.69164 243.179 8.70299 243.228 8.71596C243.646 8.81648 243.65 8.82297 244.094 8.78406C244.234 8.77271 244.337 8.77271 244.447 8.80352C244.599 8.84567 244.709 8.917 244.94 8.8943C245.248 8.8635 245.563 8.84568 245.878 8.82784C245.927 8.8246 245.98 8.85378 246.037 8.86675C246.193 8.90566 246.307 8.97862 246.538 8.94782C246.717 8.9235 246.91 8.917 247.1 8.91213C247.15 8.91051 247.225 8.93646 247.248 8.95754C247.294 8.99483 247.237 9.03861 247.108 9.06942C247.055 9.08239 246.983 9.07914 246.922 9.084C246.671 9.10184 246.421 9.12129 246.17 9.13588C246.037 9.14399 245.912 9.16832 245.897 9.22831C245.886 9.26884 246.022 9.3045 246.151 9.30126C246.341 9.29639 246.531 9.28342 246.713 9.26235C247.036 9.22668 247.317 9.2364 247.579 9.33854C247.765 9.40988 247.753 9.38395 247.951 9.59473C248 9.64823 248.148 9.65309 248.277 9.64985C248.588 9.64174 248.732 9.66607 248.706 9.71633C248.672 9.77794 248.562 9.79738 248.421 9.80549C248.171 9.81846 247.92 9.83955 247.67 9.85738C247.609 9.86225 247.541 9.87196 247.484 9.86872C247.427 9.86548 247.374 9.84603 247.324 9.83143C247.218 9.80063 247.127 9.7536 247.013 9.74225C246.899 9.7309 246.766 9.75523 246.641 9.76495C246.516 9.77306 246.383 9.79738 246.269 9.78603C246.155 9.77468 246.06 9.72606 245.958 9.69687C245.908 9.68228 245.848 9.65957 245.798 9.66119C245.548 9.67416 245.297 9.69524 245.047 9.71146C244.739 9.73254 244.739 9.73254 244.367 9.63201C244.261 9.60283 244.151 9.60446 244.01 9.61743C243.707 9.64337 243.703 9.63849 243.149 9.54446C243.095 9.53473 243.031 9.52338 242.978 9.52825C242.412 9.56554 241.85 9.60607 241.289 9.64498C240.806 9.67903 240.806 9.67904 240.541 9.84117C240.343 9.96115 240.34 9.96114 240.533 10.0163C240.689 10.0617 240.829 10.1281 241 10.1525C241.159 10.1752 241.357 10.1022 241.531 10.1768C241.619 10.2141 241.733 10.2546 241.843 10.2611C242.017 10.2692 242.203 10.2222 242.37 10.2935C242.454 10.3292 242.579 10.3665 242.685 10.3681C242.872 10.3713 243.061 10.3454 243.247 10.334C243.304 10.3308 243.369 10.3308 243.422 10.3389C243.479 10.3486 243.528 10.3681 243.578 10.3843C243.729 10.4394 243.893 10.4654 244.09 10.4378C244.413 10.3924 244.701 10.4151 244.952 10.5189C244.986 10.5335 245.069 10.5351 245.123 10.5286C245.259 10.5124 245.377 10.5108 245.479 10.5416C245.521 10.5545 245.582 10.5772 245.574 10.5918C245.563 10.6161 245.517 10.6486 245.468 10.6567C245.111 10.7118 244.728 10.7183 244.36 10.7475C244.31 10.7507 244.249 10.7296 244.2 10.7151C244.094 10.6859 244.003 10.6372 243.889 10.6259C243.775 10.6145 243.642 10.6356 243.517 10.6437C243.392 10.6518 243.259 10.6762 243.145 10.6664C243.031 10.6551 242.925 10.6145 242.834 10.5789C242.727 10.5383 242.625 10.5335 242.484 10.5497C242.302 10.5708 242.112 10.574 241.926 10.5854C241.824 10.5546 241.721 10.5205 241.615 10.4913C241.566 10.4767 241.505 10.4589 241.452 10.4605C241.201 10.4735 240.951 10.4929 240.7 10.5108C240.45 10.5286 240.45 10.5286 240.024 10.4281C239.975 10.4167 239.911 10.4038 239.857 10.407C239.542 10.4265 239.231 10.4508 238.916 10.4702C238.795 10.4783 238.684 10.4556 238.586 10.4119C238.491 10.3681 238.377 10.3438 238.259 10.3519C237.758 10.3859 237.257 10.4184 236.756 10.4589C236.555 10.4751 236.384 10.4605 236.247 10.4021C236.088 10.3357 235.91 10.3519 235.724 10.3649C235.302 10.3973 235.298 10.3957 235.029 10.313C234.976 10.2968 234.923 10.2659 234.873 10.2676C234.437 10.2919 233.996 10.3146 233.564 10.3535C233.336 10.3746 233.214 10.3178 233.063 10.2757C233.009 10.2611 232.953 10.2303 232.907 10.2335C232.592 10.2514 232.277 10.2676 231.969 10.3C231.662 10.3324 231.544 10.1816 231.313 10.1833C230.997 10.1849 230.686 10.2222 230.375 10.2449C230.124 10.2627 229.874 10.2805 229.623 10.2984C229.373 10.3162 229.122 10.3308 228.872 10.3519C228.739 10.3632 228.64 10.3486 228.53 10.3081C228.39 10.2546 228.223 10.2125 228.071 10.1638C227.839 10.0941 227.839 10.0941 227.558 10.1135C227.498 10.1184 227.433 10.1216 227.372 10.1265C226.913 10.1622 226.913 10.1589 226.328 10.0568C226.302 10.0519 226.234 10.0698 226.207 10.0827C226.127 10.1249 226.055 10.1703 225.983 10.2141C225.881 10.1881 225.755 10.1735 225.687 10.1362C225.493 10.0309 225.19 10.1752 224.992 10.0714C224.92 10.0325 224.795 9.99843 224.681 9.9887C224.563 9.97897 224.43 10.0017 224.309 10.0114C223.994 10.0357 223.994 10.0341 223.724 10.1784C223.588 10.2497 223.39 10.2368 223.212 10.253C223.026 10.2708 222.847 10.2805 222.692 10.2141C222.551 10.1541 222.381 10.1395 222.179 10.1589C221.933 10.1833 221.678 10.1979 221.428 10.2124C221.375 10.2157 221.31 10.2076 221.257 10.1979C220.676 10.1022 220.676 10.1006 220.395 10.1217C220.27 10.1314 220.141 10.1346 220.019 10.1492C219.814 10.1752 219.659 10.1411 219.511 10.0892C219.461 10.073 219.404 10.0422 219.355 10.0438C219.105 10.0519 218.858 10.0665 218.611 10.0811C218.421 10.0925 218.232 10.099 218.049 10.1217C217.746 10.1589 217.598 10.0535 217.389 10.0049C217.078 10.026 216.762 10.0406 216.451 10.0698C216.307 10.0827 216.212 10.0779 216.102 10.039C215.962 9.99033 215.832 9.93521 215.605 9.95953C215.301 9.99195 214.982 10.0033 214.671 10.0228C214.462 9.9725 214.31 9.87034 214.01 9.90763C213.828 9.93033 213.635 9.9352 213.449 9.94817C213.198 9.966 212.948 9.98223 212.697 10.0017C212.427 10.0211 212.431 10.0163 212.018 9.92062C211.778 9.86387 211.532 9.9271 211.289 9.93683C211.099 9.94493 211.004 10.0195 211.049 10.1152C211.095 10.2108 210.993 10.2854 210.818 10.2984C210.381 10.3292 209.941 10.3616 209.504 10.3892C209.451 10.3924 209.387 10.3811 209.337 10.3697C208.871 10.2676 208.871 10.2692 208.662 10.2838C208.351 10.3081 208.032 10.3211 207.724 10.3519C207.512 10.373 207.356 10.3389 207.219 10.2838C207.113 10.2416 207.014 10.2319 206.878 10.2416C205.374 10.3503 203.871 10.4508 202.372 10.5627C202.148 10.5789 202.019 10.5319 201.867 10.4881C201.814 10.4735 201.764 10.4427 201.711 10.4427C201.586 10.4427 201.461 10.4573 201.335 10.467C200.774 10.5059 200.212 10.5529 199.646 10.5821C199.407 10.5951 199.343 10.6697 199.24 10.7313C199.16 10.7783 199.069 10.7977 198.929 10.8042C198.792 10.8107 198.693 10.8026 198.587 10.7605C198.451 10.7053 198.295 10.6713 198.082 10.694C197.836 10.7199 197.585 10.7313 197.331 10.7491C197.202 10.7572 197.103 10.7864 197.061 10.8448C197.054 10.8545 197.133 10.8788 197.179 10.8934C197.331 10.9421 197.475 10.9988 197.646 11.0328C197.82 11.0669 198.01 11.028 198.192 11.0182C198.257 11.015 198.318 11.0053 198.378 11.0069C198.435 11.0085 198.504 11.0166 198.545 11.0312C198.743 11.1042 198.952 11.1544 199.225 11.1107C199.46 11.1317 199.582 11.2663 199.882 11.2306C200.064 11.2096 200.254 11.1998 200.443 11.1917C200.493 11.1901 200.546 11.2193 200.599 11.2339C200.751 11.2744 200.872 11.3393 201.1 11.3117C201.343 11.2825 201.601 11.2777 201.848 11.255C201.985 11.242 202.083 11.2533 202.19 11.2955C202.326 11.349 202.482 11.3895 202.694 11.3636C202.877 11.3409 203.07 11.336 203.256 11.3214C203.499 11.3036 203.499 11.3052 203.932 11.4057C203.981 11.4171 204.046 11.4301 204.099 11.4268C204.414 11.4074 204.725 11.383 205.04 11.3636C205.162 11.3555 205.28 11.3766 205.363 11.4236C205.397 11.443 205.386 11.4755 205.397 11.503C204.771 11.5468 204.145 11.5841 203.522 11.6376C203.287 11.6587 203.18 11.5922 203.025 11.5549C202.972 11.5419 202.915 11.5144 202.865 11.5176C202.425 11.5452 201.988 11.5744 201.552 11.61C201.415 11.6214 201.313 11.6149 201.21 11.5679C200.948 11.443 200.629 11.5111 200.333 11.529C200.106 11.5419 200.033 11.5922 200.06 11.6992C200.094 11.8257 200.231 11.8646 200.58 11.8419C200.705 11.8338 200.831 11.8224 200.956 11.8159C201.077 11.8095 201.187 11.8305 201.286 11.8743C201.381 11.9181 201.495 11.9408 201.613 11.9343C201.863 11.9197 202.117 11.9051 202.36 11.8808C202.562 11.8613 202.729 11.8775 202.869 11.9375C203.025 12.004 203.207 11.9894 203.389 11.9748C203.814 11.9424 203.818 11.944 204.084 12.0251C204.137 12.0413 204.19 12.0721 204.239 12.0705C204.676 12.0462 205.116 12.0251 205.545 11.9862C205.769 11.9667 205.898 12.0186 206.046 12.0608C206.1 12.0754 206.153 12.1078 206.202 12.1045C206.517 12.0867 206.832 12.0689 207.14 12.0381C207.284 12.0235 207.371 12.0332 207.489 12.0721C207.77 12.1678 207.777 12.1645 208.176 12.1337C208.297 12.124 208.43 12.1062 208.544 12.1191C208.658 12.1321 208.749 12.1791 208.855 12.2083C208.905 12.2213 208.965 12.2391 209.019 12.2359C209.269 12.2229 209.52 12.2034 209.77 12.1856C210.006 12.1678 210.006 12.1694 210.446 12.2699C210.624 12.3121 210.81 12.2764 210.989 12.2634C211.182 12.2488 211.357 12.2488 211.505 12.3121C211.653 12.3753 211.831 12.3721 212.021 12.3591C212.2 12.3461 212.382 12.3105 212.564 12.3542C212.982 12.4548 212.982 12.4564 213.24 12.4369C213.616 12.4093 213.988 12.3834 214.367 12.3591C214.417 12.3558 214.481 12.3753 214.53 12.3883C214.637 12.4175 214.728 12.4661 214.842 12.4774C214.956 12.4904 215.088 12.471 215.21 12.4612C215.601 12.4304 215.627 12.4191 215.889 12.5261C216.11 12.6136 216.383 12.4872 216.588 12.5877C216.706 12.6444 216.865 12.6898 217.085 12.6623C217.267 12.6396 217.457 12.6331 217.647 12.6201C217.947 12.599 217.947 12.6007 218.326 12.698C218.376 12.7109 218.44 12.7271 218.49 12.7239C218.74 12.7109 218.995 12.6996 219.238 12.6704C219.522 12.6363 219.704 12.698 219.917 12.7579C220.084 12.805 220.281 12.766 220.46 12.7498C220.653 12.7336 220.828 12.7385 220.972 12.8017C221.124 12.8666 221.303 12.8584 221.492 12.8455C221.671 12.8341 221.853 12.7968 222.035 12.8422C222.426 12.9428 222.426 12.9428 222.711 12.9233C222.961 12.9055 223.212 12.886 223.462 12.873C223.512 12.8698 223.572 12.8909 223.622 12.9055C223.728 12.9347 223.819 12.9833 223.933 12.9946C224.047 13.006 224.18 12.9849 224.305 12.9768C224.43 12.9687 224.563 12.9444 224.677 12.9541C224.791 12.9638 224.897 13.0044 224.988 13.0401C225.095 13.0822 225.193 13.0871 225.338 13.0708C225.52 13.0498 225.71 13.0449 225.896 13.0336C225.998 13.0644 226.104 13.0952 226.203 13.1292C226.306 13.1649 226.416 13.1616 226.556 13.1503C227.023 13.1114 227.027 13.1162 227.418 13.2168C227.596 13.2622 227.782 13.2249 227.961 13.2135C228.151 13.2006 228.329 13.1941 228.477 13.2589C228.621 13.3205 228.8 13.3286 228.989 13.3092C229.111 13.2962 229.24 13.2881 229.365 13.2832C229.422 13.2816 229.491 13.2881 229.532 13.3011C229.733 13.3692 229.931 13.4308 230.208 13.387C230.451 13.4 230.572 13.5329 230.865 13.507C231.111 13.4843 231.37 13.4794 231.612 13.4502C231.836 13.4243 231.996 13.4697 232.11 13.5264C232.315 13.627 232.603 13.4908 232.808 13.5897C232.926 13.6464 233.078 13.6918 233.305 13.6675C233.556 13.6416 233.636 13.6756 233.708 13.7777C233.75 13.8361 233.742 13.8831 233.666 13.9285C233.59 13.9756 233.507 13.9675 233.385 13.9139C233.245 13.854 233.078 13.8426 232.877 13.8556C232.679 13.8685 232.558 13.7842 232.394 13.7518C232.231 13.7178 232.038 13.7745 231.867 13.7307C231.464 13.6286 231.464 13.6286 231.191 13.648C231.005 13.661 230.812 13.6675 230.629 13.6902C230.413 13.7178 230.273 13.6675 230.124 13.6221C230.071 13.6059 230.018 13.5751 229.973 13.5767C229.536 13.601 229.096 13.6237 228.663 13.6643C228.435 13.6853 228.314 13.627 228.162 13.5864C228.109 13.5718 228.052 13.5427 228.006 13.5459C227.63 13.5686 227.258 13.5978 226.883 13.6253C226.811 13.6691 226.731 13.7113 226.662 13.7583C226.59 13.8069 226.492 13.828 226.347 13.8264C226.108 13.8264 225.873 13.8945 225.634 13.8086C225.387 13.721 225.368 13.7259 225.129 13.7469C224.825 13.7745 224.503 13.768 224.218 13.8313C224.168 13.8426 224.115 13.8734 224.115 13.8961C224.112 13.9107 224.191 13.9318 224.241 13.9447C224.408 13.9837 224.601 13.9269 224.768 13.9674C224.878 13.9934 224.969 14.0323 225.08 14.0599C225.125 14.0712 225.193 14.0696 225.254 14.068C225.319 14.0663 225.379 14.055 225.44 14.0566C225.497 14.0582 225.558 14.068 225.603 14.0826C225.812 14.1442 226.032 14.2009 226.218 14.2739C226.401 14.3452 226.571 14.2966 226.754 14.2933C227.482 14.4068 227.482 14.4084 227.972 14.3728C228.094 14.3647 228.219 14.3549 228.344 14.3566C228.397 14.3566 228.447 14.3857 228.5 14.402C228.652 14.4506 228.796 14.4944 229.008 14.4684C229.191 14.4457 229.384 14.4409 229.57 14.4263C229.821 14.4084 229.821 14.4084 230.246 14.5106C230.352 14.5365 230.466 14.5333 230.603 14.5203C230.72 14.509 230.842 14.5333 230.925 14.5803C230.96 14.5998 230.948 14.6322 230.96 14.6598C230.584 14.6857 230.204 14.7035 229.84 14.7424C229.604 14.7668 229.498 14.697 229.342 14.6598C229.289 14.6468 229.232 14.6192 229.183 14.6225C228.811 14.6468 228.439 14.6743 228.067 14.7068C228.021 14.71 227.965 14.7473 227.961 14.77C227.953 14.8121 228.048 14.8527 228.185 14.8511C228.367 14.8494 228.545 14.8219 228.709 14.8883C228.845 14.9467 229.016 14.9727 229.217 14.9467C229.339 14.9321 229.468 14.9321 229.589 14.9192C229.912 14.8803 230.204 14.8884 230.447 14.9986C230.633 15.0278 230.815 15.0002 230.994 14.9856C231.127 14.9743 231.256 14.9629 231.351 14.9937C231.552 15.0586 231.749 15.1235 232.026 15.0797C232.326 15.1251 232.554 15.2207 232.804 15.2985C232.922 15.3358 233.013 15.3569 233.15 15.3326C233.207 15.3229 233.275 15.3229 233.336 15.318C233.461 15.3099 233.594 15.2856 233.708 15.2953C233.822 15.3067 233.917 15.3537 234.019 15.3829C234.069 15.3975 234.125 15.4218 234.175 15.4201C234.365 15.412 234.551 15.3958 234.737 15.3829C234.923 15.3715 235.109 15.3602 235.295 15.3488C235.45 15.391 235.61 15.4331 235.765 15.4753C236.016 15.4575 236.266 15.4396 236.513 15.4234C236.79 15.4039 236.79 15.4056 237.189 15.5061C237.367 15.5515 237.557 15.5223 237.728 15.5012C238.013 15.4672 238.202 15.5288 238.404 15.5936C238.445 15.6066 238.521 15.6147 238.571 15.6082C238.768 15.5855 238.939 15.6034 239.083 15.6633C239.185 15.7055 239.288 15.725 239.413 15.7169C239.85 15.6861 240.286 15.6536 240.723 15.6261C240.776 15.6228 240.837 15.6374 240.886 15.6504C241.273 15.7493 241.277 15.7541 241.562 15.7282C241.816 15.7055 242.052 15.6958 242.253 15.7849C242.294 15.8044 242.359 15.832 242.405 15.8304C242.716 15.8141 243.031 15.7963 243.338 15.7687C243.479 15.7558 243.578 15.7606 243.688 15.7979C243.828 15.845 243.953 15.9017 244.185 15.8806C244.826 15.8206 244.83 15.8303 245.589 15.9422C245.643 15.9503 245.715 15.9374 245.775 15.9309C245.904 15.9147 245.999 15.9374 246.113 15.9747C246.368 16.059 246.375 16.0541 246.618 16.0363C246.804 16.0217 246.998 16.0184 247.18 15.9941C247.461 15.9584 247.647 16.0217 247.856 16.0817C248.023 16.1287 248.216 16.0898 248.395 16.0752C248.588 16.059 248.763 16.0638 248.907 16.1254C249.006 16.1676 249.112 16.1903 249.237 16.1822C249.674 16.153 250.11 16.1206 250.547 16.0914C250.6 16.0881 250.665 16.1011 250.714 16.1125C251.147 16.213 251.147 16.2179 251.576 16.1806C251.712 16.1692 251.826 16.166 251.929 16.2C252.027 16.2324 252.134 16.2632 252.236 16.294C252.422 16.2827 252.612 16.2795 252.794 16.26C252.935 16.2454 253.033 16.2519 253.143 16.286C253.288 16.3297 253.409 16.4059 253.637 16.3686C253.755 16.3508 253.891 16.3557 254.009 16.3395C254.149 16.3184 254.244 16.3313 254.354 16.3735C254.491 16.4238 254.631 16.4756 254.852 16.4497C255.095 16.4205 255.353 16.4156 255.599 16.3929C255.736 16.38 255.831 16.3929 255.941 16.4351C256.078 16.4886 256.233 16.5227 256.446 16.5016C256.879 16.461 256.882 16.4691 257.304 16.5713C257.41 16.5972 257.524 16.594 257.661 16.581C257.778 16.5697 257.9 16.594 257.983 16.641C258.063 16.6929 258.055 16.7253 258.063 16.7529ZM224.237 2.13012C224.112 2.13823 223.986 2.14796 223.804 2.0069C223.793 1.98258 223.8 1.9534 223.774 1.93233C223.713 1.88855 223.618 1.85775 223.504 1.85288C223.299 1.8464 223.052 1.90151 223.056 1.94367C223.06 1.97934 223.125 2.01014 223.25 2.03932C223.303 2.05067 223.345 2.07013 223.394 2.0831C223.538 2.12039 223.652 2.19336 223.861 2.15607C223.842 2.10581 223.823 2.05555 223.861 2.15607C223.842 2.21768 223.899 2.26146 224.036 2.27929C224.074 2.28416 224.131 2.28091 224.161 2.27118C224.279 2.23551 224.298 2.18688 224.21 2.05879C224.195 2.07987 224.206 2.11715 224.241 2.12688C224.275 2.13661 224.358 2.12851 224.4 2.11716C224.506 2.08635 224.56 2.04582 224.533 2.01177C224.518 1.99393 224.446 1.97124 224.4 1.97124C224.32 1.97124 224.248 2.0069 224.237 2.13012ZM254.931 20.9327C254.654 20.9635 254.335 20.9521 254.058 21.0154C254.009 21.0267 253.96 21.0559 253.956 21.0786C253.952 21.0932 254.028 21.1143 254.074 21.1256C254.176 21.1516 254.29 21.1434 254.423 21.1353C254.624 21.124 254.742 21.1986 254.897 21.2359C254.947 21.2472 255.011 21.2553 255.064 21.2521C255.372 21.2326 255.675 21.2115 255.983 21.1888C256.036 21.184 256.093 21.1726 256.139 21.158C256.29 21.111 256.275 21.0802 256.127 21.0445C255.964 21.0056 255.835 20.9408 255.668 20.91C255.429 20.8662 255.186 20.9246 254.931 20.9327ZM233.374 22.1162C233.188 22.1292 233.006 22.1422 232.82 22.1552C232.759 22.16 232.694 22.1616 232.637 22.1681C232.52 22.1795 232.432 22.2135 232.375 22.267C232.463 22.3092 232.569 22.3335 232.687 22.3286C232.873 22.3189 233.055 22.2978 233.241 22.293C233.442 22.2865 233.56 22.3594 233.715 22.3967C233.765 22.4081 233.826 22.4097 233.882 22.4113C234.163 22.4178 234.334 22.3335 234.281 22.2151C234.243 22.1227 234.099 22.0676 233.924 22.079C233.742 22.0903 233.556 22.1033 233.374 22.1162ZM256.23 18.5363C256.275 18.5088 256.325 18.4893 256.347 18.465C256.416 18.3823 256.389 18.3207 256.264 18.2559C256.112 18.1764 255.926 18.2299 255.755 18.238C255.713 18.2396 255.668 18.2737 255.645 18.2948C255.63 18.3094 255.63 18.3402 255.653 18.3483C255.839 18.4131 256.036 18.4731 256.23 18.5363ZM223.299 13.7469C223.117 13.7599 222.931 13.7696 222.749 13.7875C222.703 13.7923 222.662 13.8231 222.635 13.8442C222.586 13.8831 222.639 13.9366 222.794 13.9415C222.973 13.948 223.159 13.9204 223.345 13.9075C223.58 13.8912 223.721 13.8312 223.633 13.7794C223.55 13.7291 223.436 13.7194 223.299 13.7469ZM23.4809 10.2822C23.6024 10.2741 23.7276 10.2676 23.8491 10.2562C23.963 10.2449 24.0503 10.2092 24.1073 10.1557C24.0124 10.1135 23.9061 10.0908 23.7884 10.0957C23.6024 10.1054 23.4202 10.1184 23.238 10.1346C23.1241 10.1444 23.0141 10.18 22.9875 10.2351C22.9609 10.2773 23.2152 10.3016 23.4809 10.2822ZM207.246 10.0325C207.295 10.0471 207.345 10.0763 207.394 10.0763C207.515 10.0763 207.641 10.0665 207.755 10.0503C207.804 10.0438 207.842 10.0146 207.865 9.99194C207.88 9.97735 207.876 9.95142 207.853 9.93845C207.743 9.86062 207.303 9.88819 207.231 9.97736C207.223 9.99357 207.242 10.0146 207.246 10.0325ZM195.269 1.15408C195.281 1.18002 195.285 1.20596 195.3 1.2319C195.33 1.28054 195.414 1.31622 195.535 1.34054C195.63 1.3 195.679 1.25461 195.676 1.20597C195.672 1.18003 195.66 1.15407 195.645 1.12813C195.615 1.07949 195.531 1.04384 195.41 1.01952C195.315 1.05843 195.269 1.10382 195.269 1.15408ZM265.002 22.3984C264.968 22.4194 264.934 22.4405 264.896 22.46C264.998 22.507 265.093 22.5216 265.165 22.4956C265.211 22.4794 265.238 22.4551 265.272 22.434C265.169 22.387 265.078 22.374 265.002 22.3984ZM262.641 22.6189C262.69 22.6334 262.736 22.6529 262.789 22.6626C262.876 22.6788 262.956 22.6513 263.017 22.5929C262.968 22.5783 262.922 22.5589 262.869 22.5491C262.782 22.5329 262.702 22.5605 262.641 22.6189ZM264.137 22.3222C264.11 22.3611 264.163 22.3935 264.304 22.4211C264.338 22.4 264.383 22.3805 264.406 22.3578C264.444 22.3205 264.38 22.2865 264.243 22.2605C264.205 22.28 264.171 22.3011 264.137 22.3222ZM256.123 20.5744C256.097 20.6133 256.15 20.6457 256.29 20.6733C256.325 20.6522 256.37 20.6327 256.393 20.61C256.431 20.5727 256.366 20.5387 256.23 20.5127C256.192 20.5322 256.158 20.5533 256.123 20.5744ZM245.206 9.10184C245.172 9.12291 245.138 9.14399 245.1 9.16345C245.202 9.21047 245.297 9.22505 245.369 9.19911C245.415 9.1829 245.441 9.15858 245.476 9.1375C245.373 9.09048 245.282 9.07752 245.206 9.10184ZM234.748 3.01536C234.839 3.02671 234.915 3.00402 234.98 2.94403C234.93 2.92944 234.885 2.90998 234.831 2.90025C234.744 2.88404 234.665 2.91161 234.604 2.96998C234.653 2.98619 234.702 3.00077 234.748 3.01536ZM229.194 2.63435C229.16 2.65543 229.126 2.67651 229.088 2.69597C229.191 2.74298 229.286 2.75757 229.358 2.73163C229.403 2.71542 229.43 2.6911 229.464 2.67002C229.361 2.623 229.27 2.61166 229.194 2.63435ZM191.534 1.15246C191.5 1.17353 191.466 1.19461 191.428 1.21407C191.53 1.26109 191.625 1.27567 191.697 1.24973C191.743 1.23352 191.77 1.2092 191.804 1.18812C191.701 1.1411 191.61 1.12976 191.534 1.15246ZM4.01493 14.3436C3.96558 14.329 3.91627 14.3144 3.87072 14.2982C3.76064 14.342 3.72649 14.3825 3.78722 14.4133C3.82518 14.4328 3.88208 14.4441 3.93143 14.4587C4.04531 14.4149 4.07187 14.376 4.01493 14.3436Z" fill="#4F9CF9"/>
<path d="M44.7566 66.4705C44.3992 66.5014 44.045 66.5405 43.6876 66.56C43.498 66.5697 43.4297 66.6397 43.352 66.7048C43.2899 66.7569 43.2184 66.7732 43.1034 66.7829C42.1338 66.8627 41.1673 66.9473 40.2009 67.0303C40.0797 67.0091 40.0206 66.975 40.0486 66.9343C40.0641 66.9099 40.1014 66.8757 40.1387 66.8724C40.8007 66.8122 41.4594 66.7504 42.1245 66.7032C42.314 66.6902 42.3669 66.6186 42.4632 66.56C42.4943 66.5405 42.5192 66.5112 42.5596 66.4998C42.6 66.4868 42.659 66.4884 42.7118 66.4851C43.7809 66.3924 44.8499 66.3013 45.9189 66.2085C46.0401 66.2297 46.0992 66.2638 46.0712 66.3045C46.0556 66.3289 46.0183 66.3631 45.9811 66.3663C45.5708 66.4005 45.1637 66.4347 44.7566 66.4705Z" fill="#4F9CF9"/>
<path d="M240.432 75.1366C240.271 75.1561 240.066 75.1838 239.898 75.0894C239.817 75.0438 239.73 75.0292 239.624 75.039C239.472 75.0553 239.317 75.0683 239.161 75.078C239.121 75.0797 239.068 75.0617 239.028 75.0471C238.941 75.0178 238.866 74.969 238.773 74.956C238.68 74.943 238.568 74.9788 238.471 74.9706C238.344 74.9592 238.291 74.9153 238.325 74.8746C238.344 74.8518 238.381 74.8193 238.422 74.8144C238.997 74.7542 239 74.7542 239.161 74.8128C239.286 74.8583 239.401 74.9088 239.578 74.8811C239.727 74.8583 239.885 74.8534 240.038 74.8388C240.249 74.8193 240.249 74.8209 240.591 74.9234C240.678 74.9495 240.771 74.9478 240.883 74.9332C240.979 74.9218 241.073 74.9478 241.15 74.9918C241.1 75.0471 241.029 75.0829 240.933 75.0927C240.777 75.1089 240.625 75.1203 240.432 75.1366Z" fill="#4F9CF9"/>
<path d="M234.712 74.6352C235.103 74.6011 235.498 74.5718 235.889 74.5327C236.051 74.5165 236.178 74.5344 236.29 74.5897C236.412 74.6499 236.548 74.645 236.697 74.6336C236.791 74.6271 236.881 74.6532 236.943 74.6987C236.968 74.7166 236.962 74.7492 236.971 74.7752C236.629 74.8045 236.284 74.8354 235.939 74.8614C235.899 74.8647 235.849 74.8484 235.812 74.8354C235.728 74.8078 235.656 74.7589 235.566 74.7492C235.374 74.7264 235.181 74.7703 234.985 74.7785C234.892 74.7817 234.802 74.7573 234.74 74.7134C234.715 74.6922 234.721 74.6613 234.712 74.6352Z" fill="#4F9CF9"/>
<path d="M93.2054 60.6431C93.6125 60.6073 94.0196 60.5732 94.4267 60.5374C94.5479 60.5601 94.6038 60.5927 94.579 60.6334C94.5634 60.6578 94.5261 60.6919 94.4889 60.6952C93.6747 60.7684 92.8605 60.8384 92.0494 60.9084C91.9282 60.8856 91.8723 60.853 91.8972 60.8124C91.9127 60.7879 91.95 60.7538 91.9873 60.7505C92.3913 60.7131 92.7983 60.6789 93.2054 60.6431Z" fill="#4F9CF9"/>
<path d="M30.476 69.6863C30.2926 69.6895 30.1 69.7497 29.8949 69.7042C29.8545 69.696 29.7985 69.67 29.8016 69.6554C29.8079 69.6309 29.8452 69.6 29.8855 69.5903C30.0627 69.5496 30.2833 69.5447 30.3735 69.4308C30.417 69.3722 30.4978 69.3527 30.6065 69.3413C30.7215 69.3283 30.8023 69.3331 30.8924 69.3673C31.0105 69.4113 31.11 69.4926 31.2964 69.4503C31.3057 69.4763 31.3274 69.5056 31.3181 69.53C31.3088 69.5545 31.2685 69.5772 31.2312 69.5951C31.197 69.6114 31.1503 69.6261 31.1068 69.6309C30.9017 69.6505 30.6966 69.6668 30.476 69.6863Z" fill="#4F9CF9"/>
<path d="M192.099 69.3591C192.252 69.3461 192.41 69.3396 192.559 69.3168C192.677 69.2989 192.752 69.3103 192.845 69.3493C193.004 69.4177 193.013 69.4112 193.402 69.4209C193.445 69.4226 193.498 69.447 193.523 69.4681C193.538 69.4795 193.517 69.5104 193.498 69.5267C193.47 69.5479 193.429 69.5755 193.392 69.5755C193.147 69.5804 192.898 69.6764 192.659 69.5658C192.538 69.5104 192.404 69.4844 192.239 69.5088C192.14 69.5234 192.034 69.53 191.932 69.5365C191.832 69.543 191.73 69.5251 191.668 69.4763C191.577 69.4047 191.63 69.377 191.792 69.3819C191.894 69.3851 191.997 69.3672 192.099 69.3591Z" fill="#4F9CF9"/>
<path d="M248.416 80.5764C248.612 80.5601 248.808 80.5406 249.007 80.5275C249.047 80.5243 249.097 80.5422 249.134 80.5536C249.283 80.6024 249.261 80.6854 249.268 80.7586C249.271 80.8351 248.926 80.8969 248.78 80.8449C248.618 80.7863 248.472 80.7196 248.248 80.7554C248.161 80.7684 248.059 80.7391 248.003 80.6919C247.919 80.6236 247.966 80.5959 248.124 80.6008C248.217 80.604 248.317 80.5861 248.416 80.5764Z" fill="#4F9CF9"/>
<path d="M149.758 58.4269C149.96 58.409 150.162 58.3813 150.364 58.3797C150.482 58.378 150.541 58.4317 150.514 58.4708C150.498 58.4952 150.461 58.5294 150.423 58.5326C150.019 58.5717 149.615 58.6042 149.211 58.64C149.093 58.6173 149.034 58.5831 149.062 58.544C149.078 58.5196 149.115 58.4871 149.152 58.4822C149.354 58.4594 149.556 58.4448 149.758 58.4269Z" fill="#4F9CF9"/>
<path d="M244.538 75.2801C244.733 75.2638 244.932 75.2394 245.128 75.2313C245.231 75.228 245.311 75.2654 245.324 75.3078C245.33 75.3273 245.28 75.3615 245.24 75.3696C244.96 75.4249 244.659 75.4314 244.367 75.4591C244.273 75.4672 244.174 75.4412 244.118 75.3956C244.034 75.3257 244.081 75.2996 244.239 75.3045C244.339 75.3061 244.438 75.2882 244.538 75.2801Z" fill="#4F9CF9"/>
<path d="M197.226 69.5784C197.326 69.5703 197.428 69.5491 197.525 69.5556C197.627 69.5637 197.693 69.6109 197.724 69.6581C197.758 69.7118 197.755 69.7623 197.724 69.8078C197.674 69.886 197.624 69.8827 197.509 69.8306C197.332 69.7493 197.32 69.759 196.968 69.7623C196.928 69.7623 196.878 69.7379 196.847 69.7167C196.801 69.6842 196.826 69.6337 196.934 69.6044C197.015 69.5833 197.127 69.5865 197.226 69.5784Z" fill="#4F9CF9"/>
<path d="M237.264 74.7461C237.41 74.7331 237.557 74.712 237.703 74.712C237.805 74.7103 237.886 74.7478 237.895 74.7884C237.898 74.808 237.852 74.8405 237.814 74.8503C237.637 74.8942 237.438 74.8975 237.246 74.9121C237.156 74.9186 237.056 74.8926 237 74.847C236.916 74.7787 236.966 74.7478 237.118 74.7575C237.165 74.7608 237.215 74.751 237.264 74.7461Z" fill="#4F9CF9"/>
<path d="M214.272 72.7501C214.054 72.7697 213.849 72.7453 213.865 72.703C213.887 72.6476 213.977 72.6118 214.07 72.602C214.219 72.5858 214.368 72.5728 214.521 72.563C214.617 72.5565 214.704 72.5809 214.782 72.6232C214.735 72.6753 214.664 72.7127 214.57 72.7241C214.474 72.7355 214.371 72.742 214.272 72.7501Z" fill="#4F9CF9"/>
<path d="M212.846 72.5408C212.993 72.5278 213.139 72.5066 213.285 72.5066C213.387 72.505 213.468 72.5424 213.477 72.5831C213.48 72.6026 213.434 72.6352 213.397 72.645C213.219 72.6889 213.02 72.6922 212.828 72.7068C212.738 72.7133 212.638 72.6873 212.582 72.6417C212.498 72.5734 212.548 72.5424 212.7 72.5522C212.747 72.5555 212.797 72.5457 212.846 72.5408Z" fill="#4F9CF9"/>
<path d="M195.466 69.5659C195.612 69.5529 195.758 69.5317 195.904 69.5301C196.006 69.5285 196.087 69.5659 196.096 69.6066C196.099 69.6261 196.053 69.657 196.016 69.6684C195.839 69.7124 195.64 69.7156 195.447 69.7303C195.357 69.7368 195.257 69.7107 195.201 69.6652C195.118 69.5968 195.167 69.5659 195.319 69.5756C195.366 69.5789 195.416 69.5692 195.466 69.5659Z" fill="#4F9CF9"/>
<path d="M194.648 69.4703C194.804 69.4573 194.853 69.4492 194.903 69.4492C194.996 69.4492 195.093 69.4687 195.149 69.5159C195.233 69.5842 195.183 69.6038 195.031 69.607C194.835 69.6103 194.642 69.6445 194.446 69.651C194.344 69.6542 194.263 69.6151 194.257 69.5745C194.254 69.5549 194.3 69.5208 194.338 69.5143C194.468 69.4898 194.611 69.4752 194.648 69.4703Z" fill="#4F9CF9"/>
<path d="M211.582 59.8953C211.482 59.9035 211.377 59.9263 211.284 59.9181C211.159 59.9067 211.11 59.8628 211.141 59.8221C211.159 59.7993 211.193 59.7668 211.231 59.7619C211.43 59.7391 211.632 59.7245 211.83 59.7082C211.949 59.7326 212.001 59.7668 211.97 59.8075C211.952 59.8302 211.917 59.8612 211.88 59.8677C211.784 59.8839 211.681 59.8872 211.582 59.8953Z" fill="#4F9CF9"/>
<path d="M90.9773 60.8343C91.0736 60.8327 91.1606 60.8538 91.2352 60.8945C91.1886 60.9466 91.1202 60.9808 91.027 60.9954C90.9804 61.0019 90.9276 61.0068 90.8778 61.0084C90.7815 61.0117 90.6945 60.9889 90.6199 60.9482C90.6665 60.8961 90.7379 60.862 90.8281 60.8473C90.8747 60.8408 90.9276 60.8392 90.9773 60.8343Z" fill="#4F9CF9"/>
<path d="M243.475 75.2728C243.472 75.2256 243.662 75.1719 243.833 75.1735C243.923 75.1751 244.016 75.1979 244.069 75.2419C244.15 75.3086 244.103 75.3346 243.951 75.3297C243.858 75.3265 243.758 75.3541 243.665 75.3492C243.559 75.3476 243.497 75.3118 243.475 75.2728Z" fill="#4F9CF9"/>
<path d="M198.132 69.7765C198.129 69.7586 198.113 69.7375 198.123 69.7212C198.182 69.6317 198.539 69.604 198.633 69.6821C198.648 69.6968 198.654 69.7212 198.642 69.7358C198.623 69.7586 198.589 69.7879 198.552 69.7944C198.455 69.8107 198.356 69.8188 198.256 69.8204C198.213 69.8204 198.173 69.7928 198.132 69.7765Z" fill="#4F9CF9"/>
<path d="M31.5823 69.4254C31.2156 69.4596 31.2094 69.4563 31.2746 69.3749C31.3337 69.3017 31.4424 69.2578 31.6009 69.2578C31.6475 69.2578 31.6972 69.2545 31.7376 69.261C31.7812 69.2692 31.8433 69.2854 31.8527 69.3049C31.8713 69.3424 31.8184 69.3831 31.7252 69.4107C31.6848 69.4237 31.632 69.4205 31.5823 69.4254Z" fill="#4F9CF9"/>
<path d="M95.567 60.6056C95.4582 60.6332 95.365 60.6235 95.2967 60.5714C95.2283 60.5193 95.3371 60.4575 95.5266 60.4428C95.5763 60.4396 95.6292 60.4266 95.6758 60.4331C95.7224 60.438 95.7691 60.4575 95.797 60.477C95.8467 60.5095 95.8157 60.5535 95.7162 60.5909C95.6758 60.6056 95.6167 60.6023 95.567 60.6056Z" fill="#4F9CF9"/>
<path d="M242.831 75.1506C242.859 75.1295 242.887 75.1083 242.918 75.0888C243.033 75.1165 243.083 75.149 243.052 75.1864C243.033 75.2092 242.996 75.2288 242.968 75.2499C242.853 75.2222 242.807 75.1881 242.831 75.1506Z" fill="#4F9CF9"/>
<path d="M36.4988 87.9508C36.4988 87.9313 36.5423 87.9004 36.5765 87.8939C36.6417 87.8825 36.7225 87.9053 36.7784 87.9508C36.8561 88.0159 36.8096 88.0501 36.6666 88.0322C36.5672 88.0192 36.4988 87.9866 36.4988 87.9508Z" fill="#4F9CF9"/>
<path d="M199.392 68.2603C199.432 68.2749 199.472 68.2896 199.51 68.3058C199.457 68.3661 199.392 68.3921 199.323 68.3758C199.28 68.366 199.242 68.3465 199.202 68.3319C199.255 68.2717 199.317 68.2489 199.392 68.2603Z" fill="#4F9CF9"/>
<path d="M198.321 68.1871C198.383 68.1627 198.458 68.1757 198.545 68.2229C198.517 68.2441 198.492 68.2685 198.458 68.2848C198.399 68.3108 198.321 68.2978 198.237 68.2489C198.262 68.2294 198.29 68.2083 198.321 68.1871Z" fill="#4F9CF9"/>
<path d="M197.495 68.2591C197.535 68.2737 197.576 68.2884 197.613 68.3047C197.56 68.3649 197.498 68.3909 197.427 68.3746C197.383 68.3649 197.346 68.3453 197.305 68.3307C197.358 68.2705 197.42 68.2461 197.495 68.2591Z" fill="#4F9CF9"/>
<path d="M196.89 68.1727C196.937 68.2053 196.912 68.2443 196.822 68.2882C196.781 68.2736 196.735 68.2622 196.704 68.2427C196.654 68.2118 196.679 68.1711 196.772 68.1271C196.809 68.1434 196.85 68.1581 196.89 68.1727Z" fill="#4F9CF9"/>
</svg>
