<svg width="748" height="547" viewBox="0 0 748 547" fill="none" xmlns="http://www.w3.org/2000/svg">
<g clip-path="url(#clip0_1_5080)">
<path d="M74.1666 511.605C21.4885 454.246 -5.07086 392.808 14.4214 301.537C27.3085 241.193 68.558 233.989 106.403 197.704C125.08 179.797 113.333 153.732 112.986 127.862C112.195 61.6116 186.13 10.2028 254.103 11.2758C327.729 12.4377 359.6 86.4579 421.361 90.428C445.613 90.8001 467.329 76.5668 488.786 65.2612C552.365 31.7609 653.25 53.1241 658.348 134.139C659.665 177.891 626.128 227.75 676.019 250.762C715.782 269.101 739.693 296.387 746.858 361.982C756.237 447.838 706.653 494.959 642.041 517.054L74.1666 511.605Z" fill="#E3EAFF"/>
<path d="M702.861 401.399C702.861 401.399 704.797 412.702 690.604 426.673C676.138 440.906 673.524 453.446 673.524 453.446L663.486 457.326C663.486 457.326 668.37 438.573 680.538 427.688C695.787 414.083 702.861 401.399 702.861 401.399Z" fill="#A9B9EB"/>
<path d="M723.927 414.69C723.927 414.69 722.594 423.038 709.386 430.696C695.907 438.481 691.138 447.003 691.138 447.003L682.893 449.902C682.893 449.902 691.037 435.586 702.122 429.805C715.977 422.564 723.927 414.69 723.927 414.69Z" fill="#A9B9EB"/>
<path d="M679.771 413.521C679.771 413.521 671.027 415.944 659.617 434.159C650.317 449.002 651.041 458.732 645.281 467.807L658.998 460.557C662.061 453.76 659.177 447.56 666.958 433.692C674.239 420.706 679.771 413.521 679.771 413.521Z" fill="#A9B9EB"/>
<path d="M595.746 451.167C595.746 451.167 589.826 458.078 590.519 479.541C591.074 497.051 598.399 501.924 598.701 506.024L604.895 499.457C602.73 491.898 597.623 490.922 596.349 475.07C595.167 460.2 595.746 451.167 595.746 451.167Z" fill="#A9B9EB"/>
<path d="M659.043 420.118C659.043 420.118 649.306 432.387 645.073 440.905C639.032 453.002 641.651 461.535 636.37 474.335L626.398 480.36C626.398 480.36 625.049 464.508 633.099 449.88C646.606 425.33 659.043 420.118 659.043 420.118Z" fill="#A9B9EB"/>
<path d="M632.546 418.146C631.063 426.807 628.321 435.206 624.407 443.075C612.375 466.833 618.878 490.337 618.878 490.337L611.919 493.48C611.919 493.48 600.455 474.66 611.12 454.991C622.414 434.217 632.546 418.146 632.546 418.146Z" fill="#A9B9EB"/>
<path d="M657.84 462.135C657.84 462.135 664.454 462.133 687.765 473.9C702.701 481.446 700.227 473.895 713.409 483.602C701.822 480.608 695.083 487.455 680.784 481.244C669.35 476.269 657.544 472.197 645.475 469.066L657.84 462.135Z" fill="#A9B9EB"/>
<path d="M699.561 494.8C699.561 494.8 685.693 503.469 664.584 494.24C651.58 488.593 637.735 485.123 623.604 483.968L634.008 475.374C634.008 475.374 645.29 472.042 666.317 483.746C680.766 491.784 699.561 494.8 699.561 494.8Z" fill="#A9B9EB"/>
<path d="M679.35 510.804C679.35 510.804 665.482 519.473 644.373 510.244C631.368 504.597 617.523 501.127 603.392 499.973L613.796 491.379C613.796 491.379 625.079 488.047 646.105 499.751C660.554 507.788 679.35 510.804 679.35 510.804Z" fill="#A9B9EB"/>
<path d="M728.924 460.579C728.924 460.579 719.792 464.388 706.672 458.054C693.369 451.625 682.135 450.996 682.135 450.996L687.476 448.301C687.476 448.301 694.607 446.195 707.9 453.588C717.043 458.668 728.924 460.579 728.924 460.579Z" fill="#A9B9EB"/>
<path d="M673.894 455.589C673.894 455.589 684.939 458.289 700.119 465.225C709.71 469.571 724.969 468.282 724.969 468.282C724.969 468.282 709.807 478.851 695.797 471.426C679.733 462.907 662.175 459.255 662.175 459.255L673.894 455.589Z" fill="#A9B9EB"/>
<path d="M685.86 449.57C685.86 449.57 699.639 438.818 715.485 441.336C724.888 442.749 734.462 442.581 743.81 440.839C743.81 440.839 730.502 452.26 716.207 448.383C703.002 444.838 691.08 450.154 691.08 450.154L685.86 449.57Z" fill="#A9B9EB"/>
<path d="M599.813 506.702L597.911 504.978C608.545 493.247 650.324 457.701 690.843 446.958L691.5 449.44C651.544 460.038 610.316 495.124 599.813 506.702Z" fill="#A9B9EB"/>
<path d="M620.261 435.484C613.007 425.693 612.032 413.095 617.337 397.69C624.929 412.115 625.904 424.713 620.261 435.484Z" fill="#A9B9EB"/>
<path d="M630.299 414.179C625.113 404.356 625.973 392.873 632.88 379.732C637.74 393.778 636.879 405.26 630.299 414.179Z" fill="#A9B9EB"/>
<path d="M641.327 393.103C637.827 383.147 640.239 372.478 648.564 361.093C651.192 374.968 648.78 385.639 641.327 393.103Z" fill="#A9B9EB"/>
<path d="M666.184 349.308C665.901 361.245 662.021 369.653 654.54 374.531C653.412 365.649 657.293 357.242 666.184 349.308Z" fill="#A9B9EB"/>
<path d="M681.852 345.146C679.847 354.937 675.409 361.285 668.539 364.19C668.914 356.726 673.353 350.378 681.852 345.146Z" fill="#A9B9EB"/>
<path d="M676.327 364.903C679.344 358.069 685.762 353.728 695.579 351.879C690.196 360.307 683.779 364.648 676.327 364.903Z" fill="#A9B9EB"/>
<path d="M657.959 421.247C647.269 433.739 635.81 439.325 623.583 438.005C630.067 427.59 641.526 422.005 657.959 421.247Z" fill="#A9B9EB"/>
<path d="M642.674 401C650.573 394.783 660.949 393.685 673.802 397.705C662.089 404.307 651.713 405.405 642.674 401Z" fill="#A9B9EB"/>
<path d="M679.649 384.555C669.459 390.31 660.431 391.266 652.566 387.423C659.434 382.008 668.462 381.052 679.649 384.555Z" fill="#A9B9EB"/>
<path d="M665.123 375.74C671.997 370.345 681.025 369.389 692.206 372.872C682.01 378.628 672.982 379.583 665.123 375.74Z" fill="#A9B9EB"/>
<path d="M615.518 459.519C623.057 431.36 623.739 433.676 631.085 417.423C633.065 413.031 635.16 408.873 637.369 404.95C641.995 396.97 647.474 389.514 653.708 382.715C660.853 374.597 666.995 369.306 672.132 366.842L672.631 366.299C672.711 366.094 672.929 365.977 673.145 366.021C673.345 365.937 673.571 365.94 673.769 366.028C673.938 366.181 674.068 366.37 674.151 366.581C674.235 366.781 674.232 367.008 674.144 367.206L673.949 367.629C673.793 367.795 673.605 367.928 673.396 368.02L673.395 368.124L672.929 368.299C667.962 370.815 662.004 375.991 655.058 383.827C648.934 390.597 643.57 398.016 639.06 405.953C636.755 409.918 634.655 413.999 632.77 418.18L632.284 419.273C639.452 410.846 650.413 407.389 665.168 408.902C653.974 418.614 643.013 422.07 632.284 419.273C625.162 435.282 624.691 432.492 617.349 459.946L615.518 459.519Z" fill="#A9B9EB"/>
<path d="M322.349 487.375C310.801 491.266 298.514 488.318 285.488 478.531C301.549 475.744 313.836 478.692 322.349 487.375Z" fill="#A9B9EB"/>
<path d="M305.165 471.27C294.222 473.182 283.561 468.831 273.182 458.217C288.042 457.914 298.702 462.265 305.165 471.27Z" fill="#A9B9EB"/>
<path d="M288.504 454.293C277.954 454.56 268.544 448.983 260.273 437.56C274.283 439.328 283.694 444.906 288.504 454.293Z" fill="#A9B9EB"/>
<path d="M254.479 417.169C265.751 421.11 272.556 427.39 274.897 436.008C266.099 434.349 259.293 428.069 254.479 417.169Z" fill="#A9B9EB"/>
<path d="M255.339 400.98C264.039 405.9 268.714 412.076 269.363 419.507C262.377 416.853 257.702 410.678 255.339 400.98Z" fill="#A9B9EB"/>
<path d="M272.439 412.315C266.865 407.342 264.708 399.9 265.969 389.99C272.332 397.704 274.489 405.146 272.439 412.315Z" fill="#A9B9EB"/>
<path d="M320.399 447.126C328.997 461.141 330.787 473.762 325.77 484.991C317.854 475.618 316.065 462.996 320.399 447.126Z" fill="#A9B9EB"/>
<path d="M296.432 455.44C292.946 446.012 295.094 435.801 302.873 424.809C305.551 437.985 303.404 448.196 296.432 455.44Z" fill="#A9B9EB"/>
<path d="M292.159 415.2C294.501 426.666 292.633 435.55 286.556 441.852C283.517 433.651 285.385 424.767 292.159 415.2Z" fill="#A9B9EB"/>
<path d="M279.304 426.31C276.284 418.109 278.152 409.225 284.906 399.659C287.246 411.13 285.378 420.015 279.304 426.31Z" fill="#A9B9EB"/>
<path d="M343.758 499.283C319.285 483.446 321.698 483.51 308.494 471.521C304.923 468.285 301.612 465.013 298.558 461.705C292.388 454.847 286.98 447.341 282.428 439.316C276.902 430.02 273.757 422.55 272.993 416.904L272.63 416.262C272.459 416.122 272.414 415.879 272.523 415.688C272.505 415.471 272.577 415.257 272.722 415.096C272.919 414.982 273.139 414.916 273.366 414.903C273.582 414.884 273.796 414.956 273.958 415.102L274.301 415.417C274.411 415.616 274.479 415.837 274.502 416.063L274.601 416.096L274.624 416.593C275.49 422.094 278.582 429.355 283.902 438.375C288.459 446.284 293.868 453.671 300.033 460.403C303.096 463.817 306.334 467.07 309.732 470.151L310.621 470.949C304.809 461.536 304.892 450.043 310.871 436.47C316.667 450.108 316.584 461.601 310.621 470.949C323.663 482.65 320.863 482.24 344.728 497.672L343.758 499.283Z" fill="#A9B9EB"/>
<path d="M449.021 397.07C449.021 397.07 451.273 406.523 440.031 419.108C428.573 431.929 427.044 442.676 427.044 442.676L418.767 446.502C418.767 446.502 421.877 430.379 431.575 420.514C443.729 408.18 449.021 397.07 449.021 397.07Z" fill="#A9B9EB"/>
<path d="M467.557 407.164C467.557 407.164 466.883 414.294 456.132 421.488C445.157 428.804 441.588 436.269 441.588 436.269L434.773 439.169C434.773 439.169 440.882 426.621 449.941 421.13C461.262 414.253 467.557 407.164 467.557 407.164Z" fill="#A9B9EB"/>
<path d="M430.155 408.575C430.155 408.575 422.893 411.099 414.236 427.122C407.179 440.179 408.32 448.367 403.943 456.353L415.148 449.477C417.368 443.564 414.592 438.478 420.418 426.328C425.869 414.951 430.155 408.575 430.155 408.575Z" fill="#A9B9EB"/>
<path d="M361.153 444.977C361.153 444.977 356.522 451.141 358.275 469.253C359.696 484.028 366.155 487.751 366.634 491.202L371.514 485.311C369.272 479.038 364.9 478.49 362.961 465.156C361.154 452.646 361.153 444.977 361.153 444.977Z" fill="#A9B9EB"/>
<path d="M412.987 415.28C412.987 415.28 405.42 426.185 402.304 433.617C397.854 444.174 400.533 451.248 396.763 462.359L388.658 467.995C388.658 467.995 386.656 454.664 392.668 441.857C402.754 420.364 412.987 415.28 412.987 415.28Z" fill="#A9B9EB"/>
<path d="M390.475 415.053C389.691 422.459 387.829 429.71 384.947 436.576C376.065 457.319 382.842 476.84 382.842 476.84L377.129 479.876C377.129 479.876 366.411 464.586 374.36 447.374C382.781 429.194 390.475 415.053 390.475 415.053Z" fill="#A9B9EB"/>
<path d="M414.255 450.875C414.255 450.875 419.847 450.514 440.198 459.196C453.238 464.765 450.736 458.515 462.41 466.007C452.449 464.105 447.124 470.261 434.694 465.786C424.756 462.201 414.552 459.4 404.176 457.409L414.255 450.875Z" fill="#A9B9EB"/>
<path d="M451.309 476.228C451.309 476.228 440.054 484.312 421.703 477.656C410.399 473.588 398.503 471.407 386.492 471.199L394.822 463.366C394.822 463.366 404.181 459.936 422.597 468.689C435.252 474.7 451.309 476.228 451.309 476.228Z" fill="#A9B9EB"/>
<path d="M435.088 490.859C435.088 490.859 423.833 498.943 405.482 492.287C394.178 488.219 382.283 486.037 370.271 485.829L378.601 477.997C378.601 477.997 387.96 474.566 406.377 483.32C419.031 489.331 435.088 490.859 435.088 490.859Z" fill="#A9B9EB"/>
<path d="M474.277 445.694C474.277 445.694 466.763 449.412 455.324 444.77C443.726 440.056 434.193 440.135 434.193 440.135L438.562 437.566C438.562 437.566 444.477 435.397 456.12 440.926C464.127 444.725 474.277 445.694 474.277 445.694Z" fill="#A9B9EB"/>
<path d="M427.473 444.467C427.473 444.467 436.959 446.15 450.173 451.189C458.519 454.343 471.352 452.423 471.352 452.423C471.352 452.423 459.106 462.184 446.855 456.668C432.809 450.338 417.763 448.204 417.763 448.204L427.473 444.467Z" fill="#A9B9EB"/>
<path d="M437.264 438.727C437.264 438.727 448.331 428.887 461.867 430.154C469.895 430.837 477.981 430.174 485.791 428.194C485.791 428.194 475.159 438.575 462.86 436.073C451.502 433.793 441.71 438.937 441.71 438.937L437.264 438.727Z" fill="#A9B9EB"/>
<path d="M367.61 491.715L365.908 490.36C374.262 479.863 407.658 447.534 441.336 436.247L442.026 438.311C408.817 449.444 375.862 481.354 367.61 491.715Z" fill="#A9B9EB"/>
<path d="M41.207 398.767C41.207 398.767 38.0781 408.582 48.9675 422.777C60.0669 437.239 60.8319 448.721 60.8319 448.721L69.2805 453.422C69.2805 453.422 67.2684 436.13 57.7959 424.932C45.9228 410.931 41.207 398.767 41.207 398.767Z" fill="#A9B9EB"/>
<path d="M20.8115 407.97C20.8115 407.97 20.9592 415.562 31.7566 424.019C42.7807 432.622 45.963 440.797 45.963 440.797L52.9383 444.402C52.9383 444.402 47.4734 430.653 38.3303 424.13C26.9051 415.965 20.8115 407.97 20.8115 407.97Z" fill="#A9B9EB"/>
<path d="M60.2419 412.423C60.2419 412.423 67.7198 415.666 75.6045 433.292C82.0318 447.655 80.1774 456.221 84.1724 465.01L72.8708 456.854C70.9916 450.426 74.329 445.269 69.1314 431.963C64.2691 419.504 60.2419 412.423 60.2419 412.423Z" fill="#A9B9EB"/>
<path d="M130.312 456.37C130.312 456.37 134.72 463.254 131.433 482.263C128.76 497.771 121.638 501.196 120.858 504.806L116.165 498.192C119.032 491.737 123.697 491.504 126.803 477.56C129.704 464.478 130.312 456.37 130.312 456.37Z" fill="#A9B9EB"/>
<path d="M77.8621 420.871C77.8621 420.871 84.9985 432.998 87.7046 441.103C91.573 452.616 88.1819 459.883 91.288 471.927L99.4099 478.528C99.4099 478.528 102.582 464.593 97.2404 450.577C88.2785 427.056 77.8621 420.871 77.8621 420.871Z" fill="#A9B9EB"/>
<path d="M101.681 422.413C101.922 430.304 103.317 438.117 105.821 445.604C113.569 468.238 104.859 488.34 104.859 488.34L110.659 492.002C110.659 492.002 123.2 476.685 116.159 457.859C108.695 437.972 101.681 422.413 101.681 422.413Z" fill="#A9B9EB"/>
<path d="M73.7042 458.402C73.7042 458.402 67.8204 457.578 45.6174 465.146C31.3903 470.002 34.5308 463.591 21.5955 470.588C32.2772 469.366 37.4202 476.296 50.9149 472.549C61.7061 469.545 72.7159 467.392 83.8434 466.107L73.7042 458.402Z" fill="#A9B9EB"/>
<path d="M32.5227 482.273C32.5227 482.273 43.7823 491.71 63.7103 486.126C75.9829 482.72 88.7319 481.355 101.447 482.086L93.2605 473.146C93.2605 473.146 83.6372 468.778 63.474 476.575C49.6199 481.928 32.5227 482.273 32.5227 482.273Z" fill="#A9B9EB"/>
<path d="M48.5132 499.026C48.5132 499.026 59.7728 508.463 79.7011 502.879C91.9737 499.473 104.723 498.108 117.438 498.839L109.251 489.899C109.251 489.899 99.628 485.531 79.4647 493.328C65.6106 498.681 48.5132 499.026 48.5132 499.026Z" fill="#A9B9EB"/>
<path d="M10.6572 448.174C10.6572 448.174 18.3073 452.699 30.7682 448.697C43.4027 444.632 53.4757 445.47 53.4757 445.47L49.0597 442.408C49.0597 442.408 42.9775 439.647 30.231 444.571C21.4648 447.952 10.6572 448.174 10.6572 448.174Z" fill="#A9B9EB"/>
<path d="M60.2366 450.581C60.2366 450.581 50.0741 451.609 35.7056 455.891C26.6323 458.564 13.2166 455.519 13.2166 455.519C13.2166 455.519 25.3914 466.808 38.7799 461.946C54.1311 456.366 70.2067 455.3 70.2067 455.3L60.2366 450.581Z" fill="#A9B9EB"/>
<path d="M50.3391 443.738C50.3391 443.738 39.4182 432.458 25.0073 432.726C16.4653 432.814 7.96895 431.473 -0.131348 428.76C-0.131348 428.76 10.2876 440.578 23.4878 438.905C35.6774 437.394 45.6223 443.608 45.6223 443.608L50.3391 443.738Z" fill="#A9B9EB"/>
<path d="M119.785 505.272L121.692 503.975C113.691 492.215 80.9428 455.393 46.2314 440.794L45.3374 442.921C79.567 457.32 111.882 493.665 119.785 505.272Z" fill="#A9B9EB"/>
<path d="M231.422 80.6989C233.964 78.7779 237.015 77.8169 240.575 77.8169C248.259 77.8169 252.328 81.9983 252.328 87.8745C252.328 91.2648 250.689 94.7109 247.355 98.1577C243.118 102.621 240.067 104.825 238.146 104.825C236.281 104.825 234.925 103.356 234.925 101.604C234.925 100.022 236.394 98.4401 238.937 96.1234C239.106 95.9541 239.275 95.7845 239.388 95.728C242.27 93.0724 243.174 91.6034 243.174 89.7952C243.174 87.535 241.649 86.2922 239.445 86.2922C238.428 86.2922 237.241 86.5183 235.829 86.9703C234.417 87.422 233.4 87.6481 232.778 87.6481C231.196 87.6481 229.388 86.2922 229.388 84.032C229.387 82.846 230.066 81.7162 231.422 80.6989ZM239.163 118.386C235.716 118.386 233.399 115.787 233.399 112.622C233.399 109.91 235.716 107.311 239.163 107.311C242.157 107.311 244.474 109.91 244.474 112.622C244.474 115.73 242.27 118.386 239.163 118.386Z" fill="white"/>
<path d="M617.593 230.869C619.585 229.363 621.977 228.611 624.767 228.611C630.79 228.611 633.978 231.888 633.978 236.493C633.978 239.151 632.694 241.852 630.081 244.553C626.76 248.052 624.368 249.779 622.863 249.779C621.401 249.779 620.338 248.628 620.338 247.255C620.338 246.015 621.49 244.775 623.482 242.959C623.615 242.826 623.748 242.693 623.837 242.649C626.095 240.568 626.803 239.416 626.803 237.999C626.803 236.228 625.608 235.254 623.881 235.254C623.084 235.254 622.154 235.431 621.046 235.785C619.939 236.139 619.142 236.316 618.655 236.316C617.415 236.316 615.998 235.254 615.998 233.482C615.998 232.552 616.529 231.666 617.593 230.869ZM623.659 260.407C620.958 260.407 619.142 258.37 619.142 255.89C619.142 253.765 620.958 251.728 623.659 251.728C626.007 251.728 627.822 253.765 627.822 255.89C627.822 258.326 626.095 260.407 623.659 260.407Z" fill="white"/>
<path d="M521.301 263.912H428.996C427.364 263.912 426.041 262.589 426.041 260.957V181.501C426.041 179.869 427.364 178.546 428.996 178.546C430.628 178.546 431.951 179.869 431.951 181.501V258.002H521.301C522.933 258.002 524.256 259.325 524.256 260.957C524.256 262.589 522.934 263.912 521.301 263.912Z" fill="#CDD8FA"/>
<path d="M435.984 244.49C435.244 244.49 434.504 244.214 433.93 243.66C432.757 242.525 432.725 240.654 433.859 239.481L463.692 208.621C464.675 207.604 466.239 207.426 467.425 208.196L481.533 217.346L496.409 200.061C497.474 198.824 499.34 198.685 500.576 199.749C501.813 200.813 501.953 202.679 500.889 203.916L484.33 223.157C483.365 224.277 481.722 224.513 480.482 223.708L466.25 214.477L438.108 243.589C437.529 244.188 436.756 244.49 435.984 244.49Z" fill="#F5A3B7"/>
<path d="M500.953 212.731L496.743 204.202L487.682 201.31L507.854 191.292L500.953 212.731Z" fill="#F5A3B7"/>
<path d="M168.213 122.765C159.233 122.765 151.926 115.458 151.926 106.477C151.926 97.4967 159.233 90.1904 168.213 90.1904C177.194 90.1904 184.501 97.4967 184.501 106.477C184.501 115.458 177.194 122.765 168.213 122.765ZM168.213 94.6761C161.706 94.6761 156.412 99.9699 156.412 106.477C156.412 112.985 161.706 118.279 168.213 118.279C174.72 118.279 180.015 112.985 180.015 106.477C180.015 99.9699 174.72 94.6761 168.213 94.6761Z" fill="white"/>
<path d="M700.749 319.463C692.981 319.463 686.662 313.144 686.662 305.377C686.662 297.61 692.981 291.291 700.749 291.291C708.516 291.291 714.835 297.61 714.835 305.377C714.835 313.144 708.516 319.463 700.749 319.463ZM700.749 295.17C695.12 295.17 690.542 299.749 690.542 305.377C690.542 311.005 695.12 315.583 700.749 315.583C706.377 315.583 710.955 311.005 710.955 305.377C710.955 299.749 706.377 295.17 700.749 295.17Z" fill="white"/>
<path d="M38.8153 317.794C32.909 317.794 28.1038 312.989 28.1038 307.082C28.1038 301.176 32.909 296.371 38.8153 296.371C44.7217 296.371 49.5269 301.176 49.5269 307.082C49.5269 312.989 44.722 317.794 38.8153 317.794ZM38.8153 299.32C34.5359 299.32 31.0539 302.802 31.0539 307.082C31.0539 311.362 34.5357 314.843 38.8153 314.843C43.095 314.843 46.5767 311.362 46.5767 307.082C46.577 302.802 43.095 299.32 38.8153 299.32Z" fill="white"/>
<path d="M674.545 234.8C670.45 234.8 667.118 231.468 667.118 227.372C667.118 223.277 670.45 219.945 674.545 219.945C678.64 219.945 681.972 223.277 681.972 227.372C681.972 231.468 678.64 234.8 674.545 234.8ZM674.545 221.99C671.577 221.99 669.163 224.405 669.163 227.372C669.163 230.339 671.577 232.753 674.545 232.753C677.512 232.753 679.927 230.339 679.927 227.372C679.927 224.405 677.512 221.99 674.545 221.99Z" fill="#E3EAFF"/>
<path d="M95.1472 193.743C100.994 191.321 103.771 184.618 101.349 178.771C98.9268 172.924 92.2236 170.148 86.3767 172.57C80.5299 174.992 77.7534 181.695 80.1753 187.542C82.5972 193.389 89.3004 196.165 95.1472 193.743Z" fill="#E3EAFF"/>
<path d="M457.911 66.2971C457.911 72.6256 452.781 77.7561 446.453 77.7561C440.124 77.7561 434.994 72.6256 434.994 66.2971C434.994 59.9689 440.124 54.8384 446.453 54.8384C452.781 54.8384 457.911 59.9689 457.911 66.2971Z" fill="#E3EAFF"/>
<path d="M551.631 185.939C551.631 190.021 548.322 193.33 544.24 193.33C540.158 193.33 536.849 190.021 536.849 185.939C536.849 181.857 540.158 178.547 544.24 178.547C548.322 178.547 551.631 181.857 551.631 185.939Z" fill="white"/>
<path d="M724.606 338.5C724.606 342.582 721.297 345.892 717.215 345.892C713.133 345.892 709.824 342.582 709.824 338.5C709.824 334.418 713.133 331.109 717.215 331.109C721.297 331.109 724.606 334.418 724.606 338.5Z" fill="white"/>
<path d="M676.795 204.714C676.795 211.043 671.664 216.173 665.336 216.173C659.008 216.173 653.877 211.043 653.877 204.714C653.877 198.386 659.008 193.255 665.336 193.255C671.665 193.255 676.795 198.386 676.795 204.714Z" fill="#E3EAFF"/>
<path d="M204.727 80.5578C204.727 85.6935 200.564 89.8567 195.428 89.8567C190.293 89.8567 186.13 85.6935 186.13 80.5578C186.13 75.4228 190.293 71.2593 195.428 71.2593C200.564 71.2593 204.727 75.4228 204.727 80.5578Z" fill="white"/>
<path d="M286.074 282.774C286.074 287.91 281.911 292.073 276.776 292.073C271.64 292.073 267.477 287.91 267.477 282.774C267.477 277.639 271.64 273.476 276.776 273.476C281.911 273.476 286.074 277.639 286.074 282.774Z" fill="white"/>
<path d="M379.05 536.444C551.799 536.444 691.84 524.943 691.84 510.755C691.84 496.568 551.799 485.067 379.05 485.067C206.301 485.067 66.2598 496.568 66.2598 510.755C66.2598 524.943 206.301 536.444 379.05 536.444Z" fill="#95A6DB"/>
<path d="M216.415 513.103L205.545 513.046L234.134 384.68L244.529 386.867L216.415 513.103Z" fill="#617AC9"/>
<path d="M479.99 513.103L490.859 513.046L462.271 384.68L451.875 386.867L479.99 513.103Z" fill="#617AC9"/>
<path d="M413.761 492.296C411.648 492.296 409.936 490.583 409.936 488.47V419.816H417.587V488.47C417.587 490.583 415.874 492.296 413.761 492.296Z" fill="#0E6A41"/>
<path d="M321.576 492.296C319.463 492.296 317.751 490.583 317.751 488.47V419.816H325.402V488.47C325.402 490.583 323.689 492.296 321.576 492.296Z" fill="#0E6A41"/>
<path d="M418.078 419.954H315.665C312.257 419.954 309.495 417.191 309.495 413.783V412.62C309.495 409.212 312.257 406.45 315.665 406.45H418.078C421.486 406.45 424.248 409.212 424.248 412.62V413.783C424.248 417.191 421.486 419.954 418.078 419.954Z" fill="#3F964F"/>
<path d="M401.472 293.367C408.468 295.41 435.404 324.3 441.854 345.677C438.361 364.899 407.844 374.88 407.844 374.88L407.335 359.984C407.335 359.984 417.355 353.313 421.939 345.677C414.639 340.413 400.253 322.705 400.253 322.705L401.472 293.367Z" fill="#201D40"/>
<path d="M334.269 293.367C327.272 295.41 309.923 323.179 302.812 348.284C284.202 360.396 269.612 373.689 269.612 373.689L286.894 374.828C286.894 374.828 309.569 369.24 321.576 356.209C326.58 346.011 335.487 322.705 335.487 322.705L334.269 293.367Z" fill="#201D40"/>
<path d="M379.247 288.024L355.704 289.07L353.33 312.105L355.896 377.838L380.723 377.528L387.212 303.943L379.247 288.024Z" fill="#95A6DB"/>
<path d="M351.25 253.22C354.528 249.452 357.114 253.108 361.788 248.443C366.462 243.778 370.215 240.421 374.216 245.343C378.218 250.265 380.278 250.956 383.19 250.674C386.102 250.392 386.086 262.37 386.086 262.37C386.086 262.37 393.208 260.492 393.775 252.515C394.443 243.111 390.087 244.522 387.728 237.01C385.368 229.498 376.259 225.259 372.091 227.063C367.696 228.965 365.389 231.057 358.989 229.502C352.589 227.947 347.076 229.831 347.086 238.129C347.097 246.427 337.339 243.951 340.462 254.313C341.674 258.333 345.071 262.032 346.648 261.71C348.76 261.278 349.136 255.649 351.25 253.22Z" fill="#2C2858"/>
<path d="M384.281 261.233C382.712 264.26 383.159 268.004 385.281 269.596C387.402 271.187 390.394 270.023 391.964 266.996C393.533 263.969 393.086 260.225 390.964 258.634C388.843 257.042 385.851 258.206 384.281 261.233Z" fill="#F37A50"/>
<path d="M387.115 268.101C387.172 268.106 387.231 268.101 387.289 268.085C387.611 267.995 387.821 267.605 387.759 267.214C387.445 265.253 387.611 263.805 388.237 263.026C389.081 261.977 390.581 262.291 390.596 262.294C390.916 262.364 391.231 262.102 391.3 261.709C391.369 261.316 391.168 260.939 390.85 260.867C390.763 260.847 388.72 260.405 387.413 262.018C386.471 263.182 386.195 265.039 386.595 267.54C386.646 267.859 386.863 268.08 387.115 268.101Z" fill="#DE623C"/>
<path d="M359.558 293.822L367.749 300.301L376.063 293.822L377.164 277.99H358.457L359.558 293.822Z" fill="#DE623C"/>
<path d="M334.009 293.368L334.436 377.839C342.451 384.418 358.162 386.216 358.162 386.216L355.305 290.606L334.009 293.368Z" fill="#2C2858"/>
<path d="M402.195 293.368L401.769 377.839C393.753 384.418 378.764 386.395 378.764 386.395L380.899 290.606L402.195 293.368Z" fill="#2C2858"/>
<path d="M343.798 304.147L357.33 362.529L355.276 289.575L343.798 304.147Z" fill="#494C7F"/>
<path d="M393.119 300.103L379.247 363.198L380.899 290.606L393.119 300.103Z" fill="#494C7F"/>
<path d="M367.473 237.362C343.33 236.793 348.842 269.313 350.604 274.423C351.565 277.209 357.689 287.896 367.539 288.047C377.389 287.896 383.381 277.209 384.342 274.423C386.104 269.313 392.451 237.742 367.473 237.362Z" fill="#F37A50"/>
<path d="M363.244 260.54C363.488 260.41 363.684 260.189 363.778 259.906C363.97 259.32 363.652 258.69 363.067 258.498C362.891 258.439 358.71 257.11 354.907 259.839C354.407 260.199 354.292 260.896 354.651 261.396C355.011 261.896 355.707 262.011 356.208 261.652C359.099 259.575 362.337 260.606 362.37 260.616C362.671 260.716 362.985 260.679 363.244 260.54Z" fill="#2C2858"/>
<path d="M373.937 260.54C373.693 260.41 373.496 260.189 373.403 259.906C373.21 259.32 373.529 258.69 374.114 258.498C374.29 258.439 378.471 257.11 382.273 259.839C382.774 260.199 382.888 260.896 382.529 261.396C382.17 261.896 381.473 262.011 380.973 261.652C378.081 259.575 374.843 260.606 374.81 260.616C374.51 260.716 374.196 260.679 373.937 260.54Z" fill="#2C2858"/>
<path d="M378.42 264.114C378.42 265.202 377.539 266.083 376.451 266.083C375.363 266.083 374.482 265.202 374.482 264.114C374.482 263.027 375.363 262.146 376.451 262.146C377.538 262.146 378.42 263.027 378.42 264.114Z" fill="black"/>
<path d="M361.961 263.83C361.961 264.917 361.079 265.798 359.992 265.798C358.904 265.798 358.023 264.917 358.023 263.83C358.023 262.742 358.904 261.861 359.992 261.861C361.079 261.861 361.961 262.742 361.961 263.83Z" fill="black"/>
<path d="M368.727 265.342C369.939 268.055 371.491 271.376 371.491 271.376C371.491 271.376 370.21 273.88 366.733 273.433C368.288 273.03 369.879 272.244 369.554 270.201C369.227 268.158 368.727 265.342 368.727 265.342Z" fill="#DE623C"/>
<path d="M369.898 306.356L374.027 361.805L367.835 369.114L361.643 361.805L365.866 306.499L369.898 306.356Z" fill="#201D40"/>
<path d="M372.163 300.398L368.044 299.317L363.833 300.583L365.862 306.602L369.912 306.531L372.163 300.398Z" fill="#201D40"/>
<path d="M367.835 299.328C367.835 299.328 365.108 303.322 360.267 305.584L352.148 293.263L355.703 289.07L367.835 299.328Z" fill="white"/>
<path d="M367.835 299.328C367.835 299.328 371.783 303.933 375.618 305.314L382.97 292.013L379.507 288.024L367.835 299.328Z" fill="white"/>
<path d="M348.378 259.078C351.105 259.986 351.989 245.046 362.595 252.117C370.062 257.095 383.972 256.307 381.189 249.556C383.42 251.208 386.665 254.497 386.665 254.497L381.759 238.256C381.759 238.256 361.515 231.894 354.327 238.339C347.139 244.783 348.378 259.078 348.378 259.078Z" fill="#2C2858"/>
<path d="M352.585 261.822C354.19 264.972 353.255 268.664 350.496 270.07C347.737 271.477 344.199 270.064 342.594 266.915C340.989 263.766 341.924 260.073 344.683 258.667C347.442 257.26 350.98 258.673 352.585 261.822Z" fill="#F37A50"/>
<path d="M348.407 268.427C348.337 268.427 348.266 268.416 348.196 268.395C347.812 268.278 347.596 267.873 347.712 267.489C348.299 265.561 348.247 264.104 347.562 263.276C346.638 262.159 344.772 262.344 344.753 262.346C344.355 262.389 343.997 262.102 343.953 261.704C343.909 261.306 344.194 260.948 344.591 260.903C344.699 260.891 347.243 260.623 348.674 262.341C349.706 263.58 349.849 265.454 349.102 267.912C349.007 268.225 348.719 268.427 348.407 268.427Z" fill="#DE623C"/>
<path d="M368.578 279.85C365.136 279.85 362.18 277.977 361.966 277.768C361.612 277.42 361.606 276.851 361.953 276.497C362.277 276.166 362.793 276.139 363.148 276.417C363.408 276.584 369.419 280.273 373.361 275.935C373.695 275.568 374.264 275.541 374.631 275.875C374.999 276.209 375.026 276.777 374.692 277.145C373.123 278.871 371.157 279.78 368.849 279.847C368.758 279.849 368.668 279.85 368.578 279.85Z" fill="#DE623C"/>
<path d="M413.761 391.939L397.004 376.497H341.648L321.57 391.839L344.245 408.263H394.45L413.761 391.939Z" fill="#201D40"/>
<path d="M336.021 481.39C330.891 492.502 312.297 490.642 315.575 502.986C318.854 515.331 352.828 495.641 352.828 495.641C352.198 492.627 350.264 485.56 349.104 482.874L336.021 481.39Z" fill="black"/>
<path d="M400.096 480.831C405.45 492.427 424.855 490.485 421.433 503.368C418.012 516.251 382.555 495.703 382.555 495.703C383.213 492.558 385.231 485.183 386.442 482.379L400.096 480.831Z" fill="black"/>
<path d="M351.65 414.073C351.525 396.325 336.543 376.608 321.576 389.833C305.881 403.703 331.236 482.485 331.236 482.485C340.57 488.059 345.031 487.876 354.68 482.485C354.68 482.485 351.771 431.202 351.65 414.073Z" fill="#2C2858"/>
<path d="M387.031 414.073C387.156 396.325 401.94 384.056 413.761 391.939C426.559 400.473 405.615 484.294 405.615 484.294C401.996 486.035 391.442 487.161 384.088 485.068C384.088 485.068 386.911 431.202 387.031 414.073Z" fill="#2C2858"/>
<path d="M520.589 513.103C518.476 513.103 516.763 511.39 516.763 509.278V441.495H524.414V509.278C524.415 511.39 522.702 513.103 520.589 513.103Z" fill="#0E6A41"/>
<path d="M547.434 513.103C545.321 513.103 543.608 511.39 543.608 509.278V441.495H551.26V509.278C551.26 511.39 549.547 513.103 547.434 513.103Z" fill="#0E6A41"/>
<path d="M582.658 513.103C580.545 513.103 578.833 511.39 578.833 509.278V441.495H586.484V509.278C586.484 511.39 584.771 513.103 582.658 513.103Z" fill="#0E6A41"/>
<path d="M609.503 513.103C607.39 513.103 605.677 511.39 605.677 509.278V441.495H613.329V509.278C613.329 511.39 611.616 513.103 609.503 513.103Z" fill="#0E6A41"/>
<path d="M567.174 340.899V421.561C567.174 422.478 566.43 423.222 565.512 423.222H515.5C510.454 423.222 506.364 427.313 506.364 432.359C506.364 437.404 510.454 441.495 515.5 441.495H567.174H576.31C581.356 441.495 585.446 437.404 585.446 432.359V423.222V340.899C585.446 335.853 581.356 331.763 576.31 331.763C571.265 331.762 567.174 335.853 567.174 340.899Z" fill="#3F964F"/>
<path d="M615.851 331.762H576.31V424.703H615.851V331.762Z" fill="#3F964F"/>
<path d="M606.715 340.899V421.561C606.715 422.478 605.971 423.222 605.053 423.222H555.041C549.996 423.222 545.905 427.313 545.905 432.359C545.905 437.404 549.996 441.495 555.041 441.495H606.715H615.851C620.897 441.495 624.987 437.404 624.987 432.359V423.222V340.899C624.987 335.853 620.897 331.763 615.851 331.763C610.806 331.762 606.715 335.853 606.715 340.899Z" fill="#0E6A41"/>
<path d="M527.435 359.016C531.233 361.131 531.274 374.293 529.965 375.066C486.163 378.112 475.115 376.513 475.115 376.513L475.666 369.058C475.666 369.058 500.932 361.094 527.435 359.016Z" fill="#F37A50"/>
<path d="M568.686 334.942C561.958 345.701 533.991 374.811 529.42 375.224L524.256 359.354C524.256 359.354 550.483 324.649 555.14 319.3C563.182 310.018 579.703 317.399 568.686 334.942Z" fill="#F37A50"/>
<path d="M467.62 368C470.059 368.065 472.647 368.265 476.123 368.865L478.661 370.19L478.392 374.5C474.741 379.51 463.814 380.322 462.813 380.322C460.214 380.322 458.993 380.482 458.822 380.12C458.65 379.758 458.221 377.405 462.002 377.285C466.748 377.133 463.961 373.105 454.118 375.842C451.654 376.528 447.266 374.972 449.043 373.371C451.001 371.607 456.524 367.704 467.62 368Z" fill="#F37A50"/>
<path d="M552.593 277.457C551.784 266.442 554.968 256.711 563.751 251.755C572.653 246.732 583.805 251.658 583.805 251.658C583.806 251.658 593.244 248.3 601.798 257.723C610.353 267.146 603.882 275.439 607.382 282.311C609.454 286.381 619.992 287.22 617.27 300.476C616.485 304.299 611.887 306.873 607.993 307.129C601.15 307.578 594.778 304.933 592.004 307.578C582.864 316.295 562.609 313.142 559.774 305.169C558.895 302.697 540.675 307.481 542.492 290.642C543.413 282.109 553.316 287.299 552.593 277.457Z" fill="#0D0C1A"/>
<path d="M569.289 313.063L583.755 310.393L589.18 317.61L577.651 341.246L560.694 326.854L569.289 313.063Z" fill="#F37A50"/>
<path d="M550.538 370.053C550.785 365.556 543.517 347.087 547.343 337.792C550.129 330.314 554.783 317.761 560.484 315.667C563.174 314.679 565.938 313.99 569.29 313.063C569.29 313.063 567.399 322.486 571.338 322.802C578.921 323.411 583.755 310.393 583.755 310.393C587.844 310.002 606.598 316.164 606.589 317.704C606.545 329.766 596.745 347.365 593.54 360.406C592.279 374.491 597.193 391.346 597.211 392.949C597.211 392.949 567.041 401.43 549.157 391.584C548.783 390.214 550.196 376.263 550.538 370.053Z" fill="#E62552"/>
<path d="M592.673 378.477C592.673 378.477 599.333 395.281 600.957 405.859C602.582 416.436 593.415 423.223 593.415 423.223H517.188C517.188 423.223 509.027 409.989 511.378 400.85C513.728 391.712 519.135 390.259 519.135 390.259L592.673 378.477Z" fill="#E62552"/>
<path d="M516.167 389.79C525.899 388.418 554.144 399.388 566.188 423.223H532.494L516.167 389.79Z" fill="#DE623C"/>
<path d="M526.839 398.564C525.581 397.187 524.44 395.49 523.435 393.719C520.594 388.715 513.748 387.869 509.882 392.131C495.834 407.62 465.884 442.93 459.208 447.324C457.322 448.565 446.314 454.903 435.85 453.65C435.85 453.65 430.685 455.617 434.127 459.718C435.897 461.829 462.49 464.01 462.49 464.01L464.562 456.202C480.042 444.745 499.312 445.569 515.651 424.624C524.648 413.09 526.839 398.564 526.839 398.564Z" fill="#DE623C"/>
<path d="M457.103 468.515L446.402 475.46L444.931 473.707L453.611 465.613C448.68 461.723 437.26 464.969 437.26 464.969C433.52 462.552 426.228 454.716 425.476 450.517C427.871 447.532 435.848 453.672 435.848 453.672C435.555 455.002 438.075 459.608 440.08 460.395C448.792 462.275 457.476 459.8 464.561 456.201C464.561 456.201 470.483 465.174 457.103 468.515Z" fill="#201D40"/>
<path d="M526.996 400.667C528.944 401.191 530.398 402.824 530.68 404.822C531.442 410.228 535.378 421.176 530.053 432.641C516.98 460.787 509.262 479.333 507.891 486.597C511.305 492.992 497.689 510.461 497.487 511.605L487.686 508.538C487.686 508.538 493.31 500.173 495.334 496.897C500.156 489.097 500.944 479.526 501.728 472.107C505.073 440.434 499.321 420.436 522.239 401.856C523.594 400.757 525.31 400.214 526.996 400.667Z" fill="#F37A50"/>
<path d="M512.773 499.994L511.807 512.714L509.521 512.821L508.347 501.01C502.265 502.572 497.921 513.621 497.921 513.621C493.732 515.131 483.079 516.177 479.284 514.229C478.363 510.514 488.082 507.894 488.082 507.894C488.962 508.934 494.153 509.723 495.994 508.606C502.772 502.818 506.455 494.412 507.891 486.597C507.891 486.597 518.23 487.329 512.773 499.994Z" fill="#201D40"/>
<path d="M572.945 301.249L584.691 299.49L583.755 310.393C583.755 310.393 581.507 315.333 578.899 315.667L569.29 313.063L572.945 301.249Z" fill="#F37A50"/>
<path d="M595.559 285.485C592.526 298.149 582.005 306.485 572.059 304.103C562.112 301.721 556.507 289.524 559.539 276.86C562.572 264.196 573.093 255.86 583.04 258.242C592.986 260.623 598.591 272.82 595.559 285.485Z" fill="#F37A50"/>
<path d="M564.2 280.186C563.762 281.066 562.695 281.423 561.815 280.985C560.936 280.548 560.578 279.479 561.016 278.601C561.454 277.721 562.522 277.363 563.401 277.801C564.281 278.239 564.638 279.307 564.2 280.186Z" fill="black"/>
<path d="M578.171 283.633C577.697 284.585 576.541 284.972 575.589 284.498C574.637 284.024 574.25 282.868 574.724 281.916C575.198 280.964 576.354 280.577 577.306 281.051C578.258 281.526 578.645 282.681 578.171 283.633Z" fill="black"/>
<path d="M580.3 282.038C580.168 281.973 580.058 281.864 579.991 281.721C579.026 279.639 576.419 279.233 576.393 279.229C576.028 279.176 575.774 278.837 575.827 278.471C575.879 278.106 576.217 277.852 576.582 277.904C576.718 277.923 579.931 278.407 581.206 281.158C581.362 281.493 581.216 281.891 580.88 282.047C580.688 282.136 580.476 282.126 580.3 282.038Z" fill="#0D0C1A"/>
<path d="M560.321 277.609C560.257 277.577 560.197 277.534 560.144 277.479C559.884 277.217 559.886 276.793 560.15 276.533C562.192 274.515 564.709 275.352 564.815 275.388C565.164 275.509 565.351 275.89 565.23 276.239C565.11 276.589 564.731 276.774 564.382 276.656C564.299 276.628 562.527 276.066 561.091 277.486C560.881 277.692 560.571 277.733 560.321 277.609Z" fill="#0D0C1A"/>
<path d="M565.345 284.055C564.369 285.059 563.513 286.093 562.581 286.68C562.267 286.878 562.166 287.296 562.349 287.62C563.101 288.954 565.299 290.053 566.646 290.625C566.843 290.709 567.005 290.452 566.844 290.311C565.484 289.118 564.899 288.24 564.654 287.758C564.532 287.518 564.536 287.236 564.657 286.996C564.936 286.445 565.491 285.322 565.867 284.391C565.996 284.07 565.586 283.806 565.345 284.055Z" fill="#DE623C"/>
<path d="M590.773 285.565C588.356 287.445 587.644 290.573 589.183 292.551C590.722 294.529 593.929 294.608 596.345 292.728C598.762 290.847 599.474 287.72 597.935 285.742C596.396 283.764 593.189 283.685 590.773 285.565Z" fill="#F37A50"/>
<path d="M592.149 291.977C592.058 291.932 591.977 291.866 591.912 291.78C590.984 290.545 590.897 289.158 591.679 288.069C592.48 286.954 593.966 286.444 595.214 286.856C595.565 286.972 595.755 287.351 595.639 287.702C595.523 288.053 595.145 288.243 594.793 288.128C594.11 287.902 593.22 288.219 592.766 288.85C592.332 289.457 592.408 290.211 592.983 290.975C593.205 291.271 593.145 291.691 592.85 291.913C592.64 292.071 592.368 292.086 592.149 291.977Z" fill="#DE623C"/>
<path d="M576.34 294.153C576.62 293.774 576.317 293.246 575.85 293.302C574.662 293.443 572.698 293.637 570.824 293.637C568.949 293.637 566.985 293.443 565.797 293.302C565.33 293.246 565.027 293.774 565.307 294.153C566.169 295.315 567.95 297.079 570.824 297.079C573.697 297.079 575.478 295.315 576.34 294.153Z" fill="white"/>
<path d="M595.804 284.365C583.932 282.775 567.321 270.679 565.958 264.472C568.254 257.015 580.49 253.268 587.398 256.722C594.307 260.176 600.833 274.981 595.804 284.365Z" fill="#0D0C1A"/>
<path d="M655.129 295.72C648.677 292.617 650.046 286.597 650.046 286.597C647.242 286.964 640.896 312.676 639.671 328.016C625.628 321.269 602.406 313.671 597.188 314.602C597.188 314.602 589.907 315.177 590.374 324.062C590.792 331.991 600.912 334.119 600.912 334.119C600.912 334.119 645.397 346.588 649.863 342.487C656.813 336.105 653.6 303.59 655.129 295.72Z" fill="#F37A50"/>
<path d="M662.343 292.489C659.505 293.697 655.406 293.538 655.213 296.537L648.493 295.78L646.919 292.449C649.038 282.815 660.239 276.313 661.39 275.787C664.379 274.42 665.699 273.592 666.086 273.919C666.474 274.246 668.206 276.725 663.92 278.853C658.54 281.525 663.867 284.691 673.747 276.364C676.221 274.279 682.086 273.76 680.885 276.536C679.561 279.596 675.261 286.991 662.343 292.489Z" fill="#F37A50"/>
<path d="M198.469 513.975H198.775C201.25 513.975 203.257 511.968 203.257 509.493V432.851H193.987V509.493C193.987 511.968 195.994 513.975 198.469 513.975Z" fill="#0E6A41"/>
<path d="M165.947 513.975H166.253C168.728 513.975 170.734 511.968 170.734 509.493V432.851H161.465V509.493C161.465 511.968 163.472 513.975 165.947 513.975Z" fill="#0E6A41"/>
<path d="M118.79 509.641C118.79 512.034 120.865 513.975 123.425 513.975C125.985 513.975 128.06 512.034 128.06 509.641V432.85H118.79V509.641Z" fill="#0E6A41"/>
<path d="M90.75 513.975H91.0557C93.5309 513.975 95.5376 511.968 95.5376 509.493V432.851H86.2681V509.493C86.2681 511.968 88.2748 513.975 90.75 513.975Z" fill="#0E6A41"/>
<path d="M142.184 310.979V408.7C142.184 409.812 143.086 410.713 144.198 410.713H204.787C210.9 410.713 215.855 415.669 215.855 421.782C215.855 427.895 210.9 432.85 204.787 432.85H142.184H131.116C125.003 432.85 120.047 427.895 120.047 421.782V410.713V310.979C120.047 304.865 125.003 299.91 131.116 299.91H131.116C137.229 299.91 142.184 304.866 142.184 310.979Z" fill="#3F964F"/>
<path d="M83.2121 412.508H131.116V299.91H83.2121L83.2121 412.508Z" fill="#3F964F"/>
<path d="M94.2806 310.979V408.7C94.2806 409.812 95.1817 410.713 96.2939 410.713H156.883C162.996 410.713 167.951 415.669 167.951 421.782C167.951 427.895 162.996 432.85 156.883 432.85H94.2806H83.2119C77.0991 432.85 72.1436 427.895 72.1436 421.782V410.713V310.979C72.1436 304.865 77.0991 299.91 83.2119 299.91H83.2122C89.3251 299.91 94.2806 304.866 94.2806 310.979Z" fill="#0E6A41"/>
<path d="M224.919 311.59C221.905 308.451 218.423 307.118 218.376 301.417C218.361 299.345 218.535 297.183 218.649 294.668C218.827 290.788 219.594 287.529 220.406 287.367C222.242 287 222.843 288.011 223.138 290.304C223.366 292.076 222.351 294.434 223.608 295.444C224.725 296.343 226.315 296.921 230.178 292.425C235.111 286.684 235.859 283.81 237.914 285.211C239.263 286.129 237.036 289.185 232.496 294.703C235.902 292.794 240.034 284.01 242.545 286.307C244.369 287.975 236.35 296.152 233.937 297.784C239.008 295.795 242.582 288.374 243.993 289.131C246.87 290.865 240.746 298 236.315 300.057C241.088 299.228 242.682 294.776 243.923 295.695C246.236 297.41 239.238 304.761 233.974 307.265C232.417 308.007 224.919 311.59 224.919 311.59Z" fill="#F37A50"/>
<path d="M226.371 297.78C226.814 299.197 227.291 301.079 226.108 303C224.975 304.838 222.396 305.136 222.396 305.136C224.072 305.555 225.884 305.178 226.95 303.599C228.232 301.702 227.68 299.017 226.371 297.78Z" fill="#DE623C"/>
<path d="M191.372 328.843C201.682 321.004 216.615 303.582 216.615 303.582C222.531 306.172 225.655 312.716 225.655 312.716C218.521 338.43 196.385 359.743 186.315 361.282C177.122 362.687 153.844 318.335 165.138 296.825L169.859 295.783C182.703 302.094 191.372 328.843 191.372 328.843Z" fill="#C4204A"/>
<path d="M241.277 500.721L252.273 503.507L256.765 493.712C256.297 493.367 255.577 486.856 255.136 481.9L237.386 484.348C238.257 489.349 239.723 495.889 241.277 500.721Z" fill="#F37A50"/>
<path d="M260.683 506.496C260.683 506.496 264.485 500.103 269.304 499.7C269.304 499.7 278.396 500.221 281.586 504.045C282.587 505.246 282.202 507.809 281.806 509.449C281.559 510.474 280.69 511.586 278.003 512.431C274.033 513.68 268.68 514.445 258.818 511.888C246.986 508.822 245.098 510.084 240.725 508.675C236.193 507.215 237.65 501.675 238.886 496.281C238.886 496.281 242.184 502.883 260.683 506.496Z" fill="#201D40"/>
<path d="M257.063 492.754C257.063 492.754 262.343 495.953 269.248 497.538C273.111 498.425 283.408 500.422 281.75 507.287C281.503 508.311 280.634 509.424 277.947 510.269C273.978 511.518 268.624 512.283 258.762 509.726C246.93 506.659 245.042 507.922 240.669 506.513C236.137 505.053 238.229 498.766 239.465 493.37C239.577 494.74 240.211 498.333 248.431 501.552C250.885 502.513 248.88 491.691 257.063 492.754Z" fill="#2C2858"/>
<path d="M255.526 501.026C255.92 500.999 256.269 500.723 256.37 500.319C257.205 496.961 260.675 496.724 260.822 496.715C261.335 496.685 261.73 496.246 261.703 495.732C261.676 495.219 261.24 494.824 260.726 494.849C259.002 494.931 255.496 496.092 254.557 499.869C254.433 500.37 254.737 500.876 255.238 501C255.335 501.024 255.432 501.032 255.526 501.026Z" fill="#494C7F"/>
<path d="M259.862 502.764C260.256 502.738 260.605 502.461 260.706 502.057C261.541 498.699 265.011 498.462 265.158 498.452C265.671 498.423 266.067 497.984 266.039 497.47C266.012 496.956 265.577 496.562 265.063 496.587C263.338 496.669 259.833 497.83 258.893 501.607C258.769 502.107 259.074 502.614 259.574 502.739C259.671 502.762 259.768 502.77 259.862 502.764Z" fill="#494C7F"/>
<path d="M198.321 504.863L209.094 508.416L214.263 498.961C213.821 498.584 212.274 491.707 212.182 486.732L195.592 488.257C196.108 493.306 197.111 499.933 198.321 504.863Z" fill="#F37A50"/>
<path d="M180.44 382.226C205.002 386.712 239.887 402.622 243.328 406.242C250.435 413.718 253.916 439.431 257.268 485.229L235.772 486.664C227.837 450.887 220.373 435.288 219.154 420.758C219.154 420.758 200.316 422.062 171.972 411.123C157.999 405.731 143.438 399.44 147.629 386.816C150.968 376.759 157.02 377.948 180.44 382.226Z" fill="#201D40"/>
<path d="M152.968 384.365C173.375 386.473 200.594 409.824 204.035 413.444C211.143 420.919 212.038 446.451 215.39 492.249L193.997 494.221C190.533 470.495 180.409 443.31 180.439 425.889C180.439 425.889 161.289 421.738 131.647 415.071C115.432 411.424 110.567 408.912 107.465 398.324C106.41 394.721 104.98 386.375 106.598 384.512C113.758 376.273 133.651 382.369 152.968 384.365Z" fill="#2C2858"/>
<path d="M217.272 511.989C217.272 511.989 221.515 505.879 226.35 505.816C226.35 505.816 235.383 506.975 238.295 511.014C239.21 512.283 238.646 514.812 238.135 516.421C237.816 517.425 236.872 518.473 234.132 519.128C230.084 520.094 224.69 520.48 215.032 517.236C203.446 513.345 201.473 514.471 197.211 512.758C192.793 510.983 194.635 505.56 196.248 500.265C196.248 500.265 199.073 507.083 217.272 511.989Z" fill="#201D40"/>
<path d="M214.628 498.027C214.628 498.027 219.671 501.589 226.447 503.655C230.238 504.812 240.369 507.529 238.232 514.261C237.913 515.265 236.969 516.313 234.229 516.967C230.181 517.933 224.787 518.32 215.129 515.076C203.543 511.184 201.57 512.311 197.308 510.598C192.89 508.823 195.418 502.698 197.031 497.403C197.046 498.777 197.426 502.406 205.399 506.195C207.779 507.326 206.541 496.39 214.628 498.027Z" fill="#2C2858"/>
<path d="M210.707 506.527C211.101 506.501 211.45 506.225 211.551 505.821C212.386 502.463 215.856 502.227 216.003 502.217C216.516 502.186 216.911 501.748 216.884 501.234C216.857 500.72 216.421 500.326 215.908 500.351C214.183 500.432 210.677 501.594 209.738 505.37C209.614 505.871 209.919 506.378 210.419 506.502C210.516 506.526 210.612 506.534 210.707 506.527Z" fill="#494C7F"/>
<path d="M215.043 508.265C215.437 508.239 215.786 507.962 215.887 507.559C216.722 504.201 220.192 503.964 220.339 503.954C220.852 503.924 221.247 503.485 221.22 502.971C221.193 502.458 220.757 502.063 220.244 502.089C218.519 502.17 215.014 503.331 214.074 507.108C213.95 507.609 214.255 508.115 214.755 508.239C214.852 508.263 214.949 508.271 215.043 508.265Z" fill="#494C7F"/>
<path d="M139.492 275.212H139.502L147.644 275.242L149.488 294.473L139.984 299.492L129.848 294.53L131.486 275.242L139.492 275.212Z" fill="#DE623C"/>
<path d="M138.427 272.962C131.408 275.435 125.574 267.07 125.574 267.07C120.993 267.33 120.752 262.764 120.752 262.764C118.512 262.592 115.215 260.967 115.218 256.767C115.221 253.211 118.577 252.626 118.116 248.564C117.746 245.306 113.714 238.019 123.736 235.14C123.736 235.14 122.66 229.169 128.444 226.39C135.535 222.981 138.392 227.062 141.851 227.134C145.714 227.215 152.834 222.084 155.759 230.331C155.759 230.331 161.014 229.282 164.27 232.549C167.303 235.592 167.005 240.416 165.873 242.419C165.873 242.419 170.384 242.908 172.237 246.664C173.479 249.182 173.212 252.855 170.934 255.119C169.485 256.56 167.905 257.017 167.905 257.017C166.255 257.68 167.174 262.289 165.864 263.513C163.761 265.478 161.356 267.07 158.859 268.463L138.427 272.962Z" fill="#2C2858"/>
<path d="M124.37 262.502C125.712 275.923 137.005 286.832 147.546 285.778C158.087 284.723 163.884 272.106 162.542 258.685C161.199 245.264 151.566 235.239 141.026 236.293C130.485 237.347 123.028 249.082 124.37 262.502Z" fill="#F37A50"/>
<path d="M157.078 263.559C157.404 264.522 158.45 265.039 159.414 264.712C160.378 264.386 160.894 263.34 160.568 262.376C160.241 261.412 159.195 260.896 158.232 261.223C157.268 261.549 156.751 262.595 157.078 263.559Z" fill="black"/>
<path d="M142.862 263.84C143.215 264.883 144.348 265.442 145.391 265.088C146.434 264.735 146.993 263.603 146.64 262.56C146.286 261.516 145.154 260.957 144.111 261.31C143.067 261.664 142.508 262.796 142.862 263.84Z" fill="black"/>
<path d="M151.282 263.926C153.13 266.503 155.466 269.643 155.466 269.643C155.466 269.643 154.664 272.536 150.931 272.814C152.471 272.06 153.966 270.897 153.187 268.83C152.409 266.764 151.282 263.926 151.282 263.926Z" fill="#DE623C"/>
<path d="M140.382 261.514C140.314 261.494 140.247 261.467 140.183 261.431C139.741 261.181 139.586 260.62 139.836 260.177C140.519 258.971 142.524 256.892 145.221 257.657C145.711 257.803 145.993 258.303 145.854 258.792C145.716 259.28 145.208 259.564 144.719 259.426C142.722 258.859 141.449 261.061 141.436 261.083C141.222 261.461 140.782 261.629 140.382 261.514Z" fill="#2C2858"/>
<path d="M156.945 259.873C156.819 259.837 156.7 259.767 156.603 259.665C156.311 259.358 156.324 258.873 156.631 258.582C156.679 258.536 157.827 257.464 159.366 257.616C160.418 257.719 161.355 258.344 162.153 259.473C162.397 259.819 162.315 260.297 161.969 260.541C161.624 260.785 161.146 260.703 160.902 260.357C160.372 259.608 159.805 259.198 159.216 259.14C158.379 259.058 157.692 259.686 157.686 259.692C157.481 259.887 157.198 259.946 156.945 259.873Z" fill="#2C2858"/>
<path d="M164.995 245.05L141.43 231.692L119.11 249.962L126.155 267.396C124.972 258.891 130.686 260.473 132.801 257.451C134.946 254.387 135.271 250.26 142.331 252.307C142.331 252.307 146.689 247.663 150.402 252.063C153.272 255.466 155.874 254.127 158.67 253.729C161.968 253.261 161.881 256.582 163.843 256.049L164.995 245.05Z" fill="#2C2858"/>
<path d="M127.276 261.251C129.502 263.51 129.808 266.818 127.959 268.64C126.11 270.462 122.807 270.107 120.581 267.848C118.354 265.589 118.048 262.281 119.897 260.459C121.746 258.637 125.05 258.992 127.276 261.251Z" fill="#F37A50"/>
<path d="M124.992 267.647C125.091 267.613 125.183 267.557 125.261 267.477C126.382 266.336 126.66 264.923 126.005 263.698C125.335 262.445 123.878 261.719 122.541 261.973C122.164 262.044 121.918 262.407 121.989 262.783C122.06 263.16 122.423 263.407 122.799 263.335C123.532 263.196 124.403 263.643 124.782 264.353C125.147 265.034 124.965 265.799 124.272 266.506C124.004 266.779 124.008 267.218 124.281 267.486C124.475 267.677 124.752 267.73 124.992 267.647Z" fill="#DE623C"/>
<path d="M155.621 277.055C155.962 276.639 155.645 276.019 155.109 276.057C153.745 276.154 151.492 276.266 149.351 276.163C147.211 276.06 144.979 275.731 143.631 275.505C143.1 275.415 142.726 276.002 143.025 276.448C143.945 277.823 145.882 279.936 149.162 280.094C152.443 280.252 154.574 278.336 155.621 277.055Z" fill="white"/>
<path d="M106.602 384.884C106.602 384.884 123.641 386.642 139.609 386.748C155.576 386.63 172.615 383.533 172.615 383.533C172.615 383.533 170.469 354.209 170.688 342.948C170.998 330.018 169.859 312.872 169.859 295.783C169.859 295.783 158.533 293.96 152.144 293.172C151.106 293.043 150.199 292.945 149.49 292.882C149.49 292.882 145.849 300.519 129.988 292.882C129.154 292.799 128.123 292.804 126.97 292.871C120.306 293.269 109.575 295.783 109.575 295.783C109.575 312.826 108.887 329.528 109.117 342.46C108.407 353.995 106.602 384.884 106.602 384.884Z" fill="#E62552"/>
<path d="M150.836 342.443C149.55 338.511 147.117 335.932 149.429 331.03C150.27 329.248 151.312 327.468 152.448 325.361C154.2 322.111 156.203 319.636 156.964 319.832C158.689 320.275 158.787 321.389 158.093 323.474C157.557 325.087 155.715 326.687 156.375 328.071C156.961 329.302 158.084 330.453 163.248 328.196C169.842 325.314 171.669 323.16 172.851 325.208C173.628 326.551 170.459 328.25 164.294 331.104C167.999 330.874 175.162 325.055 176.365 328.058C177.239 330.239 166.997 333.935 164.257 334.337C169.421 334.726 175.544 329.844 176.441 331.074C178.19 333.747 170 337.332 165.357 337.266C169.787 338.525 172.99 335.369 173.673 336.668C174.947 339.092 165.92 342.501 160.377 342.474C158.737 342.468 150.836 342.443 150.836 342.443Z" fill="#F37A50"/>
<path d="M112.839 338.582C125.759 337.679 147.8 331.297 147.8 331.297C151.327 336.707 150.352 343.893 150.352 343.893C130.287 361.484 100.089 367.171 90.8238 362.936C82.365 359.071 88.3363 307.578 109.575 295.783L110.311 295.851C117.592 308.172 112.839 338.582 112.839 338.582Z" fill="#C4204A"/>
<path d="M126.969 292.87V292.872C128.072 294.714 129.633 296.108 131.834 297.215C135.32 298.974 140.058 299.72 142.975 299.492C145.285 299.31 147.846 298.368 149.488 297.067C151.231 295.683 151.989 293.92 152.144 293.172C151.105 293.043 150.039 292.882 149.33 292.82C149.33 292.82 145.849 300.519 129.988 292.882C129.154 292.799 128.123 292.803 126.969 292.87Z" fill="#C4204A"/>
<path d="M171.091 374.993H244.911L259.483 328.662C260.156 326.522 258.558 324.345 256.315 324.345H189.458C188.007 324.345 186.724 325.286 186.289 326.67L171.091 374.993Z" fill="#7F95DB"/>
<path d="M176.69 374.993H250.511L265.082 328.662C265.755 326.522 264.157 324.345 261.914 324.345H195.057C193.607 324.345 192.324 325.286 191.889 326.67L176.69 374.993Z" fill="#95A6DB"/>
<path d="M220.15 350.581C219.337 353.443 220.785 356.362 223.383 357.1C225.982 357.839 228.748 356.117 229.561 353.255C230.374 350.393 228.927 347.475 226.328 346.736C223.729 345.998 220.963 347.719 220.15 350.581Z" fill="#B4C2F0"/>
<path d="M129.152 370.155H176.691V374.877H124.431C124.431 372.269 126.544 370.155 129.152 370.155Z" fill="#7F95DB"/>
<path d="M519.896 374.993H448.066L433.887 329.911C433.232 327.829 434.787 325.71 436.97 325.71H502.025C503.436 325.71 504.684 326.626 505.108 327.972L519.896 374.993Z" fill="#7F95DB"/>
<path d="M514.448 374.993H442.617L428.439 329.911C427.783 327.829 429.339 325.71 431.521 325.71H496.576C497.988 325.71 499.235 326.626 499.659 327.972L514.448 374.993Z" fill="#95A6DB"/>
<path d="M472.159 351.24C472.95 354.025 471.542 356.864 469.013 357.583C466.484 358.301 463.793 356.626 463.002 353.841C462.21 351.057 463.619 348.217 466.148 347.498C468.677 346.78 471.368 348.455 472.159 351.24Z" fill="#B4C2F0"/>
<path d="M560.704 370.286H514.448V374.88H565.298C565.298 372.343 563.241 370.286 560.704 370.286Z" fill="#7F95DB"/>
<path d="M589.19 387.381H101.264C96.0886 387.381 91.8933 384.558 91.8933 381.075C91.8933 377.593 96.0886 374.77 101.264 374.77H589.19C594.366 374.77 598.561 377.593 598.561 381.075C598.561 384.557 594.366 387.381 589.19 387.381Z" fill="#617AC9"/>
<path d="M406.583 372.162H324.648L321.588 324.987C321.384 321.848 323.875 319.191 327.02 319.191H404.213C407.358 319.191 409.849 321.849 409.645 324.987L406.583 372.162Z" fill="#B4C2F0"/>
<path d="M406.583 374.77H324.648L321.588 327.594C321.384 324.456 323.875 321.799 327.02 321.799H404.213C407.358 321.799 409.849 324.457 409.645 327.595L406.583 374.77Z" fill="#95A6DB"/>
<path d="M369.174 350.56C369.174 353.257 366.988 355.443 364.291 355.443C361.594 355.443 359.407 353.257 359.407 350.56C359.407 347.863 361.594 345.677 364.291 345.677C366.988 345.677 369.174 347.863 369.174 350.56Z" fill="#B4C2F0"/>
<path d="M403.979 371.73C404.122 371.532 404.3 371.374 404.491 371.234C404.457 371.21 404.422 371.19 404.388 371.165C402.395 369.724 401.619 367.396 402.654 365.967C402.824 365.732 403.035 365.541 403.273 365.384C402.382 364.097 402.193 362.62 402.932 361.599C403.226 361.194 403.636 360.909 404.114 360.735C403.14 359.508 402.947 357.907 403.774 356.765C404.81 355.336 407.027 355.175 408.729 356.406C410.429 357.636 410.97 359.793 409.934 361.222C409.673 361.583 409.334 361.863 408.948 362.061C410.535 363.503 411.084 365.528 410.149 366.82C409.979 367.054 409.768 367.246 409.53 367.403C410.421 368.69 410.61 370.168 409.87 371.188C409.598 371.564 409.225 371.838 408.79 372.015C409.704 373.065 409.909 374.49 409.182 375.494C408.307 376.701 406.434 376.837 404.998 375.797C403.561 374.758 403.105 372.937 403.979 371.73Z" fill="#F37A50"/>
<path d="M281.257 377.533C281.066 377.379 280.917 377.194 280.787 376.996C280.762 377.029 280.74 377.062 280.713 377.095C279.172 379.012 276.808 379.67 275.434 378.564C275.208 378.382 275.027 378.161 274.883 377.916C273.552 378.741 272.067 378.854 271.086 378.064C270.696 377.751 270.432 377.327 270.283 376.84C269.007 377.751 267.399 377.862 266.301 376.978C264.926 375.872 264.878 373.648 266.193 372.012C267.508 370.375 269.69 369.946 271.064 371.052C271.412 371.331 271.675 371.684 271.852 372.079C273.373 370.567 275.423 370.122 276.666 371.122C276.892 371.304 277.073 371.524 277.218 371.77C278.548 370.945 280.033 370.831 281.015 371.621C281.376 371.912 281.631 372.298 281.786 372.742C282.881 371.882 284.314 371.75 285.28 372.527C286.441 373.462 286.482 375.339 285.371 376.721C284.26 378.104 282.418 378.467 281.257 377.533Z" fill="#F37A50"/>
<path d="M113.117 513.103L102.247 513.046L130.836 384.68L141.231 386.867L113.117 513.103Z" fill="#617AC9"/>
<path d="M564.187 513.103L575.057 513.046L546.468 384.68L536.073 386.867L564.187 513.103Z" fill="#617AC9"/>
<path d="M527.008 93.7274L533.429 135.694C533.674 137.294 532.578 138.786 530.981 139.03L458.044 150.189C456.447 150.434 454.955 149.338 454.71 147.738L448.29 105.771C448.045 104.171 449.141 102.679 450.738 102.435L523.674 91.2758C525.272 91.0314 526.764 92.1277 527.008 93.7274Z" fill="#F3BC3D"/>
<path d="M527.008 93.7275L527.363 96.0476L497.783 124.999C494.926 127.907 490.511 128.621 486.883 126.762L448.492 107.096L448.289 105.771C448.045 104.173 449.142 102.679 450.741 102.434L523.671 91.2761C525.27 91.0321 526.764 92.1292 527.008 93.7275Z" fill="#F3CD75"/>
<path d="M160.943 207.119H236.301C242.245 207.119 247.064 202.301 247.064 196.356V164.199C247.064 158.255 242.245 153.436 236.301 153.436H160.943C154.999 153.436 150.18 158.255 150.18 164.199V196.356C150.18 202.301 154.999 207.119 160.943 207.119Z" fill="white"/>
<path d="M163.9 204.714V224.699C163.9 226.304 166.059 226.821 166.785 225.39L177.289 204.714H163.9Z" fill="white"/>
<path d="M162.813 170.213H233.524C236.243 170.213 238.448 168.009 238.448 165.29C238.448 162.57 236.243 160.366 233.524 160.366H162.813C160.094 160.366 157.889 162.57 157.889 165.29C157.89 168.009 160.094 170.213 162.813 170.213Z" fill="#E3EAFF"/>
<path d="M162.813 185.833H233.524C236.243 185.833 238.448 183.629 238.448 180.909C238.448 178.19 236.243 175.985 233.524 175.985H162.813C160.094 175.985 157.889 178.19 157.889 180.909C157.89 183.629 160.094 185.833 162.813 185.833Z" fill="#E3EAFF"/>
<path d="M162.09 201.452H207.468C209.788 201.452 211.668 199.571 211.668 197.251V195.805C211.668 193.485 209.788 191.604 207.468 191.604H162.09C159.77 191.604 157.889 193.485 157.889 195.805V197.251C157.89 199.571 159.77 201.452 162.09 201.452Z" fill="#E3EAFF"/>
<path d="M334.038 236.151H252.503C246.071 236.151 240.858 230.937 240.858 224.506V179.597C240.858 173.165 246.071 167.951 252.503 167.951H334.038C340.47 167.951 345.684 173.165 345.684 179.597V224.506C345.683 230.937 340.47 236.151 334.038 236.151Z" fill="#CDD8FA"/>
<path d="M330.839 233.549V255.172C330.839 256.908 328.503 257.468 327.717 255.92L316.352 233.549H330.839V233.549Z" fill="#CDD8FA"/>
<path d="M607.794 182.199L518.08 147.145C512.381 144.919 509.567 138.494 511.793 132.795L552.831 27.7696C555.058 22.0709 561.482 19.2562 567.181 21.4829L656.895 56.5374C662.593 58.7637 665.408 65.1885 663.181 70.8869L622.144 175.913C619.917 181.611 613.493 184.426 607.794 182.199Z" fill="#CDD8FA"/>
<path d="M583.692 62.612L574.858 59.1606L544.227 137.561L553.061 141.012L583.692 62.612Z" fill="white"/>
<path d="M596.885 67.7691L588.052 64.3179L557.421 142.717L566.254 146.169L596.885 67.7691Z" fill="white"/>
<path d="M610.082 72.9709L601.248 69.5186L570.609 147.918L579.442 151.37L610.082 72.9709Z" fill="white"/>
<path d="M623.272 78.0838L614.438 74.6323L583.807 153.032L592.641 156.483L623.272 78.0838Z" fill="white"/>
<path d="M636.471 83.2332L627.637 79.7817L597.006 158.181L605.84 161.633L636.471 83.2332Z" fill="white"/>
<path d="M586.421 55.6243L577.587 52.1729L575.969 56.3137L584.803 59.7652L586.421 55.6243Z" fill="white"/>
<path d="M570.64 57.513L561.806 54.0615L560.188 58.2027L569.022 61.6541L570.64 57.513Z" fill="white"/>
<path d="M565.535 70.5799L556.701 67.1284L555.084 71.2693L563.918 74.7208L565.535 70.5799Z" fill="white"/>
<path d="M560.43 83.6468L551.596 80.1953L549.979 84.3362L558.813 87.7877L560.43 83.6468Z" fill="white"/>
<path d="M555.324 96.7151L546.49 93.2637L544.872 97.4046L553.706 100.856L555.324 96.7151Z" fill="white"/>
<path d="M555.324 96.7151L546.49 93.2637L544.872 97.4046L553.706 100.856L555.324 96.7151Z" fill="white"/>
<path d="M550.216 109.787L541.382 106.335L539.764 110.476L548.598 113.928L550.216 109.787Z" fill="white"/>
<path d="M545.11 122.854L536.276 119.402L534.659 123.543L543.492 126.995L545.11 122.854Z" fill="white"/>
<path d="M599.619 60.7736L590.785 57.3223L589.167 61.4634L598.001 64.9148L599.619 60.7736Z" fill="white"/>
<path d="M612.813 65.9782L603.979 62.5259L602.361 66.6668L611.195 70.1191L612.813 65.9782Z" fill="white"/>
<path d="M626.011 71.1286L617.177 67.6763L615.559 71.8172L624.393 75.2695L626.011 71.1286Z" fill="white"/>
<path d="M639.203 76.2391L630.369 72.7876L628.752 76.9285L637.586 80.3799L639.203 76.2391Z" fill="white"/>
<path d="M642.336 68.7812L573.587 41.9187C570.918 40.8756 569.599 37.8657 570.642 35.1959C571.685 32.5264 574.695 31.2077 577.365 32.2508L646.113 59.113C648.783 60.1565 650.101 63.1663 649.058 65.8358C648.015 68.5056 645.006 69.824 642.336 68.7812Z" fill="white"/>
<path d="M309.746 219.112C309.746 220.018 309.591 220.895 309.299 221.728C307.843 225.91 302.98 228.982 297.204 228.982C291.429 228.982 286.566 225.91 285.11 221.728C284.818 220.895 284.664 220.018 284.664 219.112H309.746Z" fill="#95A6DB"/>
<path d="M309.746 219.112C309.746 220.018 309.591 220.895 309.299 221.728H285.11C284.818 220.895 284.664 220.018 284.664 219.112H309.746Z" fill="#7F95DB"/>
<path d="M323.467 176.805C323.467 162.313 311.729 150.562 297.242 150.542C282.953 150.522 271.202 162.037 270.945 176.323C270.834 182.572 272.905 188.332 276.447 192.894C280.928 198.667 283.416 205.737 283.416 213.045V213.174H310.993V213.045C310.993 205.727 313.499 198.656 317.98 192.871C321.42 188.43 323.467 182.857 323.467 176.805Z" fill="#F3BC3D"/>
<path d="M301.178 210.202C301.105 210.202 301.03 210.189 300.957 210.164C300.607 210.042 300.422 209.659 300.544 209.309C300.575 209.22 303.671 200.297 305.922 191.212C309.911 175.107 307.858 172.489 306.791 172.111C303.651 171 301.152 172.644 299.608 174.219C299.154 174.682 298.719 175.204 298.31 175.773C298.98 176.933 299.585 178.214 300.091 179.567C301.482 183.283 301.852 186.754 301.08 188.851C300.484 190.469 299.219 191.289 297.517 191.161C295.911 191.04 294.736 190.111 294.119 188.472C293.412 186.593 293.503 183.831 294.37 180.892C294.917 179.037 295.736 177.252 296.728 175.714C295.801 174.249 294.729 172.988 293.565 172.14C291.837 170.88 290.214 170.825 288.741 171.976C285.7 174.354 285.583 181.505 288.404 192.655C290.579 201.252 293.771 209.2 293.803 209.279C293.942 209.623 293.775 210.014 293.432 210.153C293.088 210.292 292.696 210.125 292.558 209.781C292.525 209.702 289.304 201.68 287.106 192.997C284.099 181.117 284.371 173.689 287.914 170.919C289.861 169.397 292.149 169.445 294.357 171.055C295.464 171.861 296.557 173.07 297.549 174.549C297.901 174.092 298.269 173.666 298.649 173.279C301.218 170.658 304.269 169.794 307.239 170.845C309.088 171.5 309.846 173.988 309.557 178.453C309.344 181.746 308.559 186.15 307.223 191.542C304.958 200.687 301.843 209.661 301.812 209.751C301.715 210.028 301.455 210.202 301.178 210.202ZM297.492 177.029C296.733 178.319 296.102 179.769 295.658 181.272C294.884 183.897 294.778 186.411 295.376 187.999C295.807 189.144 296.541 189.741 297.618 189.822C298.729 189.905 299.429 189.449 299.82 188.387C300.71 185.968 299.63 181.028 297.492 177.029Z" fill="white"/>
<path d="M308.667 219.972H285.742C283.009 219.972 280.793 217.756 280.793 215.023V214.815C280.793 212.082 283.009 209.867 285.742 209.867H308.667C311.4 209.867 313.616 212.082 313.616 214.815V215.023C313.616 217.756 311.4 219.972 308.667 219.972Z" fill="#95A6DB"/>
<path d="M341.821 177.885H333.234C332.012 177.885 331.021 176.894 331.021 175.672C331.021 174.45 332.012 173.458 333.234 173.458H341.821C343.044 173.458 344.034 174.45 344.034 175.672C344.034 176.894 343.044 177.885 341.821 177.885Z" fill="#F3BC3D"/>
<path d="M261.174 177.885H252.587C251.365 177.885 250.374 176.894 250.374 175.672C250.374 174.45 251.365 173.458 252.587 173.458H261.174C262.397 173.458 263.387 174.45 263.387 175.672C263.387 176.894 262.397 177.885 261.174 177.885Z" fill="#F3BC3D"/>
<path d="M266.632 159.716L259.798 154.516C258.826 153.776 258.637 152.387 259.377 151.415C260.117 150.442 261.506 150.254 262.479 150.994L269.312 156.193C270.285 156.933 270.473 158.322 269.733 159.295C268.993 160.268 267.605 160.456 266.632 159.716Z" fill="#F3BC3D"/>
<path d="M327.339 159.716L334.173 154.516C335.146 153.776 335.334 152.387 334.594 151.415C333.854 150.442 332.465 150.254 331.493 150.994L324.659 156.193C323.686 156.933 323.498 158.322 324.238 159.295C324.978 160.268 326.367 160.456 327.339 159.716Z" fill="#F3BC3D"/>
<path d="M266.632 194.371L259.798 199.571C258.826 200.311 258.637 201.7 259.377 202.672C260.117 203.645 261.506 203.833 262.479 203.093L269.312 197.893C270.285 197.153 270.473 195.764 269.733 194.792C268.993 193.819 267.605 193.631 266.632 194.371Z" fill="#F3BC3D"/>
<path d="M327.339 194.371L334.173 199.571C335.146 200.311 335.334 201.7 334.594 202.672C333.854 203.645 332.465 203.833 331.493 203.093L324.659 197.893C323.686 197.153 323.498 195.764 324.238 194.792C324.978 193.819 326.367 193.631 327.339 194.371Z" fill="#F3BC3D"/>
<path d="M363.68 118.901H275.539C273.314 118.901 271.511 117.097 271.511 114.873V56.2247C271.511 54.0003 273.314 52.1973 275.539 52.1973H363.68C365.905 52.1973 367.708 54.0003 367.708 56.2247V114.873C367.708 117.097 365.904 118.901 363.68 118.901Z" fill="#CDD8FA"/>
<path d="M349.077 74.732H281.106C278.714 74.732 276.776 72.7937 276.776 70.4017V68.9955C276.776 66.6044 278.714 64.6655 281.106 64.6655H349.077C351.468 64.6655 353.406 66.6041 353.406 68.9955V70.4017C353.406 72.7934 351.468 74.732 349.077 74.732Z" fill="white"/>
<path d="M321.33 87.9621H278.457C277.529 87.9621 276.776 87.209 276.776 86.28V84.6105C276.776 83.6815 277.529 82.9287 278.457 82.9287H321.33C322.259 82.9287 323.012 83.6815 323.012 84.6105V86.28C323.012 87.209 322.259 87.9621 321.33 87.9621Z" fill="white"/>
<path d="M308.345 108.234H278.196C277.412 108.234 276.776 107.598 276.776 106.814V104.622C276.776 103.837 277.412 103.201 278.196 103.201H308.345C309.129 103.201 309.765 103.837 309.765 104.622V106.814C309.765 107.598 309.13 108.234 308.345 108.234Z" fill="white"/>
<path d="M330.894 97.4586H278.626C277.604 97.4586 276.776 96.6303 276.776 95.6081V94.2758C276.776 93.2537 277.604 92.4253 278.626 92.4253H330.894C331.916 92.4253 332.744 93.2537 332.744 94.2758V95.6081C332.744 96.6303 331.916 97.4586 330.894 97.4586Z" fill="white"/>
<path d="M358.092 121.639L360.387 129.707C359.782 129.752 359.174 129.77 358.563 129.758C336.817 130.338 329.201 100.145 339.823 100.509C342.044 100.739 343.66 102.725 343.43 104.946C342.575 113.267 348.649 120.733 356.97 121.588C357.35 121.614 357.722 121.633 358.092 121.639Z" fill="#C4204A"/>
<path d="M381.656 108.878C381.539 110.293 381.278 111.676 380.889 113.015L372.719 111.557C375.452 103.381 371.619 92.967 360.071 91.4102C357.069 91.1008 354.077 91.6829 351.424 93.0894C346.654 95.4757 342.981 88.5637 347.632 85.9476C363.381 77.0811 383.994 90.8818 381.656 108.878Z" fill="#F5A3B7"/>
<path d="M380.889 113.014C378.264 122.045 369.813 129.048 360.387 129.707L358.092 121.639C365.836 121.764 370.839 117.193 372.719 111.557L380.889 113.014Z" fill="#E62552"/>
<path d="M365.858 106.499C365.858 110.551 362.573 113.836 358.521 113.836C354.469 113.836 351.184 110.551 351.184 106.499C351.184 102.447 354.469 99.1626 358.521 99.1626C362.573 99.1626 365.858 102.447 365.858 106.499Z" fill="#C4204A"/>
</g>
<defs>
<clipPath id="clip0_1_5080">
<rect width="748" height="547" fill="white"/>
</clipPath>
</defs>
</svg>
